%TF.GenerationSoftware,KiCad,Pcbnew,8.0.1*%
%TF.CreationDate,2024-08-22T21:07:08+03:00*%
%TF.ProjectId,Maze_kiCad,4d617a65-5f6b-4694-9361-642e6b696361,rev?*%
%TF.SameCoordinates,Original*%
%TF.FileFunction,Drillmap*%
%TF.FilePolarity,Positive*%
%FSLAX45Y45*%
G04 Gerber Fmt 4.5, Leading zero omitted, Abs format (unit mm)*
G04 Created by KiCad (PCBNEW 8.0.1) date 2024-08-22 21:07:08*
%MOMM*%
%LPD*%
G01*
G04 APERTURE LIST*
%ADD10C,0.050000*%
%ADD11C,0.200000*%
%ADD12C,0.100000*%
%ADD13C,0.101600*%
%ADD14C,0.102000*%
%ADD15C,0.120000*%
%ADD16C,0.130000*%
G04 APERTURE END LIST*
D10*
X21050000Y-9850000D02*
G75*
G02*
X16050000Y-14850000I-5000000J0D01*
G01*
X6050000Y-9850000D02*
G75*
G02*
X11050000Y-4850000I5000000J0D01*
G01*
X11050000Y-14850000D02*
G75*
G02*
X6050000Y-9850000I0J5000000D01*
G01*
X11050000Y-4850000D02*
X16050000Y-4850000D01*
X11050000Y-14850000D02*
X16050000Y-14850000D01*
X16050000Y-4850000D02*
G75*
G02*
X21050000Y-9850000I0J-5000000D01*
G01*
D11*
D12*
X7585000Y-9035000D02*
X7615000Y-9065000D01*
X7615000Y-9035000D02*
X7585000Y-9065000D01*
X7785000Y-9035000D02*
X7815000Y-9065000D01*
X7815000Y-9035000D02*
X7785000Y-9065000D01*
X9835000Y-10485000D02*
X9865000Y-10515000D01*
X9865000Y-10485000D02*
X9835000Y-10515000D01*
X10785000Y-9585000D02*
X10815000Y-9615000D01*
X10815000Y-9585000D02*
X10785000Y-9615000D01*
X11635000Y-6285000D02*
X11665000Y-6315000D01*
X11665000Y-6285000D02*
X11635000Y-6315000D01*
X11935000Y-6685000D02*
X11965000Y-6715000D01*
X11965000Y-6685000D02*
X11935000Y-6715000D01*
X12035000Y-5485000D02*
X12065000Y-5515000D01*
X12065000Y-5485000D02*
X12035000Y-5515000D01*
X12135000Y-6685000D02*
X12165000Y-6715000D01*
X12165000Y-6685000D02*
X12135000Y-6715000D01*
X12285000Y-10485000D02*
X12315000Y-10515000D01*
X12315000Y-10485000D02*
X12285000Y-10515000D01*
X12385000Y-5335000D02*
X12415000Y-5365000D01*
X12415000Y-5335000D02*
X12385000Y-5365000D01*
X12435000Y-10685000D02*
X12465000Y-10715000D01*
X12465000Y-10685000D02*
X12435000Y-10715000D01*
X12635000Y-13585000D02*
X12665000Y-13615000D01*
X12665000Y-13585000D02*
X12635000Y-13615000D01*
X12685000Y-5735000D02*
X12715000Y-5765000D01*
X12715000Y-5735000D02*
X12685000Y-5765000D01*
X12785000Y-13985000D02*
X12815000Y-14015000D01*
X12815000Y-13985000D02*
X12785000Y-14015000D01*
X12885000Y-14285000D02*
X12915000Y-14315000D01*
X12915000Y-14285000D02*
X12885000Y-14315000D01*
X13785000Y-10335000D02*
X13815000Y-10365000D01*
X13815000Y-10335000D02*
X13785000Y-10365000D01*
X13838530Y-10881470D02*
X13868530Y-10911470D01*
X13868530Y-10881470D02*
X13838530Y-10911470D01*
X13885000Y-8435000D02*
X13915000Y-8465000D01*
X13915000Y-8435000D02*
X13885000Y-8465000D01*
X13985000Y-7385000D02*
X14015000Y-7415000D01*
X14015000Y-7385000D02*
X13985000Y-7415000D01*
X17035000Y-12385000D02*
X17065000Y-12415000D01*
X17065000Y-12385000D02*
X17035000Y-12415000D01*
X17135000Y-11635000D02*
X17165000Y-11665000D01*
X17165000Y-11635000D02*
X17135000Y-11665000D01*
X17135000Y-12585000D02*
X17165000Y-12615000D01*
X17165000Y-12585000D02*
X17135000Y-12615000D01*
X17535000Y-11635000D02*
X17565000Y-11665000D01*
X17565000Y-11635000D02*
X17535000Y-11665000D01*
X17885000Y-11585000D02*
X17915000Y-11615000D01*
X17915000Y-11585000D02*
X17885000Y-11615000D01*
X14835000Y-11623000D02*
G75*
G02*
X14765000Y-11623000I-35000J0D01*
G01*
X14765000Y-11623000D02*
G75*
G02*
X14835000Y-11623000I35000J0D01*
G01*
X14835000Y-12385000D02*
G75*
G02*
X14765000Y-12385000I-35000J0D01*
G01*
X14765000Y-12385000D02*
G75*
G02*
X14835000Y-12385000I35000J0D01*
G01*
X15085000Y-11623000D02*
G75*
G02*
X15015000Y-11623000I-35000J0D01*
G01*
X15015000Y-11623000D02*
G75*
G02*
X15085000Y-11623000I35000J0D01*
G01*
X15085000Y-12385000D02*
G75*
G02*
X15015000Y-12385000I-35000J0D01*
G01*
X15015000Y-12385000D02*
G75*
G02*
X15085000Y-12385000I35000J0D01*
G01*
X15335000Y-11623000D02*
G75*
G02*
X15265000Y-11623000I-35000J0D01*
G01*
X15265000Y-11623000D02*
G75*
G02*
X15335000Y-11623000I35000J0D01*
G01*
X15335000Y-12385000D02*
G75*
G02*
X15265000Y-12385000I-35000J0D01*
G01*
X15265000Y-12385000D02*
G75*
G02*
X15335000Y-12385000I35000J0D01*
G01*
X10689750Y-9839250D02*
X10689750Y-9919250D01*
X10649750Y-9879250D02*
X10729750Y-9879250D01*
X10689750Y-10093250D02*
X10689750Y-10173250D01*
X10649750Y-10133250D02*
X10729750Y-10133250D01*
X10689750Y-10347250D02*
X10689750Y-10427250D01*
X10649750Y-10387250D02*
X10729750Y-10387250D01*
X10689750Y-10601250D02*
X10689750Y-10681250D01*
X10649750Y-10641250D02*
X10729750Y-10641250D01*
X10689750Y-10855250D02*
X10689750Y-10935250D01*
X10649750Y-10895250D02*
X10729750Y-10895250D01*
X10689750Y-11109250D02*
X10689750Y-11189250D01*
X10649750Y-11149250D02*
X10729750Y-11149250D01*
X10689750Y-11363250D02*
X10689750Y-11443250D01*
X10649750Y-11403250D02*
X10729750Y-11403250D01*
X10689750Y-11617250D02*
X10689750Y-11697250D01*
X10649750Y-11657250D02*
X10729750Y-11657250D01*
X11256632Y-11646520D02*
X11256632Y-11726520D01*
X11216632Y-11686520D02*
X11296632Y-11686520D01*
X11256632Y-11900520D02*
X11256632Y-11980520D01*
X11216632Y-11940520D02*
X11296632Y-11940520D01*
X11256632Y-12154520D02*
X11256632Y-12234520D01*
X11216632Y-12194520D02*
X11296632Y-12194520D01*
X11257000Y-6820792D02*
X11257000Y-6900792D01*
X11217000Y-6860792D02*
X11297000Y-6860792D01*
X11257000Y-7074792D02*
X11257000Y-7154792D01*
X11217000Y-7114792D02*
X11297000Y-7114792D01*
X11257000Y-7328792D02*
X11257000Y-7408792D01*
X11217000Y-7368792D02*
X11297000Y-7368792D01*
X11257000Y-7582792D02*
X11257000Y-7662792D01*
X11217000Y-7622792D02*
X11297000Y-7622792D01*
X11257000Y-7836792D02*
X11257000Y-7916792D01*
X11217000Y-7876792D02*
X11297000Y-7876792D01*
X11257000Y-8090792D02*
X11257000Y-8170792D01*
X11217000Y-8130792D02*
X11297000Y-8130792D01*
X11257000Y-8344792D02*
X11257000Y-8424792D01*
X11217000Y-8384792D02*
X11297000Y-8384792D01*
X11257000Y-8598792D02*
X11257000Y-8678792D01*
X11217000Y-8638792D02*
X11297000Y-8638792D01*
X11257000Y-8852792D02*
X11257000Y-8932792D01*
X11217000Y-8892792D02*
X11297000Y-8892792D01*
X11257000Y-9106792D02*
X11257000Y-9186792D01*
X11217000Y-9146792D02*
X11297000Y-9146792D01*
X11257000Y-9360792D02*
X11257000Y-9440792D01*
X11217000Y-9400792D02*
X11297000Y-9400792D01*
X11257000Y-9614792D02*
X11257000Y-9694792D01*
X11217000Y-9654792D02*
X11297000Y-9654792D01*
X11257000Y-9868792D02*
X11257000Y-9948792D01*
X11217000Y-9908792D02*
X11297000Y-9908792D01*
X11257000Y-10122792D02*
X11257000Y-10202792D01*
X11217000Y-10162792D02*
X11297000Y-10162792D01*
X11257000Y-10376792D02*
X11257000Y-10456792D01*
X11217000Y-10416792D02*
X11297000Y-10416792D01*
X11257000Y-10630792D02*
X11257000Y-10710792D01*
X11217000Y-10670792D02*
X11297000Y-10670792D01*
X11257000Y-10884792D02*
X11257000Y-10964792D01*
X11217000Y-10924792D02*
X11297000Y-10924792D01*
X11257000Y-11138792D02*
X11257000Y-11218792D01*
X11217000Y-11178792D02*
X11297000Y-11178792D01*
X11257000Y-11392792D02*
X11257000Y-11472792D01*
X11217000Y-11432792D02*
X11297000Y-11432792D01*
X13543000Y-6820792D02*
X13543000Y-6900792D01*
X13503000Y-6860792D02*
X13583000Y-6860792D01*
X13543000Y-7074792D02*
X13543000Y-7154792D01*
X13503000Y-7114792D02*
X13583000Y-7114792D01*
X13543000Y-7328792D02*
X13543000Y-7408792D01*
X13503000Y-7368792D02*
X13583000Y-7368792D01*
X13543000Y-7582792D02*
X13543000Y-7662792D01*
X13503000Y-7622792D02*
X13583000Y-7622792D01*
X13543000Y-7836792D02*
X13543000Y-7916792D01*
X13503000Y-7876792D02*
X13583000Y-7876792D01*
X13543000Y-8090792D02*
X13543000Y-8170792D01*
X13503000Y-8130792D02*
X13583000Y-8130792D01*
X13543000Y-8344792D02*
X13543000Y-8424792D01*
X13503000Y-8384792D02*
X13583000Y-8384792D01*
X13543000Y-8598792D02*
X13543000Y-8678792D01*
X13503000Y-8638792D02*
X13583000Y-8638792D01*
X13543000Y-8852792D02*
X13543000Y-8932792D01*
X13503000Y-8892792D02*
X13583000Y-8892792D01*
X13543000Y-9106792D02*
X13543000Y-9186792D01*
X13503000Y-9146792D02*
X13583000Y-9146792D01*
X13543000Y-9360792D02*
X13543000Y-9440792D01*
X13503000Y-9400792D02*
X13583000Y-9400792D01*
X13543000Y-9614792D02*
X13543000Y-9694792D01*
X13503000Y-9654792D02*
X13583000Y-9654792D01*
X13543000Y-9868792D02*
X13543000Y-9948792D01*
X13503000Y-9908792D02*
X13583000Y-9908792D01*
X13543000Y-10122792D02*
X13543000Y-10202792D01*
X13503000Y-10162792D02*
X13583000Y-10162792D01*
X13543000Y-10376792D02*
X13543000Y-10456792D01*
X13503000Y-10416792D02*
X13583000Y-10416792D01*
X13543000Y-10630792D02*
X13543000Y-10710792D01*
X13503000Y-10670792D02*
X13583000Y-10670792D01*
X13543000Y-10884792D02*
X13543000Y-10964792D01*
X13503000Y-10924792D02*
X13583000Y-10924792D01*
X13543000Y-11138792D02*
X13543000Y-11218792D01*
X13503000Y-11178792D02*
X13583000Y-11178792D01*
X13543000Y-11392792D02*
X13543000Y-11472792D01*
X13503000Y-11432792D02*
X13583000Y-11432792D01*
X13543000Y-11646792D02*
X13543000Y-11726792D01*
X13503000Y-11686792D02*
X13583000Y-11686792D01*
X13543000Y-11900792D02*
X13543000Y-11980792D01*
X13503000Y-11940792D02*
X13583000Y-11940792D01*
X13543000Y-12154792D02*
X13543000Y-12234792D01*
X13503000Y-12194792D02*
X13583000Y-12194792D01*
X7484320Y-6677820D02*
X7484320Y-6614180D01*
X7420680Y-6614180D01*
X7420680Y-6677820D01*
X7484320Y-6677820D01*
X7484320Y-6931820D02*
X7484320Y-6868180D01*
X7420680Y-6868180D01*
X7420680Y-6931820D01*
X7484320Y-6931820D01*
X7484320Y-7185820D02*
X7484320Y-7122180D01*
X7420680Y-7122180D01*
X7420680Y-7185820D01*
X7484320Y-7185820D01*
X7484320Y-12527820D02*
X7484320Y-12464180D01*
X7420680Y-12464180D01*
X7420680Y-12527820D01*
X7484320Y-12527820D01*
X7484320Y-12781820D02*
X7484320Y-12718180D01*
X7420680Y-12718180D01*
X7420680Y-12781820D01*
X7484320Y-12781820D01*
X7484320Y-13035820D02*
X7484320Y-12972180D01*
X7420680Y-12972180D01*
X7420680Y-13035820D01*
X7484320Y-13035820D01*
X11423820Y-5031820D02*
X11423820Y-4968180D01*
X11360180Y-4968180D01*
X11360180Y-5031820D01*
X11423820Y-5031820D01*
X11427820Y-14729320D02*
X11427820Y-14665680D01*
X11364180Y-14665680D01*
X11364180Y-14729320D01*
X11427820Y-14729320D01*
X11677820Y-5031820D02*
X11677820Y-4968180D01*
X11614180Y-4968180D01*
X11614180Y-5031820D01*
X11677820Y-5031820D01*
X11681820Y-14729320D02*
X11681820Y-14665680D01*
X11618180Y-14665680D01*
X11618180Y-14729320D01*
X11681820Y-14729320D01*
X11931820Y-5031820D02*
X11931820Y-4968180D01*
X11868180Y-4968180D01*
X11868180Y-5031820D01*
X11931820Y-5031820D01*
X11935820Y-14729320D02*
X11935820Y-14665680D01*
X11872180Y-14665680D01*
X11872180Y-14729320D01*
X11935820Y-14729320D01*
X12777820Y-5031820D02*
X12777820Y-4968180D01*
X12714180Y-4968180D01*
X12714180Y-5031820D01*
X12777820Y-5031820D01*
X12827820Y-14729320D02*
X12827820Y-14665680D01*
X12764180Y-14665680D01*
X12764180Y-14729320D01*
X12827820Y-14729320D01*
X13031820Y-5031820D02*
X13031820Y-4968180D01*
X12968180Y-4968180D01*
X12968180Y-5031820D01*
X13031820Y-5031820D01*
X13081820Y-14729320D02*
X13081820Y-14665680D01*
X13018180Y-14665680D01*
X13018180Y-14729320D01*
X13081820Y-14729320D01*
X13285820Y-5031820D02*
X13285820Y-4968180D01*
X13222180Y-4968180D01*
X13222180Y-5031820D01*
X13285820Y-5031820D01*
X13335820Y-14729320D02*
X13335820Y-14665680D01*
X13272180Y-14665680D01*
X13272180Y-14729320D01*
X13335820Y-14729320D01*
X18099220Y-13679420D02*
X18099220Y-13615780D01*
X18035580Y-13615780D01*
X18035580Y-13679420D01*
X18099220Y-13679420D01*
X18140220Y-5955420D02*
X18140220Y-5891780D01*
X18076580Y-5891780D01*
X18076580Y-5955420D01*
X18140220Y-5955420D01*
X18277020Y-13831820D02*
X18277020Y-13768180D01*
X18213380Y-13768180D01*
X18213380Y-13831820D01*
X18277020Y-13831820D01*
X18292620Y-6107820D02*
X18292620Y-6044180D01*
X18228980Y-6044180D01*
X18228980Y-6107820D01*
X18292620Y-6107820D01*
X18429420Y-13679420D02*
X18429420Y-13615780D01*
X18365780Y-13615780D01*
X18365780Y-13679420D01*
X18429420Y-13679420D01*
X18445020Y-5955420D02*
X18445020Y-5891780D01*
X18381380Y-5891780D01*
X18381380Y-5955420D01*
X18445020Y-5955420D01*
X18581820Y-13831820D02*
X18581820Y-13768180D01*
X18518180Y-13768180D01*
X18518180Y-13831820D01*
X18581820Y-13831820D01*
X18622820Y-6107820D02*
X18622820Y-6044180D01*
X18559180Y-6044180D01*
X18559180Y-6107820D01*
X18622820Y-6107820D01*
X8650000Y-9200000D02*
X8700000Y-9150000D01*
X8650000Y-9100000D01*
X8600000Y-9150000D01*
X8650000Y-9200000D01*
X9920000Y-12297500D02*
X9970000Y-12247500D01*
X9920000Y-12197500D01*
X9870000Y-12247500D01*
X9920000Y-12297500D01*
X10174000Y-12297500D02*
X10224000Y-12247500D01*
X10174000Y-12197500D01*
X10124000Y-12247500D01*
X10174000Y-12297500D01*
X10200000Y-9158000D02*
X10250000Y-9108000D01*
X10200000Y-9058000D01*
X10150000Y-9108000D01*
X10200000Y-9158000D01*
X10428000Y-12297500D02*
X10478000Y-12247500D01*
X10428000Y-12197500D01*
X10378000Y-12247500D01*
X10428000Y-12297500D01*
X10454000Y-9158000D02*
X10504000Y-9108000D01*
X10454000Y-9058000D01*
X10404000Y-9108000D01*
X10454000Y-9158000D01*
X10682000Y-12297500D02*
X10732000Y-12247500D01*
X10682000Y-12197500D01*
X10632000Y-12247500D01*
X10682000Y-12297500D01*
X10708000Y-9158000D02*
X10758000Y-9108000D01*
X10708000Y-9058000D01*
X10658000Y-9108000D01*
X10708000Y-9158000D01*
X14300000Y-11796000D02*
X14350000Y-11746000D01*
X14300000Y-11696000D01*
X14250000Y-11746000D01*
X14300000Y-11796000D01*
X14300000Y-12050000D02*
X14350000Y-12000000D01*
X14300000Y-11950000D01*
X14250000Y-12000000D01*
X14300000Y-12050000D01*
X14300000Y-12304000D02*
X14350000Y-12254000D01*
X14300000Y-12204000D01*
X14250000Y-12254000D01*
X14300000Y-12304000D01*
X14300000Y-12558000D02*
X14350000Y-12508000D01*
X14300000Y-12458000D01*
X14250000Y-12508000D01*
X14300000Y-12558000D01*
X14347500Y-9937000D02*
X14397500Y-9887000D01*
X14347500Y-9837000D01*
X14297500Y-9887000D01*
X14347500Y-9937000D01*
X14347500Y-10191000D02*
X14397500Y-10141000D01*
X14347500Y-10091000D01*
X14297500Y-10141000D01*
X14347500Y-10191000D01*
X14347500Y-10445000D02*
X14397500Y-10395000D01*
X14347500Y-10345000D01*
X14297500Y-10395000D01*
X14347500Y-10445000D01*
X14347500Y-10699000D02*
X14397500Y-10649000D01*
X14347500Y-10599000D01*
X14297500Y-10649000D01*
X14347500Y-10699000D01*
X14347500Y-10953000D02*
X14397500Y-10903000D01*
X14347500Y-10853000D01*
X14297500Y-10903000D01*
X14347500Y-10953000D01*
X14347500Y-11207000D02*
X14397500Y-11157000D01*
X14347500Y-11107000D01*
X14297500Y-11157000D01*
X14347500Y-11207000D01*
X14350000Y-8042000D02*
X14400000Y-7992000D01*
X14350000Y-7942000D01*
X14300000Y-7992000D01*
X14350000Y-8042000D01*
X14350000Y-8296000D02*
X14400000Y-8246000D01*
X14350000Y-8196000D01*
X14300000Y-8246000D01*
X14350000Y-8296000D01*
X14350000Y-8550000D02*
X14400000Y-8500000D01*
X14350000Y-8450000D01*
X14300000Y-8500000D01*
X14350000Y-8550000D01*
X14350000Y-8804000D02*
X14400000Y-8754000D01*
X14350000Y-8704000D01*
X14300000Y-8754000D01*
X14350000Y-8804000D01*
X14350000Y-9058000D02*
X14400000Y-9008000D01*
X14350000Y-8958000D01*
X14300000Y-9008000D01*
X14350000Y-9058000D01*
X14350000Y-9312000D02*
X14400000Y-9262000D01*
X14350000Y-9212000D01*
X14300000Y-9262000D01*
X14350000Y-9312000D01*
X14400000Y-7050000D02*
X14450000Y-7000000D01*
X14400000Y-6950000D01*
X14350000Y-7000000D01*
X14400000Y-7050000D01*
X14400000Y-7304000D02*
X14450000Y-7254000D01*
X14400000Y-7204000D01*
X14350000Y-7254000D01*
X14400000Y-7304000D01*
X14400000Y-7558000D02*
X14450000Y-7508000D01*
X14400000Y-7458000D01*
X14350000Y-7508000D01*
X14400000Y-7558000D01*
X14925000Y-12801500D02*
X14975000Y-12751500D01*
X14925000Y-12701500D01*
X14875000Y-12751500D01*
X14925000Y-12801500D01*
X14996000Y-7006500D02*
X15046000Y-6956500D01*
X14996000Y-6906500D01*
X14946000Y-6956500D01*
X14996000Y-7006500D01*
X15025000Y-7551500D02*
X15075000Y-7501500D01*
X15025000Y-7451500D01*
X14975000Y-7501500D01*
X15025000Y-7551500D01*
X15179000Y-12801500D02*
X15229000Y-12751500D01*
X15179000Y-12701500D01*
X15129000Y-12751500D01*
X15179000Y-12801500D01*
X15247500Y-9962500D02*
X15297500Y-9912500D01*
X15247500Y-9862500D01*
X15197500Y-9912500D01*
X15247500Y-9962500D01*
X15247500Y-10216500D02*
X15297500Y-10166500D01*
X15247500Y-10116500D01*
X15197500Y-10166500D01*
X15247500Y-10216500D01*
X15247500Y-10470500D02*
X15297500Y-10420500D01*
X15247500Y-10370500D01*
X15197500Y-10420500D01*
X15247500Y-10470500D01*
X15247500Y-10724500D02*
X15297500Y-10674500D01*
X15247500Y-10624500D01*
X15197500Y-10674500D01*
X15247500Y-10724500D01*
X15247500Y-10978500D02*
X15297500Y-10928500D01*
X15247500Y-10878500D01*
X15197500Y-10928500D01*
X15247500Y-10978500D01*
X15247500Y-11232500D02*
X15297500Y-11182500D01*
X15247500Y-11132500D01*
X15197500Y-11182500D01*
X15247500Y-11232500D01*
X15250000Y-7006500D02*
X15300000Y-6956500D01*
X15250000Y-6906500D01*
X15200000Y-6956500D01*
X15250000Y-7006500D01*
X15250000Y-8042000D02*
X15300000Y-7992000D01*
X15250000Y-7942000D01*
X15200000Y-7992000D01*
X15250000Y-8042000D01*
X15250000Y-8296000D02*
X15300000Y-8246000D01*
X15250000Y-8196000D01*
X15200000Y-8246000D01*
X15250000Y-8296000D01*
X15250000Y-8550000D02*
X15300000Y-8500000D01*
X15250000Y-8450000D01*
X15200000Y-8500000D01*
X15250000Y-8550000D01*
X15250000Y-8804000D02*
X15300000Y-8754000D01*
X15250000Y-8704000D01*
X15200000Y-8754000D01*
X15250000Y-8804000D01*
X15250000Y-9058000D02*
X15300000Y-9008000D01*
X15250000Y-8958000D01*
X15200000Y-9008000D01*
X15250000Y-9058000D01*
X15250000Y-9312000D02*
X15300000Y-9262000D01*
X15250000Y-9212000D01*
X15200000Y-9262000D01*
X15250000Y-9312000D01*
X15279000Y-7551500D02*
X15329000Y-7501500D01*
X15279000Y-7451500D01*
X15229000Y-7501500D01*
X15279000Y-7551500D01*
D13*
X9999200Y-7049200D02*
X10100800Y-7150800D01*
X10100800Y-7049200D02*
X9999200Y-7150800D01*
X10100800Y-7100000D02*
G75*
G02*
X9999200Y-7100000I-50800J0D01*
G01*
X9999200Y-7100000D02*
G75*
G02*
X10100800Y-7100000I50800J0D01*
G01*
X9999200Y-7299200D02*
X10100800Y-7400800D01*
X10100800Y-7299200D02*
X9999200Y-7400800D01*
X10100800Y-7350000D02*
G75*
G02*
X9999200Y-7350000I-50800J0D01*
G01*
X9999200Y-7350000D02*
G75*
G02*
X10100800Y-7350000I50800J0D01*
G01*
X9999200Y-7549200D02*
X10100800Y-7650800D01*
X10100800Y-7549200D02*
X9999200Y-7650800D01*
X10100800Y-7600000D02*
G75*
G02*
X9999200Y-7600000I-50800J0D01*
G01*
X9999200Y-7600000D02*
G75*
G02*
X10100800Y-7600000I50800J0D01*
G01*
X9999200Y-7799200D02*
X10100800Y-7900800D01*
X10100800Y-7799200D02*
X9999200Y-7900800D01*
X10100800Y-7850000D02*
G75*
G02*
X9999200Y-7850000I-50800J0D01*
G01*
X9999200Y-7850000D02*
G75*
G02*
X10100800Y-7850000I50800J0D01*
G01*
X9999200Y-8049200D02*
X10100800Y-8150800D01*
X10100800Y-8049200D02*
X9999200Y-8150800D01*
X10100800Y-8100000D02*
G75*
G02*
X9999200Y-8100000I-50800J0D01*
G01*
X9999200Y-8100000D02*
G75*
G02*
X10100800Y-8100000I50800J0D01*
G01*
X9999200Y-8299200D02*
X10100800Y-8400800D01*
X10100800Y-8299200D02*
X9999200Y-8400800D01*
X10100800Y-8350000D02*
G75*
G02*
X9999200Y-8350000I-50800J0D01*
G01*
X9999200Y-8350000D02*
G75*
G02*
X10100800Y-8350000I50800J0D01*
G01*
X9999200Y-8549200D02*
X10100800Y-8650800D01*
X10100800Y-8549200D02*
X9999200Y-8650800D01*
X10100800Y-8600000D02*
G75*
G02*
X9999200Y-8600000I-50800J0D01*
G01*
X9999200Y-8600000D02*
G75*
G02*
X10100800Y-8600000I50800J0D01*
G01*
X10749200Y-7049200D02*
X10850800Y-7150800D01*
X10850800Y-7049200D02*
X10749200Y-7150800D01*
X10850800Y-7100000D02*
G75*
G02*
X10749200Y-7100000I-50800J0D01*
G01*
X10749200Y-7100000D02*
G75*
G02*
X10850800Y-7100000I50800J0D01*
G01*
X10749200Y-7299200D02*
X10850800Y-7400800D01*
X10850800Y-7299200D02*
X10749200Y-7400800D01*
X10850800Y-7350000D02*
G75*
G02*
X10749200Y-7350000I-50800J0D01*
G01*
X10749200Y-7350000D02*
G75*
G02*
X10850800Y-7350000I50800J0D01*
G01*
X10749200Y-7549200D02*
X10850800Y-7650800D01*
X10850800Y-7549200D02*
X10749200Y-7650800D01*
X10850800Y-7600000D02*
G75*
G02*
X10749200Y-7600000I-50800J0D01*
G01*
X10749200Y-7600000D02*
G75*
G02*
X10850800Y-7600000I50800J0D01*
G01*
X10749200Y-7799200D02*
X10850800Y-7900800D01*
X10850800Y-7799200D02*
X10749200Y-7900800D01*
X10850800Y-7850000D02*
G75*
G02*
X10749200Y-7850000I-50800J0D01*
G01*
X10749200Y-7850000D02*
G75*
G02*
X10850800Y-7850000I50800J0D01*
G01*
X10749200Y-8049200D02*
X10850800Y-8150800D01*
X10850800Y-8049200D02*
X10749200Y-8150800D01*
X10850800Y-8100000D02*
G75*
G02*
X10749200Y-8100000I-50800J0D01*
G01*
X10749200Y-8100000D02*
G75*
G02*
X10850800Y-8100000I50800J0D01*
G01*
X10749200Y-8299200D02*
X10850800Y-8400800D01*
X10850800Y-8299200D02*
X10749200Y-8400800D01*
X10850800Y-8350000D02*
G75*
G02*
X10749200Y-8350000I-50800J0D01*
G01*
X10749200Y-8350000D02*
G75*
G02*
X10850800Y-8350000I50800J0D01*
G01*
X10749200Y-8549200D02*
X10850800Y-8650800D01*
X10850800Y-8549200D02*
X10749200Y-8650800D01*
X10850800Y-8600000D02*
G75*
G02*
X10749200Y-8600000I-50800J0D01*
G01*
X10749200Y-8600000D02*
G75*
G02*
X10850800Y-8600000I50800J0D01*
G01*
D14*
X8599000Y-9399000D02*
X8701000Y-9501000D01*
X8701000Y-9399000D02*
X8599000Y-9501000D01*
X8650000Y-9399000D02*
X8650000Y-9501000D01*
X8599000Y-9450000D02*
X8701000Y-9450000D01*
X8599000Y-9653000D02*
X8701000Y-9755000D01*
X8701000Y-9653000D02*
X8599000Y-9755000D01*
X8650000Y-9653000D02*
X8650000Y-9755000D01*
X8599000Y-9704000D02*
X8701000Y-9704000D01*
X8599000Y-9907000D02*
X8701000Y-10009000D01*
X8701000Y-9907000D02*
X8599000Y-10009000D01*
X8650000Y-9907000D02*
X8650000Y-10009000D01*
X8599000Y-9958000D02*
X8701000Y-9958000D01*
X8599000Y-10161000D02*
X8701000Y-10263000D01*
X8701000Y-10161000D02*
X8599000Y-10263000D01*
X8650000Y-10161000D02*
X8650000Y-10263000D01*
X8599000Y-10212000D02*
X8701000Y-10212000D01*
D15*
X19590000Y-9340000D02*
X19710000Y-9460000D01*
X19710000Y-9340000D02*
X19590000Y-9460000D01*
X19692427Y-9442427D02*
X19692427Y-9357573D01*
X19607573Y-9357573D01*
X19607573Y-9442427D01*
X19692427Y-9442427D01*
D12*
X19930000Y-9340000D02*
X19370000Y-9340000D01*
X19370000Y-9460000D02*
G75*
G02*
X19370000Y-9340000I0J60000D01*
G01*
X19370000Y-9460000D02*
X19930000Y-9460000D01*
X19930000Y-9460000D02*
G75*
G03*
X19930000Y-9340000I0J60000D01*
G01*
D15*
X19590000Y-10390000D02*
X19710000Y-10510000D01*
X19710000Y-10390000D02*
X19590000Y-10510000D01*
X19692427Y-10492427D02*
X19692427Y-10407573D01*
X19607573Y-10407573D01*
X19607573Y-10492427D01*
X19692427Y-10492427D01*
D12*
X19930000Y-10390000D02*
X19370000Y-10390000D01*
X19370000Y-10510000D02*
G75*
G02*
X19370000Y-10390000I0J60000D01*
G01*
X19370000Y-10510000D02*
X19930000Y-10510000D01*
X19930000Y-10510000D02*
G75*
G03*
X19930000Y-10390000I0J60000D01*
G01*
D16*
X19585000Y-11435000D02*
X19715000Y-11565000D01*
X19715000Y-11435000D02*
X19585000Y-11565000D01*
X19650000Y-11565000D02*
X19715000Y-11500000D01*
X19650000Y-11435000D01*
X19585000Y-11500000D01*
X19650000Y-11565000D01*
X19585000Y-11935000D02*
X19715000Y-12065000D01*
X19715000Y-11935000D02*
X19585000Y-12065000D01*
X19650000Y-12065000D02*
X19715000Y-12000000D01*
X19650000Y-11935000D01*
X19585000Y-12000000D01*
X19650000Y-12065000D01*
D11*
X6308277Y-15163984D02*
X6308277Y-14963984D01*
X6308277Y-14963984D02*
X6355896Y-14963984D01*
X6355896Y-14963984D02*
X6384467Y-14973508D01*
X6384467Y-14973508D02*
X6403515Y-14992555D01*
X6403515Y-14992555D02*
X6413039Y-15011603D01*
X6413039Y-15011603D02*
X6422562Y-15049698D01*
X6422562Y-15049698D02*
X6422562Y-15078269D01*
X6422562Y-15078269D02*
X6413039Y-15116365D01*
X6413039Y-15116365D02*
X6403515Y-15135412D01*
X6403515Y-15135412D02*
X6384467Y-15154460D01*
X6384467Y-15154460D02*
X6355896Y-15163984D01*
X6355896Y-15163984D02*
X6308277Y-15163984D01*
X6508277Y-15163984D02*
X6508277Y-15030650D01*
X6508277Y-15068746D02*
X6517801Y-15049698D01*
X6517801Y-15049698D02*
X6527324Y-15040174D01*
X6527324Y-15040174D02*
X6546372Y-15030650D01*
X6546372Y-15030650D02*
X6565420Y-15030650D01*
X6632086Y-15163984D02*
X6632086Y-15030650D01*
X6632086Y-14963984D02*
X6622562Y-14973508D01*
X6622562Y-14973508D02*
X6632086Y-14983031D01*
X6632086Y-14983031D02*
X6641610Y-14973508D01*
X6641610Y-14973508D02*
X6632086Y-14963984D01*
X6632086Y-14963984D02*
X6632086Y-14983031D01*
X6755896Y-15163984D02*
X6736848Y-15154460D01*
X6736848Y-15154460D02*
X6727324Y-15135412D01*
X6727324Y-15135412D02*
X6727324Y-14963984D01*
X6860658Y-15163984D02*
X6841610Y-15154460D01*
X6841610Y-15154460D02*
X6832086Y-15135412D01*
X6832086Y-15135412D02*
X6832086Y-14963984D01*
X7089229Y-15163984D02*
X7089229Y-14963984D01*
X7089229Y-14963984D02*
X7155896Y-15106841D01*
X7155896Y-15106841D02*
X7222562Y-14963984D01*
X7222562Y-14963984D02*
X7222562Y-15163984D01*
X7403515Y-15163984D02*
X7403515Y-15059222D01*
X7403515Y-15059222D02*
X7393991Y-15040174D01*
X7393991Y-15040174D02*
X7374943Y-15030650D01*
X7374943Y-15030650D02*
X7336848Y-15030650D01*
X7336848Y-15030650D02*
X7317801Y-15040174D01*
X7403515Y-15154460D02*
X7384467Y-15163984D01*
X7384467Y-15163984D02*
X7336848Y-15163984D01*
X7336848Y-15163984D02*
X7317801Y-15154460D01*
X7317801Y-15154460D02*
X7308277Y-15135412D01*
X7308277Y-15135412D02*
X7308277Y-15116365D01*
X7308277Y-15116365D02*
X7317801Y-15097317D01*
X7317801Y-15097317D02*
X7336848Y-15087793D01*
X7336848Y-15087793D02*
X7384467Y-15087793D01*
X7384467Y-15087793D02*
X7403515Y-15078269D01*
X7498753Y-15030650D02*
X7498753Y-15230650D01*
X7498753Y-15040174D02*
X7517801Y-15030650D01*
X7517801Y-15030650D02*
X7555896Y-15030650D01*
X7555896Y-15030650D02*
X7574943Y-15040174D01*
X7574943Y-15040174D02*
X7584467Y-15049698D01*
X7584467Y-15049698D02*
X7593991Y-15068746D01*
X7593991Y-15068746D02*
X7593991Y-15125888D01*
X7593991Y-15125888D02*
X7584467Y-15144936D01*
X7584467Y-15144936D02*
X7574943Y-15154460D01*
X7574943Y-15154460D02*
X7555896Y-15163984D01*
X7555896Y-15163984D02*
X7517801Y-15163984D01*
X7517801Y-15163984D02*
X7498753Y-15154460D01*
X7679705Y-15144936D02*
X7689229Y-15154460D01*
X7689229Y-15154460D02*
X7679705Y-15163984D01*
X7679705Y-15163984D02*
X7670182Y-15154460D01*
X7670182Y-15154460D02*
X7679705Y-15144936D01*
X7679705Y-15144936D02*
X7679705Y-15163984D01*
X7679705Y-15040174D02*
X7689229Y-15049698D01*
X7689229Y-15049698D02*
X7679705Y-15059222D01*
X7679705Y-15059222D02*
X7670182Y-15049698D01*
X7670182Y-15049698D02*
X7679705Y-15040174D01*
X7679705Y-15040174D02*
X7679705Y-15059222D01*
D12*
X6017500Y-15477500D02*
X6047500Y-15507500D01*
X6047500Y-15477500D02*
X6017500Y-15507500D01*
D11*
X6346372Y-15383984D02*
X6365420Y-15383984D01*
X6365420Y-15383984D02*
X6384467Y-15393508D01*
X6384467Y-15393508D02*
X6393991Y-15403031D01*
X6393991Y-15403031D02*
X6403515Y-15422079D01*
X6403515Y-15422079D02*
X6413039Y-15460174D01*
X6413039Y-15460174D02*
X6413039Y-15507793D01*
X6413039Y-15507793D02*
X6403515Y-15545888D01*
X6403515Y-15545888D02*
X6393991Y-15564936D01*
X6393991Y-15564936D02*
X6384467Y-15574460D01*
X6384467Y-15574460D02*
X6365420Y-15583984D01*
X6365420Y-15583984D02*
X6346372Y-15583984D01*
X6346372Y-15583984D02*
X6327324Y-15574460D01*
X6327324Y-15574460D02*
X6317801Y-15564936D01*
X6317801Y-15564936D02*
X6308277Y-15545888D01*
X6308277Y-15545888D02*
X6298753Y-15507793D01*
X6298753Y-15507793D02*
X6298753Y-15460174D01*
X6298753Y-15460174D02*
X6308277Y-15422079D01*
X6308277Y-15422079D02*
X6317801Y-15403031D01*
X6317801Y-15403031D02*
X6327324Y-15393508D01*
X6327324Y-15393508D02*
X6346372Y-15383984D01*
X6498753Y-15564936D02*
X6508277Y-15574460D01*
X6508277Y-15574460D02*
X6498753Y-15583984D01*
X6498753Y-15583984D02*
X6489229Y-15574460D01*
X6489229Y-15574460D02*
X6498753Y-15564936D01*
X6498753Y-15564936D02*
X6498753Y-15583984D01*
X6574943Y-15383984D02*
X6698753Y-15383984D01*
X6698753Y-15383984D02*
X6632086Y-15460174D01*
X6632086Y-15460174D02*
X6660658Y-15460174D01*
X6660658Y-15460174D02*
X6679705Y-15469698D01*
X6679705Y-15469698D02*
X6689229Y-15479222D01*
X6689229Y-15479222D02*
X6698753Y-15498269D01*
X6698753Y-15498269D02*
X6698753Y-15545888D01*
X6698753Y-15545888D02*
X6689229Y-15564936D01*
X6689229Y-15564936D02*
X6679705Y-15574460D01*
X6679705Y-15574460D02*
X6660658Y-15583984D01*
X6660658Y-15583984D02*
X6603515Y-15583984D01*
X6603515Y-15583984D02*
X6584467Y-15574460D01*
X6584467Y-15574460D02*
X6574943Y-15564936D01*
X6822562Y-15383984D02*
X6841610Y-15383984D01*
X6841610Y-15383984D02*
X6860658Y-15393508D01*
X6860658Y-15393508D02*
X6870182Y-15403031D01*
X6870182Y-15403031D02*
X6879705Y-15422079D01*
X6879705Y-15422079D02*
X6889229Y-15460174D01*
X6889229Y-15460174D02*
X6889229Y-15507793D01*
X6889229Y-15507793D02*
X6879705Y-15545888D01*
X6879705Y-15545888D02*
X6870182Y-15564936D01*
X6870182Y-15564936D02*
X6860658Y-15574460D01*
X6860658Y-15574460D02*
X6841610Y-15583984D01*
X6841610Y-15583984D02*
X6822562Y-15583984D01*
X6822562Y-15583984D02*
X6803515Y-15574460D01*
X6803515Y-15574460D02*
X6793991Y-15564936D01*
X6793991Y-15564936D02*
X6784467Y-15545888D01*
X6784467Y-15545888D02*
X6774943Y-15507793D01*
X6774943Y-15507793D02*
X6774943Y-15460174D01*
X6774943Y-15460174D02*
X6784467Y-15422079D01*
X6784467Y-15422079D02*
X6793991Y-15403031D01*
X6793991Y-15403031D02*
X6803515Y-15393508D01*
X6803515Y-15393508D02*
X6822562Y-15383984D01*
X7013039Y-15383984D02*
X7032086Y-15383984D01*
X7032086Y-15383984D02*
X7051134Y-15393508D01*
X7051134Y-15393508D02*
X7060658Y-15403031D01*
X7060658Y-15403031D02*
X7070182Y-15422079D01*
X7070182Y-15422079D02*
X7079705Y-15460174D01*
X7079705Y-15460174D02*
X7079705Y-15507793D01*
X7079705Y-15507793D02*
X7070182Y-15545888D01*
X7070182Y-15545888D02*
X7060658Y-15564936D01*
X7060658Y-15564936D02*
X7051134Y-15574460D01*
X7051134Y-15574460D02*
X7032086Y-15583984D01*
X7032086Y-15583984D02*
X7013039Y-15583984D01*
X7013039Y-15583984D02*
X6993991Y-15574460D01*
X6993991Y-15574460D02*
X6984467Y-15564936D01*
X6984467Y-15564936D02*
X6974943Y-15545888D01*
X6974943Y-15545888D02*
X6965420Y-15507793D01*
X6965420Y-15507793D02*
X6965420Y-15460174D01*
X6965420Y-15460174D02*
X6974943Y-15422079D01*
X6974943Y-15422079D02*
X6984467Y-15403031D01*
X6984467Y-15403031D02*
X6993991Y-15393508D01*
X6993991Y-15393508D02*
X7013039Y-15383984D01*
X7165420Y-15583984D02*
X7165420Y-15450650D01*
X7165420Y-15469698D02*
X7174943Y-15460174D01*
X7174943Y-15460174D02*
X7193991Y-15450650D01*
X7193991Y-15450650D02*
X7222563Y-15450650D01*
X7222563Y-15450650D02*
X7241610Y-15460174D01*
X7241610Y-15460174D02*
X7251134Y-15479222D01*
X7251134Y-15479222D02*
X7251134Y-15583984D01*
X7251134Y-15479222D02*
X7260658Y-15460174D01*
X7260658Y-15460174D02*
X7279705Y-15450650D01*
X7279705Y-15450650D02*
X7308277Y-15450650D01*
X7308277Y-15450650D02*
X7327324Y-15460174D01*
X7327324Y-15460174D02*
X7336848Y-15479222D01*
X7336848Y-15479222D02*
X7336848Y-15583984D01*
X7432086Y-15583984D02*
X7432086Y-15450650D01*
X7432086Y-15469698D02*
X7441610Y-15460174D01*
X7441610Y-15460174D02*
X7460658Y-15450650D01*
X7460658Y-15450650D02*
X7489229Y-15450650D01*
X7489229Y-15450650D02*
X7508277Y-15460174D01*
X7508277Y-15460174D02*
X7517801Y-15479222D01*
X7517801Y-15479222D02*
X7517801Y-15583984D01*
X7517801Y-15479222D02*
X7527324Y-15460174D01*
X7527324Y-15460174D02*
X7546372Y-15450650D01*
X7546372Y-15450650D02*
X7574943Y-15450650D01*
X7574943Y-15450650D02*
X7593991Y-15460174D01*
X7593991Y-15460174D02*
X7603515Y-15479222D01*
X7603515Y-15479222D02*
X7603515Y-15583984D01*
X7993991Y-15374460D02*
X7822563Y-15631603D01*
X8251134Y-15383984D02*
X8270182Y-15383984D01*
X8270182Y-15383984D02*
X8289229Y-15393508D01*
X8289229Y-15393508D02*
X8298753Y-15403031D01*
X8298753Y-15403031D02*
X8308277Y-15422079D01*
X8308277Y-15422079D02*
X8317801Y-15460174D01*
X8317801Y-15460174D02*
X8317801Y-15507793D01*
X8317801Y-15507793D02*
X8308277Y-15545888D01*
X8308277Y-15545888D02*
X8298753Y-15564936D01*
X8298753Y-15564936D02*
X8289229Y-15574460D01*
X8289229Y-15574460D02*
X8270182Y-15583984D01*
X8270182Y-15583984D02*
X8251134Y-15583984D01*
X8251134Y-15583984D02*
X8232086Y-15574460D01*
X8232086Y-15574460D02*
X8222563Y-15564936D01*
X8222563Y-15564936D02*
X8213039Y-15545888D01*
X8213039Y-15545888D02*
X8203515Y-15507793D01*
X8203515Y-15507793D02*
X8203515Y-15460174D01*
X8203515Y-15460174D02*
X8213039Y-15422079D01*
X8213039Y-15422079D02*
X8222563Y-15403031D01*
X8222563Y-15403031D02*
X8232086Y-15393508D01*
X8232086Y-15393508D02*
X8251134Y-15383984D01*
X8403515Y-15564936D02*
X8413039Y-15574460D01*
X8413039Y-15574460D02*
X8403515Y-15583984D01*
X8403515Y-15583984D02*
X8393991Y-15574460D01*
X8393991Y-15574460D02*
X8403515Y-15564936D01*
X8403515Y-15564936D02*
X8403515Y-15583984D01*
X8536848Y-15383984D02*
X8555896Y-15383984D01*
X8555896Y-15383984D02*
X8574944Y-15393508D01*
X8574944Y-15393508D02*
X8584468Y-15403031D01*
X8584468Y-15403031D02*
X8593991Y-15422079D01*
X8593991Y-15422079D02*
X8603515Y-15460174D01*
X8603515Y-15460174D02*
X8603515Y-15507793D01*
X8603515Y-15507793D02*
X8593991Y-15545888D01*
X8593991Y-15545888D02*
X8584468Y-15564936D01*
X8584468Y-15564936D02*
X8574944Y-15574460D01*
X8574944Y-15574460D02*
X8555896Y-15583984D01*
X8555896Y-15583984D02*
X8536848Y-15583984D01*
X8536848Y-15583984D02*
X8517801Y-15574460D01*
X8517801Y-15574460D02*
X8508277Y-15564936D01*
X8508277Y-15564936D02*
X8498753Y-15545888D01*
X8498753Y-15545888D02*
X8489229Y-15507793D01*
X8489229Y-15507793D02*
X8489229Y-15460174D01*
X8489229Y-15460174D02*
X8498753Y-15422079D01*
X8498753Y-15422079D02*
X8508277Y-15403031D01*
X8508277Y-15403031D02*
X8517801Y-15393508D01*
X8517801Y-15393508D02*
X8536848Y-15383984D01*
X8793991Y-15583984D02*
X8679706Y-15583984D01*
X8736848Y-15583984D02*
X8736848Y-15383984D01*
X8736848Y-15383984D02*
X8717801Y-15412555D01*
X8717801Y-15412555D02*
X8698753Y-15431603D01*
X8698753Y-15431603D02*
X8679706Y-15441127D01*
X8984468Y-15583984D02*
X8870182Y-15583984D01*
X8927325Y-15583984D02*
X8927325Y-15383984D01*
X8927325Y-15383984D02*
X8908277Y-15412555D01*
X8908277Y-15412555D02*
X8889229Y-15431603D01*
X8889229Y-15431603D02*
X8870182Y-15441127D01*
X9098753Y-15469698D02*
X9079706Y-15460174D01*
X9079706Y-15460174D02*
X9070182Y-15450650D01*
X9070182Y-15450650D02*
X9060658Y-15431603D01*
X9060658Y-15431603D02*
X9060658Y-15422079D01*
X9060658Y-15422079D02*
X9070182Y-15403031D01*
X9070182Y-15403031D02*
X9079706Y-15393508D01*
X9079706Y-15393508D02*
X9098753Y-15383984D01*
X9098753Y-15383984D02*
X9136849Y-15383984D01*
X9136849Y-15383984D02*
X9155896Y-15393508D01*
X9155896Y-15393508D02*
X9165420Y-15403031D01*
X9165420Y-15403031D02*
X9174944Y-15422079D01*
X9174944Y-15422079D02*
X9174944Y-15431603D01*
X9174944Y-15431603D02*
X9165420Y-15450650D01*
X9165420Y-15450650D02*
X9155896Y-15460174D01*
X9155896Y-15460174D02*
X9136849Y-15469698D01*
X9136849Y-15469698D02*
X9098753Y-15469698D01*
X9098753Y-15469698D02*
X9079706Y-15479222D01*
X9079706Y-15479222D02*
X9070182Y-15488746D01*
X9070182Y-15488746D02*
X9060658Y-15507793D01*
X9060658Y-15507793D02*
X9060658Y-15545888D01*
X9060658Y-15545888D02*
X9070182Y-15564936D01*
X9070182Y-15564936D02*
X9079706Y-15574460D01*
X9079706Y-15574460D02*
X9098753Y-15583984D01*
X9098753Y-15583984D02*
X9136849Y-15583984D01*
X9136849Y-15583984D02*
X9155896Y-15574460D01*
X9155896Y-15574460D02*
X9165420Y-15564936D01*
X9165420Y-15564936D02*
X9174944Y-15545888D01*
X9174944Y-15545888D02*
X9174944Y-15507793D01*
X9174944Y-15507793D02*
X9165420Y-15488746D01*
X9165420Y-15488746D02*
X9155896Y-15479222D01*
X9155896Y-15479222D02*
X9136849Y-15469698D01*
X9251134Y-15383984D02*
X9251134Y-15422079D01*
X9327325Y-15383984D02*
X9327325Y-15422079D01*
X9622563Y-15660174D02*
X9613039Y-15650650D01*
X9613039Y-15650650D02*
X9593991Y-15622079D01*
X9593991Y-15622079D02*
X9584468Y-15603031D01*
X9584468Y-15603031D02*
X9574944Y-15574460D01*
X9574944Y-15574460D02*
X9565420Y-15526841D01*
X9565420Y-15526841D02*
X9565420Y-15488746D01*
X9565420Y-15488746D02*
X9574944Y-15441127D01*
X9574944Y-15441127D02*
X9584468Y-15412555D01*
X9584468Y-15412555D02*
X9593991Y-15393508D01*
X9593991Y-15393508D02*
X9613039Y-15364936D01*
X9613039Y-15364936D02*
X9622563Y-15355412D01*
X9689230Y-15403031D02*
X9698753Y-15393508D01*
X9698753Y-15393508D02*
X9717801Y-15383984D01*
X9717801Y-15383984D02*
X9765420Y-15383984D01*
X9765420Y-15383984D02*
X9784468Y-15393508D01*
X9784468Y-15393508D02*
X9793991Y-15403031D01*
X9793991Y-15403031D02*
X9803515Y-15422079D01*
X9803515Y-15422079D02*
X9803515Y-15441127D01*
X9803515Y-15441127D02*
X9793991Y-15469698D01*
X9793991Y-15469698D02*
X9679706Y-15583984D01*
X9679706Y-15583984D02*
X9803515Y-15583984D01*
X9974944Y-15450650D02*
X9974944Y-15583984D01*
X9927325Y-15374460D02*
X9879706Y-15517317D01*
X9879706Y-15517317D02*
X10003515Y-15517317D01*
X10232087Y-15583984D02*
X10232087Y-15383984D01*
X10317801Y-15583984D02*
X10317801Y-15479222D01*
X10317801Y-15479222D02*
X10308277Y-15460174D01*
X10308277Y-15460174D02*
X10289230Y-15450650D01*
X10289230Y-15450650D02*
X10260658Y-15450650D01*
X10260658Y-15450650D02*
X10241611Y-15460174D01*
X10241611Y-15460174D02*
X10232087Y-15469698D01*
X10441611Y-15583984D02*
X10422563Y-15574460D01*
X10422563Y-15574460D02*
X10413039Y-15564936D01*
X10413039Y-15564936D02*
X10403515Y-15545888D01*
X10403515Y-15545888D02*
X10403515Y-15488746D01*
X10403515Y-15488746D02*
X10413039Y-15469698D01*
X10413039Y-15469698D02*
X10422563Y-15460174D01*
X10422563Y-15460174D02*
X10441611Y-15450650D01*
X10441611Y-15450650D02*
X10470182Y-15450650D01*
X10470182Y-15450650D02*
X10489230Y-15460174D01*
X10489230Y-15460174D02*
X10498753Y-15469698D01*
X10498753Y-15469698D02*
X10508277Y-15488746D01*
X10508277Y-15488746D02*
X10508277Y-15545888D01*
X10508277Y-15545888D02*
X10498753Y-15564936D01*
X10498753Y-15564936D02*
X10489230Y-15574460D01*
X10489230Y-15574460D02*
X10470182Y-15583984D01*
X10470182Y-15583984D02*
X10441611Y-15583984D01*
X10622563Y-15583984D02*
X10603515Y-15574460D01*
X10603515Y-15574460D02*
X10593992Y-15555412D01*
X10593992Y-15555412D02*
X10593992Y-15383984D01*
X10774944Y-15574460D02*
X10755896Y-15583984D01*
X10755896Y-15583984D02*
X10717801Y-15583984D01*
X10717801Y-15583984D02*
X10698753Y-15574460D01*
X10698753Y-15574460D02*
X10689230Y-15555412D01*
X10689230Y-15555412D02*
X10689230Y-15479222D01*
X10689230Y-15479222D02*
X10698753Y-15460174D01*
X10698753Y-15460174D02*
X10717801Y-15450650D01*
X10717801Y-15450650D02*
X10755896Y-15450650D01*
X10755896Y-15450650D02*
X10774944Y-15460174D01*
X10774944Y-15460174D02*
X10784468Y-15479222D01*
X10784468Y-15479222D02*
X10784468Y-15498269D01*
X10784468Y-15498269D02*
X10689230Y-15517317D01*
X10860658Y-15574460D02*
X10879706Y-15583984D01*
X10879706Y-15583984D02*
X10917801Y-15583984D01*
X10917801Y-15583984D02*
X10936849Y-15574460D01*
X10936849Y-15574460D02*
X10946373Y-15555412D01*
X10946373Y-15555412D02*
X10946373Y-15545888D01*
X10946373Y-15545888D02*
X10936849Y-15526841D01*
X10936849Y-15526841D02*
X10917801Y-15517317D01*
X10917801Y-15517317D02*
X10889230Y-15517317D01*
X10889230Y-15517317D02*
X10870182Y-15507793D01*
X10870182Y-15507793D02*
X10860658Y-15488746D01*
X10860658Y-15488746D02*
X10860658Y-15479222D01*
X10860658Y-15479222D02*
X10870182Y-15460174D01*
X10870182Y-15460174D02*
X10889230Y-15450650D01*
X10889230Y-15450650D02*
X10917801Y-15450650D01*
X10917801Y-15450650D02*
X10936849Y-15460174D01*
X11013039Y-15660174D02*
X11022563Y-15650650D01*
X11022563Y-15650650D02*
X11041611Y-15622079D01*
X11041611Y-15622079D02*
X11051134Y-15603031D01*
X11051134Y-15603031D02*
X11060658Y-15574460D01*
X11060658Y-15574460D02*
X11070182Y-15526841D01*
X11070182Y-15526841D02*
X11070182Y-15488746D01*
X11070182Y-15488746D02*
X11060658Y-15441127D01*
X11060658Y-15441127D02*
X11051134Y-15412555D01*
X11051134Y-15412555D02*
X11041611Y-15393508D01*
X11041611Y-15393508D02*
X11022563Y-15364936D01*
X11022563Y-15364936D02*
X11013039Y-15355412D01*
D12*
X6047500Y-15756500D02*
G75*
G02*
X5977500Y-15756500I-35000J0D01*
G01*
X5977500Y-15756500D02*
G75*
G02*
X6047500Y-15756500I35000J0D01*
G01*
D11*
X6346372Y-15647984D02*
X6365420Y-15647984D01*
X6365420Y-15647984D02*
X6384467Y-15657508D01*
X6384467Y-15657508D02*
X6393991Y-15667031D01*
X6393991Y-15667031D02*
X6403515Y-15686079D01*
X6403515Y-15686079D02*
X6413039Y-15724174D01*
X6413039Y-15724174D02*
X6413039Y-15771793D01*
X6413039Y-15771793D02*
X6403515Y-15809888D01*
X6403515Y-15809888D02*
X6393991Y-15828936D01*
X6393991Y-15828936D02*
X6384467Y-15838460D01*
X6384467Y-15838460D02*
X6365420Y-15847984D01*
X6365420Y-15847984D02*
X6346372Y-15847984D01*
X6346372Y-15847984D02*
X6327324Y-15838460D01*
X6327324Y-15838460D02*
X6317801Y-15828936D01*
X6317801Y-15828936D02*
X6308277Y-15809888D01*
X6308277Y-15809888D02*
X6298753Y-15771793D01*
X6298753Y-15771793D02*
X6298753Y-15724174D01*
X6298753Y-15724174D02*
X6308277Y-15686079D01*
X6308277Y-15686079D02*
X6317801Y-15667031D01*
X6317801Y-15667031D02*
X6327324Y-15657508D01*
X6327324Y-15657508D02*
X6346372Y-15647984D01*
X6498753Y-15828936D02*
X6508277Y-15838460D01*
X6508277Y-15838460D02*
X6498753Y-15847984D01*
X6498753Y-15847984D02*
X6489229Y-15838460D01*
X6489229Y-15838460D02*
X6498753Y-15828936D01*
X6498753Y-15828936D02*
X6498753Y-15847984D01*
X6574943Y-15647984D02*
X6708277Y-15647984D01*
X6708277Y-15647984D02*
X6622562Y-15847984D01*
X6822562Y-15647984D02*
X6841610Y-15647984D01*
X6841610Y-15647984D02*
X6860658Y-15657508D01*
X6860658Y-15657508D02*
X6870182Y-15667031D01*
X6870182Y-15667031D02*
X6879705Y-15686079D01*
X6879705Y-15686079D02*
X6889229Y-15724174D01*
X6889229Y-15724174D02*
X6889229Y-15771793D01*
X6889229Y-15771793D02*
X6879705Y-15809888D01*
X6879705Y-15809888D02*
X6870182Y-15828936D01*
X6870182Y-15828936D02*
X6860658Y-15838460D01*
X6860658Y-15838460D02*
X6841610Y-15847984D01*
X6841610Y-15847984D02*
X6822562Y-15847984D01*
X6822562Y-15847984D02*
X6803515Y-15838460D01*
X6803515Y-15838460D02*
X6793991Y-15828936D01*
X6793991Y-15828936D02*
X6784467Y-15809888D01*
X6784467Y-15809888D02*
X6774943Y-15771793D01*
X6774943Y-15771793D02*
X6774943Y-15724174D01*
X6774943Y-15724174D02*
X6784467Y-15686079D01*
X6784467Y-15686079D02*
X6793991Y-15667031D01*
X6793991Y-15667031D02*
X6803515Y-15657508D01*
X6803515Y-15657508D02*
X6822562Y-15647984D01*
X7013039Y-15647984D02*
X7032086Y-15647984D01*
X7032086Y-15647984D02*
X7051134Y-15657508D01*
X7051134Y-15657508D02*
X7060658Y-15667031D01*
X7060658Y-15667031D02*
X7070182Y-15686079D01*
X7070182Y-15686079D02*
X7079705Y-15724174D01*
X7079705Y-15724174D02*
X7079705Y-15771793D01*
X7079705Y-15771793D02*
X7070182Y-15809888D01*
X7070182Y-15809888D02*
X7060658Y-15828936D01*
X7060658Y-15828936D02*
X7051134Y-15838460D01*
X7051134Y-15838460D02*
X7032086Y-15847984D01*
X7032086Y-15847984D02*
X7013039Y-15847984D01*
X7013039Y-15847984D02*
X6993991Y-15838460D01*
X6993991Y-15838460D02*
X6984467Y-15828936D01*
X6984467Y-15828936D02*
X6974943Y-15809888D01*
X6974943Y-15809888D02*
X6965420Y-15771793D01*
X6965420Y-15771793D02*
X6965420Y-15724174D01*
X6965420Y-15724174D02*
X6974943Y-15686079D01*
X6974943Y-15686079D02*
X6984467Y-15667031D01*
X6984467Y-15667031D02*
X6993991Y-15657508D01*
X6993991Y-15657508D02*
X7013039Y-15647984D01*
X7165420Y-15847984D02*
X7165420Y-15714650D01*
X7165420Y-15733698D02*
X7174943Y-15724174D01*
X7174943Y-15724174D02*
X7193991Y-15714650D01*
X7193991Y-15714650D02*
X7222563Y-15714650D01*
X7222563Y-15714650D02*
X7241610Y-15724174D01*
X7241610Y-15724174D02*
X7251134Y-15743222D01*
X7251134Y-15743222D02*
X7251134Y-15847984D01*
X7251134Y-15743222D02*
X7260658Y-15724174D01*
X7260658Y-15724174D02*
X7279705Y-15714650D01*
X7279705Y-15714650D02*
X7308277Y-15714650D01*
X7308277Y-15714650D02*
X7327324Y-15724174D01*
X7327324Y-15724174D02*
X7336848Y-15743222D01*
X7336848Y-15743222D02*
X7336848Y-15847984D01*
X7432086Y-15847984D02*
X7432086Y-15714650D01*
X7432086Y-15733698D02*
X7441610Y-15724174D01*
X7441610Y-15724174D02*
X7460658Y-15714650D01*
X7460658Y-15714650D02*
X7489229Y-15714650D01*
X7489229Y-15714650D02*
X7508277Y-15724174D01*
X7508277Y-15724174D02*
X7517801Y-15743222D01*
X7517801Y-15743222D02*
X7517801Y-15847984D01*
X7517801Y-15743222D02*
X7527324Y-15724174D01*
X7527324Y-15724174D02*
X7546372Y-15714650D01*
X7546372Y-15714650D02*
X7574943Y-15714650D01*
X7574943Y-15714650D02*
X7593991Y-15724174D01*
X7593991Y-15724174D02*
X7603515Y-15743222D01*
X7603515Y-15743222D02*
X7603515Y-15847984D01*
X7993991Y-15638460D02*
X7822563Y-15895603D01*
X8251134Y-15647984D02*
X8270182Y-15647984D01*
X8270182Y-15647984D02*
X8289229Y-15657508D01*
X8289229Y-15657508D02*
X8298753Y-15667031D01*
X8298753Y-15667031D02*
X8308277Y-15686079D01*
X8308277Y-15686079D02*
X8317801Y-15724174D01*
X8317801Y-15724174D02*
X8317801Y-15771793D01*
X8317801Y-15771793D02*
X8308277Y-15809888D01*
X8308277Y-15809888D02*
X8298753Y-15828936D01*
X8298753Y-15828936D02*
X8289229Y-15838460D01*
X8289229Y-15838460D02*
X8270182Y-15847984D01*
X8270182Y-15847984D02*
X8251134Y-15847984D01*
X8251134Y-15847984D02*
X8232086Y-15838460D01*
X8232086Y-15838460D02*
X8222563Y-15828936D01*
X8222563Y-15828936D02*
X8213039Y-15809888D01*
X8213039Y-15809888D02*
X8203515Y-15771793D01*
X8203515Y-15771793D02*
X8203515Y-15724174D01*
X8203515Y-15724174D02*
X8213039Y-15686079D01*
X8213039Y-15686079D02*
X8222563Y-15667031D01*
X8222563Y-15667031D02*
X8232086Y-15657508D01*
X8232086Y-15657508D02*
X8251134Y-15647984D01*
X8403515Y-15828936D02*
X8413039Y-15838460D01*
X8413039Y-15838460D02*
X8403515Y-15847984D01*
X8403515Y-15847984D02*
X8393991Y-15838460D01*
X8393991Y-15838460D02*
X8403515Y-15828936D01*
X8403515Y-15828936D02*
X8403515Y-15847984D01*
X8536848Y-15647984D02*
X8555896Y-15647984D01*
X8555896Y-15647984D02*
X8574944Y-15657508D01*
X8574944Y-15657508D02*
X8584468Y-15667031D01*
X8584468Y-15667031D02*
X8593991Y-15686079D01*
X8593991Y-15686079D02*
X8603515Y-15724174D01*
X8603515Y-15724174D02*
X8603515Y-15771793D01*
X8603515Y-15771793D02*
X8593991Y-15809888D01*
X8593991Y-15809888D02*
X8584468Y-15828936D01*
X8584468Y-15828936D02*
X8574944Y-15838460D01*
X8574944Y-15838460D02*
X8555896Y-15847984D01*
X8555896Y-15847984D02*
X8536848Y-15847984D01*
X8536848Y-15847984D02*
X8517801Y-15838460D01*
X8517801Y-15838460D02*
X8508277Y-15828936D01*
X8508277Y-15828936D02*
X8498753Y-15809888D01*
X8498753Y-15809888D02*
X8489229Y-15771793D01*
X8489229Y-15771793D02*
X8489229Y-15724174D01*
X8489229Y-15724174D02*
X8498753Y-15686079D01*
X8498753Y-15686079D02*
X8508277Y-15667031D01*
X8508277Y-15667031D02*
X8517801Y-15657508D01*
X8517801Y-15657508D02*
X8536848Y-15647984D01*
X8679706Y-15667031D02*
X8689229Y-15657508D01*
X8689229Y-15657508D02*
X8708277Y-15647984D01*
X8708277Y-15647984D02*
X8755896Y-15647984D01*
X8755896Y-15647984D02*
X8774944Y-15657508D01*
X8774944Y-15657508D02*
X8784468Y-15667031D01*
X8784468Y-15667031D02*
X8793991Y-15686079D01*
X8793991Y-15686079D02*
X8793991Y-15705127D01*
X8793991Y-15705127D02*
X8784468Y-15733698D01*
X8784468Y-15733698D02*
X8670182Y-15847984D01*
X8670182Y-15847984D02*
X8793991Y-15847984D01*
X8860658Y-15647984D02*
X8993991Y-15647984D01*
X8993991Y-15647984D02*
X8908277Y-15847984D01*
X9155896Y-15647984D02*
X9117801Y-15647984D01*
X9117801Y-15647984D02*
X9098753Y-15657508D01*
X9098753Y-15657508D02*
X9089229Y-15667031D01*
X9089229Y-15667031D02*
X9070182Y-15695603D01*
X9070182Y-15695603D02*
X9060658Y-15733698D01*
X9060658Y-15733698D02*
X9060658Y-15809888D01*
X9060658Y-15809888D02*
X9070182Y-15828936D01*
X9070182Y-15828936D02*
X9079706Y-15838460D01*
X9079706Y-15838460D02*
X9098753Y-15847984D01*
X9098753Y-15847984D02*
X9136849Y-15847984D01*
X9136849Y-15847984D02*
X9155896Y-15838460D01*
X9155896Y-15838460D02*
X9165420Y-15828936D01*
X9165420Y-15828936D02*
X9174944Y-15809888D01*
X9174944Y-15809888D02*
X9174944Y-15762269D01*
X9174944Y-15762269D02*
X9165420Y-15743222D01*
X9165420Y-15743222D02*
X9155896Y-15733698D01*
X9155896Y-15733698D02*
X9136849Y-15724174D01*
X9136849Y-15724174D02*
X9098753Y-15724174D01*
X9098753Y-15724174D02*
X9079706Y-15733698D01*
X9079706Y-15733698D02*
X9070182Y-15743222D01*
X9070182Y-15743222D02*
X9060658Y-15762269D01*
X9251134Y-15647984D02*
X9251134Y-15686079D01*
X9327325Y-15647984D02*
X9327325Y-15686079D01*
X9622563Y-15924174D02*
X9613039Y-15914650D01*
X9613039Y-15914650D02*
X9593991Y-15886079D01*
X9593991Y-15886079D02*
X9584468Y-15867031D01*
X9584468Y-15867031D02*
X9574944Y-15838460D01*
X9574944Y-15838460D02*
X9565420Y-15790841D01*
X9565420Y-15790841D02*
X9565420Y-15752746D01*
X9565420Y-15752746D02*
X9574944Y-15705127D01*
X9574944Y-15705127D02*
X9584468Y-15676555D01*
X9584468Y-15676555D02*
X9593991Y-15657508D01*
X9593991Y-15657508D02*
X9613039Y-15628936D01*
X9613039Y-15628936D02*
X9622563Y-15619412D01*
X9784468Y-15647984D02*
X9746372Y-15647984D01*
X9746372Y-15647984D02*
X9727325Y-15657508D01*
X9727325Y-15657508D02*
X9717801Y-15667031D01*
X9717801Y-15667031D02*
X9698753Y-15695603D01*
X9698753Y-15695603D02*
X9689230Y-15733698D01*
X9689230Y-15733698D02*
X9689230Y-15809888D01*
X9689230Y-15809888D02*
X9698753Y-15828936D01*
X9698753Y-15828936D02*
X9708277Y-15838460D01*
X9708277Y-15838460D02*
X9727325Y-15847984D01*
X9727325Y-15847984D02*
X9765420Y-15847984D01*
X9765420Y-15847984D02*
X9784468Y-15838460D01*
X9784468Y-15838460D02*
X9793991Y-15828936D01*
X9793991Y-15828936D02*
X9803515Y-15809888D01*
X9803515Y-15809888D02*
X9803515Y-15762269D01*
X9803515Y-15762269D02*
X9793991Y-15743222D01*
X9793991Y-15743222D02*
X9784468Y-15733698D01*
X9784468Y-15733698D02*
X9765420Y-15724174D01*
X9765420Y-15724174D02*
X9727325Y-15724174D01*
X9727325Y-15724174D02*
X9708277Y-15733698D01*
X9708277Y-15733698D02*
X9698753Y-15743222D01*
X9698753Y-15743222D02*
X9689230Y-15762269D01*
X10041611Y-15847984D02*
X10041611Y-15647984D01*
X10127325Y-15847984D02*
X10127325Y-15743222D01*
X10127325Y-15743222D02*
X10117801Y-15724174D01*
X10117801Y-15724174D02*
X10098753Y-15714650D01*
X10098753Y-15714650D02*
X10070182Y-15714650D01*
X10070182Y-15714650D02*
X10051134Y-15724174D01*
X10051134Y-15724174D02*
X10041611Y-15733698D01*
X10251134Y-15847984D02*
X10232087Y-15838460D01*
X10232087Y-15838460D02*
X10222563Y-15828936D01*
X10222563Y-15828936D02*
X10213039Y-15809888D01*
X10213039Y-15809888D02*
X10213039Y-15752746D01*
X10213039Y-15752746D02*
X10222563Y-15733698D01*
X10222563Y-15733698D02*
X10232087Y-15724174D01*
X10232087Y-15724174D02*
X10251134Y-15714650D01*
X10251134Y-15714650D02*
X10279706Y-15714650D01*
X10279706Y-15714650D02*
X10298753Y-15724174D01*
X10298753Y-15724174D02*
X10308277Y-15733698D01*
X10308277Y-15733698D02*
X10317801Y-15752746D01*
X10317801Y-15752746D02*
X10317801Y-15809888D01*
X10317801Y-15809888D02*
X10308277Y-15828936D01*
X10308277Y-15828936D02*
X10298753Y-15838460D01*
X10298753Y-15838460D02*
X10279706Y-15847984D01*
X10279706Y-15847984D02*
X10251134Y-15847984D01*
X10432087Y-15847984D02*
X10413039Y-15838460D01*
X10413039Y-15838460D02*
X10403515Y-15819412D01*
X10403515Y-15819412D02*
X10403515Y-15647984D01*
X10584468Y-15838460D02*
X10565420Y-15847984D01*
X10565420Y-15847984D02*
X10527325Y-15847984D01*
X10527325Y-15847984D02*
X10508277Y-15838460D01*
X10508277Y-15838460D02*
X10498753Y-15819412D01*
X10498753Y-15819412D02*
X10498753Y-15743222D01*
X10498753Y-15743222D02*
X10508277Y-15724174D01*
X10508277Y-15724174D02*
X10527325Y-15714650D01*
X10527325Y-15714650D02*
X10565420Y-15714650D01*
X10565420Y-15714650D02*
X10584468Y-15724174D01*
X10584468Y-15724174D02*
X10593992Y-15743222D01*
X10593992Y-15743222D02*
X10593992Y-15762269D01*
X10593992Y-15762269D02*
X10498753Y-15781317D01*
X10670182Y-15838460D02*
X10689230Y-15847984D01*
X10689230Y-15847984D02*
X10727325Y-15847984D01*
X10727325Y-15847984D02*
X10746373Y-15838460D01*
X10746373Y-15838460D02*
X10755896Y-15819412D01*
X10755896Y-15819412D02*
X10755896Y-15809888D01*
X10755896Y-15809888D02*
X10746373Y-15790841D01*
X10746373Y-15790841D02*
X10727325Y-15781317D01*
X10727325Y-15781317D02*
X10698753Y-15781317D01*
X10698753Y-15781317D02*
X10679706Y-15771793D01*
X10679706Y-15771793D02*
X10670182Y-15752746D01*
X10670182Y-15752746D02*
X10670182Y-15743222D01*
X10670182Y-15743222D02*
X10679706Y-15724174D01*
X10679706Y-15724174D02*
X10698753Y-15714650D01*
X10698753Y-15714650D02*
X10727325Y-15714650D01*
X10727325Y-15714650D02*
X10746373Y-15724174D01*
X10822563Y-15924174D02*
X10832087Y-15914650D01*
X10832087Y-15914650D02*
X10851134Y-15886079D01*
X10851134Y-15886079D02*
X10860658Y-15867031D01*
X10860658Y-15867031D02*
X10870182Y-15838460D01*
X10870182Y-15838460D02*
X10879706Y-15790841D01*
X10879706Y-15790841D02*
X10879706Y-15752746D01*
X10879706Y-15752746D02*
X10870182Y-15705127D01*
X10870182Y-15705127D02*
X10860658Y-15676555D01*
X10860658Y-15676555D02*
X10851134Y-15657508D01*
X10851134Y-15657508D02*
X10832087Y-15628936D01*
X10832087Y-15628936D02*
X10822563Y-15619412D01*
D12*
X6007500Y-15980500D02*
X6007500Y-16060500D01*
X5967500Y-16020500D02*
X6047500Y-16020500D01*
D11*
X6346372Y-15911984D02*
X6365420Y-15911984D01*
X6365420Y-15911984D02*
X6384467Y-15921508D01*
X6384467Y-15921508D02*
X6393991Y-15931031D01*
X6393991Y-15931031D02*
X6403515Y-15950079D01*
X6403515Y-15950079D02*
X6413039Y-15988174D01*
X6413039Y-15988174D02*
X6413039Y-16035793D01*
X6413039Y-16035793D02*
X6403515Y-16073888D01*
X6403515Y-16073888D02*
X6393991Y-16092936D01*
X6393991Y-16092936D02*
X6384467Y-16102460D01*
X6384467Y-16102460D02*
X6365420Y-16111984D01*
X6365420Y-16111984D02*
X6346372Y-16111984D01*
X6346372Y-16111984D02*
X6327324Y-16102460D01*
X6327324Y-16102460D02*
X6317801Y-16092936D01*
X6317801Y-16092936D02*
X6308277Y-16073888D01*
X6308277Y-16073888D02*
X6298753Y-16035793D01*
X6298753Y-16035793D02*
X6298753Y-15988174D01*
X6298753Y-15988174D02*
X6308277Y-15950079D01*
X6308277Y-15950079D02*
X6317801Y-15931031D01*
X6317801Y-15931031D02*
X6327324Y-15921508D01*
X6327324Y-15921508D02*
X6346372Y-15911984D01*
X6498753Y-16092936D02*
X6508277Y-16102460D01*
X6508277Y-16102460D02*
X6498753Y-16111984D01*
X6498753Y-16111984D02*
X6489229Y-16102460D01*
X6489229Y-16102460D02*
X6498753Y-16092936D01*
X6498753Y-16092936D02*
X6498753Y-16111984D01*
X6622562Y-15997698D02*
X6603515Y-15988174D01*
X6603515Y-15988174D02*
X6593991Y-15978650D01*
X6593991Y-15978650D02*
X6584467Y-15959603D01*
X6584467Y-15959603D02*
X6584467Y-15950079D01*
X6584467Y-15950079D02*
X6593991Y-15931031D01*
X6593991Y-15931031D02*
X6603515Y-15921508D01*
X6603515Y-15921508D02*
X6622562Y-15911984D01*
X6622562Y-15911984D02*
X6660658Y-15911984D01*
X6660658Y-15911984D02*
X6679705Y-15921508D01*
X6679705Y-15921508D02*
X6689229Y-15931031D01*
X6689229Y-15931031D02*
X6698753Y-15950079D01*
X6698753Y-15950079D02*
X6698753Y-15959603D01*
X6698753Y-15959603D02*
X6689229Y-15978650D01*
X6689229Y-15978650D02*
X6679705Y-15988174D01*
X6679705Y-15988174D02*
X6660658Y-15997698D01*
X6660658Y-15997698D02*
X6622562Y-15997698D01*
X6622562Y-15997698D02*
X6603515Y-16007222D01*
X6603515Y-16007222D02*
X6593991Y-16016746D01*
X6593991Y-16016746D02*
X6584467Y-16035793D01*
X6584467Y-16035793D02*
X6584467Y-16073888D01*
X6584467Y-16073888D02*
X6593991Y-16092936D01*
X6593991Y-16092936D02*
X6603515Y-16102460D01*
X6603515Y-16102460D02*
X6622562Y-16111984D01*
X6622562Y-16111984D02*
X6660658Y-16111984D01*
X6660658Y-16111984D02*
X6679705Y-16102460D01*
X6679705Y-16102460D02*
X6689229Y-16092936D01*
X6689229Y-16092936D02*
X6698753Y-16073888D01*
X6698753Y-16073888D02*
X6698753Y-16035793D01*
X6698753Y-16035793D02*
X6689229Y-16016746D01*
X6689229Y-16016746D02*
X6679705Y-16007222D01*
X6679705Y-16007222D02*
X6660658Y-15997698D01*
X6822562Y-15911984D02*
X6841610Y-15911984D01*
X6841610Y-15911984D02*
X6860658Y-15921508D01*
X6860658Y-15921508D02*
X6870182Y-15931031D01*
X6870182Y-15931031D02*
X6879705Y-15950079D01*
X6879705Y-15950079D02*
X6889229Y-15988174D01*
X6889229Y-15988174D02*
X6889229Y-16035793D01*
X6889229Y-16035793D02*
X6879705Y-16073888D01*
X6879705Y-16073888D02*
X6870182Y-16092936D01*
X6870182Y-16092936D02*
X6860658Y-16102460D01*
X6860658Y-16102460D02*
X6841610Y-16111984D01*
X6841610Y-16111984D02*
X6822562Y-16111984D01*
X6822562Y-16111984D02*
X6803515Y-16102460D01*
X6803515Y-16102460D02*
X6793991Y-16092936D01*
X6793991Y-16092936D02*
X6784467Y-16073888D01*
X6784467Y-16073888D02*
X6774943Y-16035793D01*
X6774943Y-16035793D02*
X6774943Y-15988174D01*
X6774943Y-15988174D02*
X6784467Y-15950079D01*
X6784467Y-15950079D02*
X6793991Y-15931031D01*
X6793991Y-15931031D02*
X6803515Y-15921508D01*
X6803515Y-15921508D02*
X6822562Y-15911984D01*
X7013039Y-15911984D02*
X7032086Y-15911984D01*
X7032086Y-15911984D02*
X7051134Y-15921508D01*
X7051134Y-15921508D02*
X7060658Y-15931031D01*
X7060658Y-15931031D02*
X7070182Y-15950079D01*
X7070182Y-15950079D02*
X7079705Y-15988174D01*
X7079705Y-15988174D02*
X7079705Y-16035793D01*
X7079705Y-16035793D02*
X7070182Y-16073888D01*
X7070182Y-16073888D02*
X7060658Y-16092936D01*
X7060658Y-16092936D02*
X7051134Y-16102460D01*
X7051134Y-16102460D02*
X7032086Y-16111984D01*
X7032086Y-16111984D02*
X7013039Y-16111984D01*
X7013039Y-16111984D02*
X6993991Y-16102460D01*
X6993991Y-16102460D02*
X6984467Y-16092936D01*
X6984467Y-16092936D02*
X6974943Y-16073888D01*
X6974943Y-16073888D02*
X6965420Y-16035793D01*
X6965420Y-16035793D02*
X6965420Y-15988174D01*
X6965420Y-15988174D02*
X6974943Y-15950079D01*
X6974943Y-15950079D02*
X6984467Y-15931031D01*
X6984467Y-15931031D02*
X6993991Y-15921508D01*
X6993991Y-15921508D02*
X7013039Y-15911984D01*
X7165420Y-16111984D02*
X7165420Y-15978650D01*
X7165420Y-15997698D02*
X7174943Y-15988174D01*
X7174943Y-15988174D02*
X7193991Y-15978650D01*
X7193991Y-15978650D02*
X7222563Y-15978650D01*
X7222563Y-15978650D02*
X7241610Y-15988174D01*
X7241610Y-15988174D02*
X7251134Y-16007222D01*
X7251134Y-16007222D02*
X7251134Y-16111984D01*
X7251134Y-16007222D02*
X7260658Y-15988174D01*
X7260658Y-15988174D02*
X7279705Y-15978650D01*
X7279705Y-15978650D02*
X7308277Y-15978650D01*
X7308277Y-15978650D02*
X7327324Y-15988174D01*
X7327324Y-15988174D02*
X7336848Y-16007222D01*
X7336848Y-16007222D02*
X7336848Y-16111984D01*
X7432086Y-16111984D02*
X7432086Y-15978650D01*
X7432086Y-15997698D02*
X7441610Y-15988174D01*
X7441610Y-15988174D02*
X7460658Y-15978650D01*
X7460658Y-15978650D02*
X7489229Y-15978650D01*
X7489229Y-15978650D02*
X7508277Y-15988174D01*
X7508277Y-15988174D02*
X7517801Y-16007222D01*
X7517801Y-16007222D02*
X7517801Y-16111984D01*
X7517801Y-16007222D02*
X7527324Y-15988174D01*
X7527324Y-15988174D02*
X7546372Y-15978650D01*
X7546372Y-15978650D02*
X7574943Y-15978650D01*
X7574943Y-15978650D02*
X7593991Y-15988174D01*
X7593991Y-15988174D02*
X7603515Y-16007222D01*
X7603515Y-16007222D02*
X7603515Y-16111984D01*
X7993991Y-15902460D02*
X7822563Y-16159603D01*
X8251134Y-15911984D02*
X8270182Y-15911984D01*
X8270182Y-15911984D02*
X8289229Y-15921508D01*
X8289229Y-15921508D02*
X8298753Y-15931031D01*
X8298753Y-15931031D02*
X8308277Y-15950079D01*
X8308277Y-15950079D02*
X8317801Y-15988174D01*
X8317801Y-15988174D02*
X8317801Y-16035793D01*
X8317801Y-16035793D02*
X8308277Y-16073888D01*
X8308277Y-16073888D02*
X8298753Y-16092936D01*
X8298753Y-16092936D02*
X8289229Y-16102460D01*
X8289229Y-16102460D02*
X8270182Y-16111984D01*
X8270182Y-16111984D02*
X8251134Y-16111984D01*
X8251134Y-16111984D02*
X8232086Y-16102460D01*
X8232086Y-16102460D02*
X8222563Y-16092936D01*
X8222563Y-16092936D02*
X8213039Y-16073888D01*
X8213039Y-16073888D02*
X8203515Y-16035793D01*
X8203515Y-16035793D02*
X8203515Y-15988174D01*
X8203515Y-15988174D02*
X8213039Y-15950079D01*
X8213039Y-15950079D02*
X8222563Y-15931031D01*
X8222563Y-15931031D02*
X8232086Y-15921508D01*
X8232086Y-15921508D02*
X8251134Y-15911984D01*
X8403515Y-16092936D02*
X8413039Y-16102460D01*
X8413039Y-16102460D02*
X8403515Y-16111984D01*
X8403515Y-16111984D02*
X8393991Y-16102460D01*
X8393991Y-16102460D02*
X8403515Y-16092936D01*
X8403515Y-16092936D02*
X8403515Y-16111984D01*
X8536848Y-15911984D02*
X8555896Y-15911984D01*
X8555896Y-15911984D02*
X8574944Y-15921508D01*
X8574944Y-15921508D02*
X8584468Y-15931031D01*
X8584468Y-15931031D02*
X8593991Y-15950079D01*
X8593991Y-15950079D02*
X8603515Y-15988174D01*
X8603515Y-15988174D02*
X8603515Y-16035793D01*
X8603515Y-16035793D02*
X8593991Y-16073888D01*
X8593991Y-16073888D02*
X8584468Y-16092936D01*
X8584468Y-16092936D02*
X8574944Y-16102460D01*
X8574944Y-16102460D02*
X8555896Y-16111984D01*
X8555896Y-16111984D02*
X8536848Y-16111984D01*
X8536848Y-16111984D02*
X8517801Y-16102460D01*
X8517801Y-16102460D02*
X8508277Y-16092936D01*
X8508277Y-16092936D02*
X8498753Y-16073888D01*
X8498753Y-16073888D02*
X8489229Y-16035793D01*
X8489229Y-16035793D02*
X8489229Y-15988174D01*
X8489229Y-15988174D02*
X8498753Y-15950079D01*
X8498753Y-15950079D02*
X8508277Y-15931031D01*
X8508277Y-15931031D02*
X8517801Y-15921508D01*
X8517801Y-15921508D02*
X8536848Y-15911984D01*
X8670182Y-15911984D02*
X8793991Y-15911984D01*
X8793991Y-15911984D02*
X8727325Y-15988174D01*
X8727325Y-15988174D02*
X8755896Y-15988174D01*
X8755896Y-15988174D02*
X8774944Y-15997698D01*
X8774944Y-15997698D02*
X8784468Y-16007222D01*
X8784468Y-16007222D02*
X8793991Y-16026269D01*
X8793991Y-16026269D02*
X8793991Y-16073888D01*
X8793991Y-16073888D02*
X8784468Y-16092936D01*
X8784468Y-16092936D02*
X8774944Y-16102460D01*
X8774944Y-16102460D02*
X8755896Y-16111984D01*
X8755896Y-16111984D02*
X8698753Y-16111984D01*
X8698753Y-16111984D02*
X8679706Y-16102460D01*
X8679706Y-16102460D02*
X8670182Y-16092936D01*
X8984468Y-16111984D02*
X8870182Y-16111984D01*
X8927325Y-16111984D02*
X8927325Y-15911984D01*
X8927325Y-15911984D02*
X8908277Y-15940555D01*
X8908277Y-15940555D02*
X8889229Y-15959603D01*
X8889229Y-15959603D02*
X8870182Y-15969127D01*
X9165420Y-15911984D02*
X9070182Y-15911984D01*
X9070182Y-15911984D02*
X9060658Y-16007222D01*
X9060658Y-16007222D02*
X9070182Y-15997698D01*
X9070182Y-15997698D02*
X9089229Y-15988174D01*
X9089229Y-15988174D02*
X9136849Y-15988174D01*
X9136849Y-15988174D02*
X9155896Y-15997698D01*
X9155896Y-15997698D02*
X9165420Y-16007222D01*
X9165420Y-16007222D02*
X9174944Y-16026269D01*
X9174944Y-16026269D02*
X9174944Y-16073888D01*
X9174944Y-16073888D02*
X9165420Y-16092936D01*
X9165420Y-16092936D02*
X9155896Y-16102460D01*
X9155896Y-16102460D02*
X9136849Y-16111984D01*
X9136849Y-16111984D02*
X9089229Y-16111984D01*
X9089229Y-16111984D02*
X9070182Y-16102460D01*
X9070182Y-16102460D02*
X9060658Y-16092936D01*
X9251134Y-15911984D02*
X9251134Y-15950079D01*
X9327325Y-15911984D02*
X9327325Y-15950079D01*
X9622563Y-16188174D02*
X9613039Y-16178650D01*
X9613039Y-16178650D02*
X9593991Y-16150079D01*
X9593991Y-16150079D02*
X9584468Y-16131031D01*
X9584468Y-16131031D02*
X9574944Y-16102460D01*
X9574944Y-16102460D02*
X9565420Y-16054841D01*
X9565420Y-16054841D02*
X9565420Y-16016746D01*
X9565420Y-16016746D02*
X9574944Y-15969127D01*
X9574944Y-15969127D02*
X9584468Y-15940555D01*
X9584468Y-15940555D02*
X9593991Y-15921508D01*
X9593991Y-15921508D02*
X9613039Y-15892936D01*
X9613039Y-15892936D02*
X9622563Y-15883412D01*
X9793991Y-15911984D02*
X9698753Y-15911984D01*
X9698753Y-15911984D02*
X9689230Y-16007222D01*
X9689230Y-16007222D02*
X9698753Y-15997698D01*
X9698753Y-15997698D02*
X9717801Y-15988174D01*
X9717801Y-15988174D02*
X9765420Y-15988174D01*
X9765420Y-15988174D02*
X9784468Y-15997698D01*
X9784468Y-15997698D02*
X9793991Y-16007222D01*
X9793991Y-16007222D02*
X9803515Y-16026269D01*
X9803515Y-16026269D02*
X9803515Y-16073888D01*
X9803515Y-16073888D02*
X9793991Y-16092936D01*
X9793991Y-16092936D02*
X9784468Y-16102460D01*
X9784468Y-16102460D02*
X9765420Y-16111984D01*
X9765420Y-16111984D02*
X9717801Y-16111984D01*
X9717801Y-16111984D02*
X9698753Y-16102460D01*
X9698753Y-16102460D02*
X9689230Y-16092936D01*
X9879706Y-15931031D02*
X9889230Y-15921508D01*
X9889230Y-15921508D02*
X9908277Y-15911984D01*
X9908277Y-15911984D02*
X9955896Y-15911984D01*
X9955896Y-15911984D02*
X9974944Y-15921508D01*
X9974944Y-15921508D02*
X9984468Y-15931031D01*
X9984468Y-15931031D02*
X9993991Y-15950079D01*
X9993991Y-15950079D02*
X9993991Y-15969127D01*
X9993991Y-15969127D02*
X9984468Y-15997698D01*
X9984468Y-15997698D02*
X9870182Y-16111984D01*
X9870182Y-16111984D02*
X9993991Y-16111984D01*
X10232087Y-16111984D02*
X10232087Y-15911984D01*
X10317801Y-16111984D02*
X10317801Y-16007222D01*
X10317801Y-16007222D02*
X10308277Y-15988174D01*
X10308277Y-15988174D02*
X10289230Y-15978650D01*
X10289230Y-15978650D02*
X10260658Y-15978650D01*
X10260658Y-15978650D02*
X10241611Y-15988174D01*
X10241611Y-15988174D02*
X10232087Y-15997698D01*
X10441611Y-16111984D02*
X10422563Y-16102460D01*
X10422563Y-16102460D02*
X10413039Y-16092936D01*
X10413039Y-16092936D02*
X10403515Y-16073888D01*
X10403515Y-16073888D02*
X10403515Y-16016746D01*
X10403515Y-16016746D02*
X10413039Y-15997698D01*
X10413039Y-15997698D02*
X10422563Y-15988174D01*
X10422563Y-15988174D02*
X10441611Y-15978650D01*
X10441611Y-15978650D02*
X10470182Y-15978650D01*
X10470182Y-15978650D02*
X10489230Y-15988174D01*
X10489230Y-15988174D02*
X10498753Y-15997698D01*
X10498753Y-15997698D02*
X10508277Y-16016746D01*
X10508277Y-16016746D02*
X10508277Y-16073888D01*
X10508277Y-16073888D02*
X10498753Y-16092936D01*
X10498753Y-16092936D02*
X10489230Y-16102460D01*
X10489230Y-16102460D02*
X10470182Y-16111984D01*
X10470182Y-16111984D02*
X10441611Y-16111984D01*
X10622563Y-16111984D02*
X10603515Y-16102460D01*
X10603515Y-16102460D02*
X10593992Y-16083412D01*
X10593992Y-16083412D02*
X10593992Y-15911984D01*
X10774944Y-16102460D02*
X10755896Y-16111984D01*
X10755896Y-16111984D02*
X10717801Y-16111984D01*
X10717801Y-16111984D02*
X10698753Y-16102460D01*
X10698753Y-16102460D02*
X10689230Y-16083412D01*
X10689230Y-16083412D02*
X10689230Y-16007222D01*
X10689230Y-16007222D02*
X10698753Y-15988174D01*
X10698753Y-15988174D02*
X10717801Y-15978650D01*
X10717801Y-15978650D02*
X10755896Y-15978650D01*
X10755896Y-15978650D02*
X10774944Y-15988174D01*
X10774944Y-15988174D02*
X10784468Y-16007222D01*
X10784468Y-16007222D02*
X10784468Y-16026269D01*
X10784468Y-16026269D02*
X10689230Y-16045317D01*
X10860658Y-16102460D02*
X10879706Y-16111984D01*
X10879706Y-16111984D02*
X10917801Y-16111984D01*
X10917801Y-16111984D02*
X10936849Y-16102460D01*
X10936849Y-16102460D02*
X10946373Y-16083412D01*
X10946373Y-16083412D02*
X10946373Y-16073888D01*
X10946373Y-16073888D02*
X10936849Y-16054841D01*
X10936849Y-16054841D02*
X10917801Y-16045317D01*
X10917801Y-16045317D02*
X10889230Y-16045317D01*
X10889230Y-16045317D02*
X10870182Y-16035793D01*
X10870182Y-16035793D02*
X10860658Y-16016746D01*
X10860658Y-16016746D02*
X10860658Y-16007222D01*
X10860658Y-16007222D02*
X10870182Y-15988174D01*
X10870182Y-15988174D02*
X10889230Y-15978650D01*
X10889230Y-15978650D02*
X10917801Y-15978650D01*
X10917801Y-15978650D02*
X10936849Y-15988174D01*
X11013039Y-16188174D02*
X11022563Y-16178650D01*
X11022563Y-16178650D02*
X11041611Y-16150079D01*
X11041611Y-16150079D02*
X11051134Y-16131031D01*
X11051134Y-16131031D02*
X11060658Y-16102460D01*
X11060658Y-16102460D02*
X11070182Y-16054841D01*
X11070182Y-16054841D02*
X11070182Y-16016746D01*
X11070182Y-16016746D02*
X11060658Y-15969127D01*
X11060658Y-15969127D02*
X11051134Y-15940555D01*
X11051134Y-15940555D02*
X11041611Y-15921508D01*
X11041611Y-15921508D02*
X11022563Y-15892936D01*
X11022563Y-15892936D02*
X11013039Y-15883412D01*
D12*
X6034320Y-16316320D02*
X6034320Y-16252680D01*
X5970680Y-16252680D01*
X5970680Y-16316320D01*
X6034320Y-16316320D01*
D11*
X6346372Y-16175984D02*
X6365420Y-16175984D01*
X6365420Y-16175984D02*
X6384467Y-16185508D01*
X6384467Y-16185508D02*
X6393991Y-16195031D01*
X6393991Y-16195031D02*
X6403515Y-16214079D01*
X6403515Y-16214079D02*
X6413039Y-16252174D01*
X6413039Y-16252174D02*
X6413039Y-16299793D01*
X6413039Y-16299793D02*
X6403515Y-16337888D01*
X6403515Y-16337888D02*
X6393991Y-16356936D01*
X6393991Y-16356936D02*
X6384467Y-16366460D01*
X6384467Y-16366460D02*
X6365420Y-16375984D01*
X6365420Y-16375984D02*
X6346372Y-16375984D01*
X6346372Y-16375984D02*
X6327324Y-16366460D01*
X6327324Y-16366460D02*
X6317801Y-16356936D01*
X6317801Y-16356936D02*
X6308277Y-16337888D01*
X6308277Y-16337888D02*
X6298753Y-16299793D01*
X6298753Y-16299793D02*
X6298753Y-16252174D01*
X6298753Y-16252174D02*
X6308277Y-16214079D01*
X6308277Y-16214079D02*
X6317801Y-16195031D01*
X6317801Y-16195031D02*
X6327324Y-16185508D01*
X6327324Y-16185508D02*
X6346372Y-16175984D01*
X6498753Y-16356936D02*
X6508277Y-16366460D01*
X6508277Y-16366460D02*
X6498753Y-16375984D01*
X6498753Y-16375984D02*
X6489229Y-16366460D01*
X6489229Y-16366460D02*
X6498753Y-16356936D01*
X6498753Y-16356936D02*
X6498753Y-16375984D01*
X6603515Y-16375984D02*
X6641610Y-16375984D01*
X6641610Y-16375984D02*
X6660658Y-16366460D01*
X6660658Y-16366460D02*
X6670182Y-16356936D01*
X6670182Y-16356936D02*
X6689229Y-16328365D01*
X6689229Y-16328365D02*
X6698753Y-16290269D01*
X6698753Y-16290269D02*
X6698753Y-16214079D01*
X6698753Y-16214079D02*
X6689229Y-16195031D01*
X6689229Y-16195031D02*
X6679705Y-16185508D01*
X6679705Y-16185508D02*
X6660658Y-16175984D01*
X6660658Y-16175984D02*
X6622562Y-16175984D01*
X6622562Y-16175984D02*
X6603515Y-16185508D01*
X6603515Y-16185508D02*
X6593991Y-16195031D01*
X6593991Y-16195031D02*
X6584467Y-16214079D01*
X6584467Y-16214079D02*
X6584467Y-16261698D01*
X6584467Y-16261698D02*
X6593991Y-16280746D01*
X6593991Y-16280746D02*
X6603515Y-16290269D01*
X6603515Y-16290269D02*
X6622562Y-16299793D01*
X6622562Y-16299793D02*
X6660658Y-16299793D01*
X6660658Y-16299793D02*
X6679705Y-16290269D01*
X6679705Y-16290269D02*
X6689229Y-16280746D01*
X6689229Y-16280746D02*
X6698753Y-16261698D01*
X6822562Y-16175984D02*
X6841610Y-16175984D01*
X6841610Y-16175984D02*
X6860658Y-16185508D01*
X6860658Y-16185508D02*
X6870182Y-16195031D01*
X6870182Y-16195031D02*
X6879705Y-16214079D01*
X6879705Y-16214079D02*
X6889229Y-16252174D01*
X6889229Y-16252174D02*
X6889229Y-16299793D01*
X6889229Y-16299793D02*
X6879705Y-16337888D01*
X6879705Y-16337888D02*
X6870182Y-16356936D01*
X6870182Y-16356936D02*
X6860658Y-16366460D01*
X6860658Y-16366460D02*
X6841610Y-16375984D01*
X6841610Y-16375984D02*
X6822562Y-16375984D01*
X6822562Y-16375984D02*
X6803515Y-16366460D01*
X6803515Y-16366460D02*
X6793991Y-16356936D01*
X6793991Y-16356936D02*
X6784467Y-16337888D01*
X6784467Y-16337888D02*
X6774943Y-16299793D01*
X6774943Y-16299793D02*
X6774943Y-16252174D01*
X6774943Y-16252174D02*
X6784467Y-16214079D01*
X6784467Y-16214079D02*
X6793991Y-16195031D01*
X6793991Y-16195031D02*
X6803515Y-16185508D01*
X6803515Y-16185508D02*
X6822562Y-16175984D01*
X7013039Y-16175984D02*
X7032086Y-16175984D01*
X7032086Y-16175984D02*
X7051134Y-16185508D01*
X7051134Y-16185508D02*
X7060658Y-16195031D01*
X7060658Y-16195031D02*
X7070182Y-16214079D01*
X7070182Y-16214079D02*
X7079705Y-16252174D01*
X7079705Y-16252174D02*
X7079705Y-16299793D01*
X7079705Y-16299793D02*
X7070182Y-16337888D01*
X7070182Y-16337888D02*
X7060658Y-16356936D01*
X7060658Y-16356936D02*
X7051134Y-16366460D01*
X7051134Y-16366460D02*
X7032086Y-16375984D01*
X7032086Y-16375984D02*
X7013039Y-16375984D01*
X7013039Y-16375984D02*
X6993991Y-16366460D01*
X6993991Y-16366460D02*
X6984467Y-16356936D01*
X6984467Y-16356936D02*
X6974943Y-16337888D01*
X6974943Y-16337888D02*
X6965420Y-16299793D01*
X6965420Y-16299793D02*
X6965420Y-16252174D01*
X6965420Y-16252174D02*
X6974943Y-16214079D01*
X6974943Y-16214079D02*
X6984467Y-16195031D01*
X6984467Y-16195031D02*
X6993991Y-16185508D01*
X6993991Y-16185508D02*
X7013039Y-16175984D01*
X7165420Y-16375984D02*
X7165420Y-16242650D01*
X7165420Y-16261698D02*
X7174943Y-16252174D01*
X7174943Y-16252174D02*
X7193991Y-16242650D01*
X7193991Y-16242650D02*
X7222563Y-16242650D01*
X7222563Y-16242650D02*
X7241610Y-16252174D01*
X7241610Y-16252174D02*
X7251134Y-16271222D01*
X7251134Y-16271222D02*
X7251134Y-16375984D01*
X7251134Y-16271222D02*
X7260658Y-16252174D01*
X7260658Y-16252174D02*
X7279705Y-16242650D01*
X7279705Y-16242650D02*
X7308277Y-16242650D01*
X7308277Y-16242650D02*
X7327324Y-16252174D01*
X7327324Y-16252174D02*
X7336848Y-16271222D01*
X7336848Y-16271222D02*
X7336848Y-16375984D01*
X7432086Y-16375984D02*
X7432086Y-16242650D01*
X7432086Y-16261698D02*
X7441610Y-16252174D01*
X7441610Y-16252174D02*
X7460658Y-16242650D01*
X7460658Y-16242650D02*
X7489229Y-16242650D01*
X7489229Y-16242650D02*
X7508277Y-16252174D01*
X7508277Y-16252174D02*
X7517801Y-16271222D01*
X7517801Y-16271222D02*
X7517801Y-16375984D01*
X7517801Y-16271222D02*
X7527324Y-16252174D01*
X7527324Y-16252174D02*
X7546372Y-16242650D01*
X7546372Y-16242650D02*
X7574943Y-16242650D01*
X7574943Y-16242650D02*
X7593991Y-16252174D01*
X7593991Y-16252174D02*
X7603515Y-16271222D01*
X7603515Y-16271222D02*
X7603515Y-16375984D01*
X7993991Y-16166460D02*
X7822563Y-16423603D01*
X8251134Y-16175984D02*
X8270182Y-16175984D01*
X8270182Y-16175984D02*
X8289229Y-16185508D01*
X8289229Y-16185508D02*
X8298753Y-16195031D01*
X8298753Y-16195031D02*
X8308277Y-16214079D01*
X8308277Y-16214079D02*
X8317801Y-16252174D01*
X8317801Y-16252174D02*
X8317801Y-16299793D01*
X8317801Y-16299793D02*
X8308277Y-16337888D01*
X8308277Y-16337888D02*
X8298753Y-16356936D01*
X8298753Y-16356936D02*
X8289229Y-16366460D01*
X8289229Y-16366460D02*
X8270182Y-16375984D01*
X8270182Y-16375984D02*
X8251134Y-16375984D01*
X8251134Y-16375984D02*
X8232086Y-16366460D01*
X8232086Y-16366460D02*
X8222563Y-16356936D01*
X8222563Y-16356936D02*
X8213039Y-16337888D01*
X8213039Y-16337888D02*
X8203515Y-16299793D01*
X8203515Y-16299793D02*
X8203515Y-16252174D01*
X8203515Y-16252174D02*
X8213039Y-16214079D01*
X8213039Y-16214079D02*
X8222563Y-16195031D01*
X8222563Y-16195031D02*
X8232086Y-16185508D01*
X8232086Y-16185508D02*
X8251134Y-16175984D01*
X8403515Y-16356936D02*
X8413039Y-16366460D01*
X8413039Y-16366460D02*
X8403515Y-16375984D01*
X8403515Y-16375984D02*
X8393991Y-16366460D01*
X8393991Y-16366460D02*
X8403515Y-16356936D01*
X8403515Y-16356936D02*
X8403515Y-16375984D01*
X8536848Y-16175984D02*
X8555896Y-16175984D01*
X8555896Y-16175984D02*
X8574944Y-16185508D01*
X8574944Y-16185508D02*
X8584468Y-16195031D01*
X8584468Y-16195031D02*
X8593991Y-16214079D01*
X8593991Y-16214079D02*
X8603515Y-16252174D01*
X8603515Y-16252174D02*
X8603515Y-16299793D01*
X8603515Y-16299793D02*
X8593991Y-16337888D01*
X8593991Y-16337888D02*
X8584468Y-16356936D01*
X8584468Y-16356936D02*
X8574944Y-16366460D01*
X8574944Y-16366460D02*
X8555896Y-16375984D01*
X8555896Y-16375984D02*
X8536848Y-16375984D01*
X8536848Y-16375984D02*
X8517801Y-16366460D01*
X8517801Y-16366460D02*
X8508277Y-16356936D01*
X8508277Y-16356936D02*
X8498753Y-16337888D01*
X8498753Y-16337888D02*
X8489229Y-16299793D01*
X8489229Y-16299793D02*
X8489229Y-16252174D01*
X8489229Y-16252174D02*
X8498753Y-16214079D01*
X8498753Y-16214079D02*
X8508277Y-16195031D01*
X8508277Y-16195031D02*
X8517801Y-16185508D01*
X8517801Y-16185508D02*
X8536848Y-16175984D01*
X8670182Y-16175984D02*
X8793991Y-16175984D01*
X8793991Y-16175984D02*
X8727325Y-16252174D01*
X8727325Y-16252174D02*
X8755896Y-16252174D01*
X8755896Y-16252174D02*
X8774944Y-16261698D01*
X8774944Y-16261698D02*
X8784468Y-16271222D01*
X8784468Y-16271222D02*
X8793991Y-16290269D01*
X8793991Y-16290269D02*
X8793991Y-16337888D01*
X8793991Y-16337888D02*
X8784468Y-16356936D01*
X8784468Y-16356936D02*
X8774944Y-16366460D01*
X8774944Y-16366460D02*
X8755896Y-16375984D01*
X8755896Y-16375984D02*
X8698753Y-16375984D01*
X8698753Y-16375984D02*
X8679706Y-16366460D01*
X8679706Y-16366460D02*
X8670182Y-16356936D01*
X8974944Y-16175984D02*
X8879706Y-16175984D01*
X8879706Y-16175984D02*
X8870182Y-16271222D01*
X8870182Y-16271222D02*
X8879706Y-16261698D01*
X8879706Y-16261698D02*
X8898753Y-16252174D01*
X8898753Y-16252174D02*
X8946372Y-16252174D01*
X8946372Y-16252174D02*
X8965420Y-16261698D01*
X8965420Y-16261698D02*
X8974944Y-16271222D01*
X8974944Y-16271222D02*
X8984468Y-16290269D01*
X8984468Y-16290269D02*
X8984468Y-16337888D01*
X8984468Y-16337888D02*
X8974944Y-16356936D01*
X8974944Y-16356936D02*
X8965420Y-16366460D01*
X8965420Y-16366460D02*
X8946372Y-16375984D01*
X8946372Y-16375984D02*
X8898753Y-16375984D01*
X8898753Y-16375984D02*
X8879706Y-16366460D01*
X8879706Y-16366460D02*
X8870182Y-16356936D01*
X9155896Y-16242650D02*
X9155896Y-16375984D01*
X9108277Y-16166460D02*
X9060658Y-16309317D01*
X9060658Y-16309317D02*
X9184468Y-16309317D01*
X9251134Y-16175984D02*
X9251134Y-16214079D01*
X9327325Y-16175984D02*
X9327325Y-16214079D01*
X9622563Y-16452174D02*
X9613039Y-16442650D01*
X9613039Y-16442650D02*
X9593991Y-16414079D01*
X9593991Y-16414079D02*
X9584468Y-16395031D01*
X9584468Y-16395031D02*
X9574944Y-16366460D01*
X9574944Y-16366460D02*
X9565420Y-16318841D01*
X9565420Y-16318841D02*
X9565420Y-16280746D01*
X9565420Y-16280746D02*
X9574944Y-16233127D01*
X9574944Y-16233127D02*
X9584468Y-16204555D01*
X9584468Y-16204555D02*
X9593991Y-16185508D01*
X9593991Y-16185508D02*
X9613039Y-16156936D01*
X9613039Y-16156936D02*
X9622563Y-16147412D01*
X9689230Y-16195031D02*
X9698753Y-16185508D01*
X9698753Y-16185508D02*
X9717801Y-16175984D01*
X9717801Y-16175984D02*
X9765420Y-16175984D01*
X9765420Y-16175984D02*
X9784468Y-16185508D01*
X9784468Y-16185508D02*
X9793991Y-16195031D01*
X9793991Y-16195031D02*
X9803515Y-16214079D01*
X9803515Y-16214079D02*
X9803515Y-16233127D01*
X9803515Y-16233127D02*
X9793991Y-16261698D01*
X9793991Y-16261698D02*
X9679706Y-16375984D01*
X9679706Y-16375984D02*
X9803515Y-16375984D01*
X9974944Y-16175984D02*
X9936849Y-16175984D01*
X9936849Y-16175984D02*
X9917801Y-16185508D01*
X9917801Y-16185508D02*
X9908277Y-16195031D01*
X9908277Y-16195031D02*
X9889230Y-16223603D01*
X9889230Y-16223603D02*
X9879706Y-16261698D01*
X9879706Y-16261698D02*
X9879706Y-16337888D01*
X9879706Y-16337888D02*
X9889230Y-16356936D01*
X9889230Y-16356936D02*
X9898753Y-16366460D01*
X9898753Y-16366460D02*
X9917801Y-16375984D01*
X9917801Y-16375984D02*
X9955896Y-16375984D01*
X9955896Y-16375984D02*
X9974944Y-16366460D01*
X9974944Y-16366460D02*
X9984468Y-16356936D01*
X9984468Y-16356936D02*
X9993991Y-16337888D01*
X9993991Y-16337888D02*
X9993991Y-16290269D01*
X9993991Y-16290269D02*
X9984468Y-16271222D01*
X9984468Y-16271222D02*
X9974944Y-16261698D01*
X9974944Y-16261698D02*
X9955896Y-16252174D01*
X9955896Y-16252174D02*
X9917801Y-16252174D01*
X9917801Y-16252174D02*
X9898753Y-16261698D01*
X9898753Y-16261698D02*
X9889230Y-16271222D01*
X9889230Y-16271222D02*
X9879706Y-16290269D01*
X10232087Y-16375984D02*
X10232087Y-16175984D01*
X10317801Y-16375984D02*
X10317801Y-16271222D01*
X10317801Y-16271222D02*
X10308277Y-16252174D01*
X10308277Y-16252174D02*
X10289230Y-16242650D01*
X10289230Y-16242650D02*
X10260658Y-16242650D01*
X10260658Y-16242650D02*
X10241611Y-16252174D01*
X10241611Y-16252174D02*
X10232087Y-16261698D01*
X10441611Y-16375984D02*
X10422563Y-16366460D01*
X10422563Y-16366460D02*
X10413039Y-16356936D01*
X10413039Y-16356936D02*
X10403515Y-16337888D01*
X10403515Y-16337888D02*
X10403515Y-16280746D01*
X10403515Y-16280746D02*
X10413039Y-16261698D01*
X10413039Y-16261698D02*
X10422563Y-16252174D01*
X10422563Y-16252174D02*
X10441611Y-16242650D01*
X10441611Y-16242650D02*
X10470182Y-16242650D01*
X10470182Y-16242650D02*
X10489230Y-16252174D01*
X10489230Y-16252174D02*
X10498753Y-16261698D01*
X10498753Y-16261698D02*
X10508277Y-16280746D01*
X10508277Y-16280746D02*
X10508277Y-16337888D01*
X10508277Y-16337888D02*
X10498753Y-16356936D01*
X10498753Y-16356936D02*
X10489230Y-16366460D01*
X10489230Y-16366460D02*
X10470182Y-16375984D01*
X10470182Y-16375984D02*
X10441611Y-16375984D01*
X10622563Y-16375984D02*
X10603515Y-16366460D01*
X10603515Y-16366460D02*
X10593992Y-16347412D01*
X10593992Y-16347412D02*
X10593992Y-16175984D01*
X10774944Y-16366460D02*
X10755896Y-16375984D01*
X10755896Y-16375984D02*
X10717801Y-16375984D01*
X10717801Y-16375984D02*
X10698753Y-16366460D01*
X10698753Y-16366460D02*
X10689230Y-16347412D01*
X10689230Y-16347412D02*
X10689230Y-16271222D01*
X10689230Y-16271222D02*
X10698753Y-16252174D01*
X10698753Y-16252174D02*
X10717801Y-16242650D01*
X10717801Y-16242650D02*
X10755896Y-16242650D01*
X10755896Y-16242650D02*
X10774944Y-16252174D01*
X10774944Y-16252174D02*
X10784468Y-16271222D01*
X10784468Y-16271222D02*
X10784468Y-16290269D01*
X10784468Y-16290269D02*
X10689230Y-16309317D01*
X10860658Y-16366460D02*
X10879706Y-16375984D01*
X10879706Y-16375984D02*
X10917801Y-16375984D01*
X10917801Y-16375984D02*
X10936849Y-16366460D01*
X10936849Y-16366460D02*
X10946373Y-16347412D01*
X10946373Y-16347412D02*
X10946373Y-16337888D01*
X10946373Y-16337888D02*
X10936849Y-16318841D01*
X10936849Y-16318841D02*
X10917801Y-16309317D01*
X10917801Y-16309317D02*
X10889230Y-16309317D01*
X10889230Y-16309317D02*
X10870182Y-16299793D01*
X10870182Y-16299793D02*
X10860658Y-16280746D01*
X10860658Y-16280746D02*
X10860658Y-16271222D01*
X10860658Y-16271222D02*
X10870182Y-16252174D01*
X10870182Y-16252174D02*
X10889230Y-16242650D01*
X10889230Y-16242650D02*
X10917801Y-16242650D01*
X10917801Y-16242650D02*
X10936849Y-16252174D01*
X11013039Y-16452174D02*
X11022563Y-16442650D01*
X11022563Y-16442650D02*
X11041611Y-16414079D01*
X11041611Y-16414079D02*
X11051134Y-16395031D01*
X11051134Y-16395031D02*
X11060658Y-16366460D01*
X11060658Y-16366460D02*
X11070182Y-16318841D01*
X11070182Y-16318841D02*
X11070182Y-16280746D01*
X11070182Y-16280746D02*
X11060658Y-16233127D01*
X11060658Y-16233127D02*
X11051134Y-16204555D01*
X11051134Y-16204555D02*
X11041611Y-16185508D01*
X11041611Y-16185508D02*
X11022563Y-16156936D01*
X11022563Y-16156936D02*
X11013039Y-16147412D01*
D12*
X5997500Y-16598500D02*
X6047500Y-16548500D01*
X5997500Y-16498500D01*
X5947500Y-16548500D01*
X5997500Y-16598500D01*
D11*
X6413039Y-16639984D02*
X6298753Y-16639984D01*
X6355896Y-16639984D02*
X6355896Y-16439984D01*
X6355896Y-16439984D02*
X6336848Y-16468555D01*
X6336848Y-16468555D02*
X6317801Y-16487603D01*
X6317801Y-16487603D02*
X6298753Y-16497127D01*
X6498753Y-16620936D02*
X6508277Y-16630460D01*
X6508277Y-16630460D02*
X6498753Y-16639984D01*
X6498753Y-16639984D02*
X6489229Y-16630460D01*
X6489229Y-16630460D02*
X6498753Y-16620936D01*
X6498753Y-16620936D02*
X6498753Y-16639984D01*
X6632086Y-16439984D02*
X6651134Y-16439984D01*
X6651134Y-16439984D02*
X6670182Y-16449508D01*
X6670182Y-16449508D02*
X6679705Y-16459031D01*
X6679705Y-16459031D02*
X6689229Y-16478079D01*
X6689229Y-16478079D02*
X6698753Y-16516174D01*
X6698753Y-16516174D02*
X6698753Y-16563793D01*
X6698753Y-16563793D02*
X6689229Y-16601888D01*
X6689229Y-16601888D02*
X6679705Y-16620936D01*
X6679705Y-16620936D02*
X6670182Y-16630460D01*
X6670182Y-16630460D02*
X6651134Y-16639984D01*
X6651134Y-16639984D02*
X6632086Y-16639984D01*
X6632086Y-16639984D02*
X6613039Y-16630460D01*
X6613039Y-16630460D02*
X6603515Y-16620936D01*
X6603515Y-16620936D02*
X6593991Y-16601888D01*
X6593991Y-16601888D02*
X6584467Y-16563793D01*
X6584467Y-16563793D02*
X6584467Y-16516174D01*
X6584467Y-16516174D02*
X6593991Y-16478079D01*
X6593991Y-16478079D02*
X6603515Y-16459031D01*
X6603515Y-16459031D02*
X6613039Y-16449508D01*
X6613039Y-16449508D02*
X6632086Y-16439984D01*
X6822562Y-16439984D02*
X6841610Y-16439984D01*
X6841610Y-16439984D02*
X6860658Y-16449508D01*
X6860658Y-16449508D02*
X6870182Y-16459031D01*
X6870182Y-16459031D02*
X6879705Y-16478079D01*
X6879705Y-16478079D02*
X6889229Y-16516174D01*
X6889229Y-16516174D02*
X6889229Y-16563793D01*
X6889229Y-16563793D02*
X6879705Y-16601888D01*
X6879705Y-16601888D02*
X6870182Y-16620936D01*
X6870182Y-16620936D02*
X6860658Y-16630460D01*
X6860658Y-16630460D02*
X6841610Y-16639984D01*
X6841610Y-16639984D02*
X6822562Y-16639984D01*
X6822562Y-16639984D02*
X6803515Y-16630460D01*
X6803515Y-16630460D02*
X6793991Y-16620936D01*
X6793991Y-16620936D02*
X6784467Y-16601888D01*
X6784467Y-16601888D02*
X6774943Y-16563793D01*
X6774943Y-16563793D02*
X6774943Y-16516174D01*
X6774943Y-16516174D02*
X6784467Y-16478079D01*
X6784467Y-16478079D02*
X6793991Y-16459031D01*
X6793991Y-16459031D02*
X6803515Y-16449508D01*
X6803515Y-16449508D02*
X6822562Y-16439984D01*
X7013039Y-16439984D02*
X7032086Y-16439984D01*
X7032086Y-16439984D02*
X7051134Y-16449508D01*
X7051134Y-16449508D02*
X7060658Y-16459031D01*
X7060658Y-16459031D02*
X7070182Y-16478079D01*
X7070182Y-16478079D02*
X7079705Y-16516174D01*
X7079705Y-16516174D02*
X7079705Y-16563793D01*
X7079705Y-16563793D02*
X7070182Y-16601888D01*
X7070182Y-16601888D02*
X7060658Y-16620936D01*
X7060658Y-16620936D02*
X7051134Y-16630460D01*
X7051134Y-16630460D02*
X7032086Y-16639984D01*
X7032086Y-16639984D02*
X7013039Y-16639984D01*
X7013039Y-16639984D02*
X6993991Y-16630460D01*
X6993991Y-16630460D02*
X6984467Y-16620936D01*
X6984467Y-16620936D02*
X6974943Y-16601888D01*
X6974943Y-16601888D02*
X6965420Y-16563793D01*
X6965420Y-16563793D02*
X6965420Y-16516174D01*
X6965420Y-16516174D02*
X6974943Y-16478079D01*
X6974943Y-16478079D02*
X6984467Y-16459031D01*
X6984467Y-16459031D02*
X6993991Y-16449508D01*
X6993991Y-16449508D02*
X7013039Y-16439984D01*
X7165420Y-16639984D02*
X7165420Y-16506650D01*
X7165420Y-16525698D02*
X7174943Y-16516174D01*
X7174943Y-16516174D02*
X7193991Y-16506650D01*
X7193991Y-16506650D02*
X7222563Y-16506650D01*
X7222563Y-16506650D02*
X7241610Y-16516174D01*
X7241610Y-16516174D02*
X7251134Y-16535222D01*
X7251134Y-16535222D02*
X7251134Y-16639984D01*
X7251134Y-16535222D02*
X7260658Y-16516174D01*
X7260658Y-16516174D02*
X7279705Y-16506650D01*
X7279705Y-16506650D02*
X7308277Y-16506650D01*
X7308277Y-16506650D02*
X7327324Y-16516174D01*
X7327324Y-16516174D02*
X7336848Y-16535222D01*
X7336848Y-16535222D02*
X7336848Y-16639984D01*
X7432086Y-16639984D02*
X7432086Y-16506650D01*
X7432086Y-16525698D02*
X7441610Y-16516174D01*
X7441610Y-16516174D02*
X7460658Y-16506650D01*
X7460658Y-16506650D02*
X7489229Y-16506650D01*
X7489229Y-16506650D02*
X7508277Y-16516174D01*
X7508277Y-16516174D02*
X7517801Y-16535222D01*
X7517801Y-16535222D02*
X7517801Y-16639984D01*
X7517801Y-16535222D02*
X7527324Y-16516174D01*
X7527324Y-16516174D02*
X7546372Y-16506650D01*
X7546372Y-16506650D02*
X7574943Y-16506650D01*
X7574943Y-16506650D02*
X7593991Y-16516174D01*
X7593991Y-16516174D02*
X7603515Y-16535222D01*
X7603515Y-16535222D02*
X7603515Y-16639984D01*
X7993991Y-16430460D02*
X7822563Y-16687603D01*
X8251134Y-16439984D02*
X8270182Y-16439984D01*
X8270182Y-16439984D02*
X8289229Y-16449508D01*
X8289229Y-16449508D02*
X8298753Y-16459031D01*
X8298753Y-16459031D02*
X8308277Y-16478079D01*
X8308277Y-16478079D02*
X8317801Y-16516174D01*
X8317801Y-16516174D02*
X8317801Y-16563793D01*
X8317801Y-16563793D02*
X8308277Y-16601888D01*
X8308277Y-16601888D02*
X8298753Y-16620936D01*
X8298753Y-16620936D02*
X8289229Y-16630460D01*
X8289229Y-16630460D02*
X8270182Y-16639984D01*
X8270182Y-16639984D02*
X8251134Y-16639984D01*
X8251134Y-16639984D02*
X8232086Y-16630460D01*
X8232086Y-16630460D02*
X8222563Y-16620936D01*
X8222563Y-16620936D02*
X8213039Y-16601888D01*
X8213039Y-16601888D02*
X8203515Y-16563793D01*
X8203515Y-16563793D02*
X8203515Y-16516174D01*
X8203515Y-16516174D02*
X8213039Y-16478079D01*
X8213039Y-16478079D02*
X8222563Y-16459031D01*
X8222563Y-16459031D02*
X8232086Y-16449508D01*
X8232086Y-16449508D02*
X8251134Y-16439984D01*
X8403515Y-16620936D02*
X8413039Y-16630460D01*
X8413039Y-16630460D02*
X8403515Y-16639984D01*
X8403515Y-16639984D02*
X8393991Y-16630460D01*
X8393991Y-16630460D02*
X8403515Y-16620936D01*
X8403515Y-16620936D02*
X8403515Y-16639984D01*
X8536848Y-16439984D02*
X8555896Y-16439984D01*
X8555896Y-16439984D02*
X8574944Y-16449508D01*
X8574944Y-16449508D02*
X8584468Y-16459031D01*
X8584468Y-16459031D02*
X8593991Y-16478079D01*
X8593991Y-16478079D02*
X8603515Y-16516174D01*
X8603515Y-16516174D02*
X8603515Y-16563793D01*
X8603515Y-16563793D02*
X8593991Y-16601888D01*
X8593991Y-16601888D02*
X8584468Y-16620936D01*
X8584468Y-16620936D02*
X8574944Y-16630460D01*
X8574944Y-16630460D02*
X8555896Y-16639984D01*
X8555896Y-16639984D02*
X8536848Y-16639984D01*
X8536848Y-16639984D02*
X8517801Y-16630460D01*
X8517801Y-16630460D02*
X8508277Y-16620936D01*
X8508277Y-16620936D02*
X8498753Y-16601888D01*
X8498753Y-16601888D02*
X8489229Y-16563793D01*
X8489229Y-16563793D02*
X8489229Y-16516174D01*
X8489229Y-16516174D02*
X8498753Y-16478079D01*
X8498753Y-16478079D02*
X8508277Y-16459031D01*
X8508277Y-16459031D02*
X8517801Y-16449508D01*
X8517801Y-16449508D02*
X8536848Y-16439984D01*
X8670182Y-16439984D02*
X8793991Y-16439984D01*
X8793991Y-16439984D02*
X8727325Y-16516174D01*
X8727325Y-16516174D02*
X8755896Y-16516174D01*
X8755896Y-16516174D02*
X8774944Y-16525698D01*
X8774944Y-16525698D02*
X8784468Y-16535222D01*
X8784468Y-16535222D02*
X8793991Y-16554269D01*
X8793991Y-16554269D02*
X8793991Y-16601888D01*
X8793991Y-16601888D02*
X8784468Y-16620936D01*
X8784468Y-16620936D02*
X8774944Y-16630460D01*
X8774944Y-16630460D02*
X8755896Y-16639984D01*
X8755896Y-16639984D02*
X8698753Y-16639984D01*
X8698753Y-16639984D02*
X8679706Y-16630460D01*
X8679706Y-16630460D02*
X8670182Y-16620936D01*
X8889229Y-16639984D02*
X8927325Y-16639984D01*
X8927325Y-16639984D02*
X8946372Y-16630460D01*
X8946372Y-16630460D02*
X8955896Y-16620936D01*
X8955896Y-16620936D02*
X8974944Y-16592365D01*
X8974944Y-16592365D02*
X8984468Y-16554269D01*
X8984468Y-16554269D02*
X8984468Y-16478079D01*
X8984468Y-16478079D02*
X8974944Y-16459031D01*
X8974944Y-16459031D02*
X8965420Y-16449508D01*
X8965420Y-16449508D02*
X8946372Y-16439984D01*
X8946372Y-16439984D02*
X8908277Y-16439984D01*
X8908277Y-16439984D02*
X8889229Y-16449508D01*
X8889229Y-16449508D02*
X8879706Y-16459031D01*
X8879706Y-16459031D02*
X8870182Y-16478079D01*
X8870182Y-16478079D02*
X8870182Y-16525698D01*
X8870182Y-16525698D02*
X8879706Y-16544746D01*
X8879706Y-16544746D02*
X8889229Y-16554269D01*
X8889229Y-16554269D02*
X8908277Y-16563793D01*
X8908277Y-16563793D02*
X8946372Y-16563793D01*
X8946372Y-16563793D02*
X8965420Y-16554269D01*
X8965420Y-16554269D02*
X8974944Y-16544746D01*
X8974944Y-16544746D02*
X8984468Y-16525698D01*
X9155896Y-16506650D02*
X9155896Y-16639984D01*
X9108277Y-16430460D02*
X9060658Y-16573317D01*
X9060658Y-16573317D02*
X9184468Y-16573317D01*
X9251134Y-16439984D02*
X9251134Y-16478079D01*
X9327325Y-16439984D02*
X9327325Y-16478079D01*
X9622563Y-16716174D02*
X9613039Y-16706650D01*
X9613039Y-16706650D02*
X9593991Y-16678079D01*
X9593991Y-16678079D02*
X9584468Y-16659031D01*
X9584468Y-16659031D02*
X9574944Y-16630460D01*
X9574944Y-16630460D02*
X9565420Y-16582841D01*
X9565420Y-16582841D02*
X9565420Y-16544746D01*
X9565420Y-16544746D02*
X9574944Y-16497127D01*
X9574944Y-16497127D02*
X9584468Y-16468555D01*
X9584468Y-16468555D02*
X9593991Y-16449508D01*
X9593991Y-16449508D02*
X9613039Y-16420936D01*
X9613039Y-16420936D02*
X9622563Y-16411412D01*
X9784468Y-16506650D02*
X9784468Y-16639984D01*
X9736849Y-16430460D02*
X9689230Y-16573317D01*
X9689230Y-16573317D02*
X9813039Y-16573317D01*
X9984468Y-16439984D02*
X9889230Y-16439984D01*
X9889230Y-16439984D02*
X9879706Y-16535222D01*
X9879706Y-16535222D02*
X9889230Y-16525698D01*
X9889230Y-16525698D02*
X9908277Y-16516174D01*
X9908277Y-16516174D02*
X9955896Y-16516174D01*
X9955896Y-16516174D02*
X9974944Y-16525698D01*
X9974944Y-16525698D02*
X9984468Y-16535222D01*
X9984468Y-16535222D02*
X9993991Y-16554269D01*
X9993991Y-16554269D02*
X9993991Y-16601888D01*
X9993991Y-16601888D02*
X9984468Y-16620936D01*
X9984468Y-16620936D02*
X9974944Y-16630460D01*
X9974944Y-16630460D02*
X9955896Y-16639984D01*
X9955896Y-16639984D02*
X9908277Y-16639984D01*
X9908277Y-16639984D02*
X9889230Y-16630460D01*
X9889230Y-16630460D02*
X9879706Y-16620936D01*
X10232087Y-16639984D02*
X10232087Y-16439984D01*
X10317801Y-16639984D02*
X10317801Y-16535222D01*
X10317801Y-16535222D02*
X10308277Y-16516174D01*
X10308277Y-16516174D02*
X10289230Y-16506650D01*
X10289230Y-16506650D02*
X10260658Y-16506650D01*
X10260658Y-16506650D02*
X10241611Y-16516174D01*
X10241611Y-16516174D02*
X10232087Y-16525698D01*
X10441611Y-16639984D02*
X10422563Y-16630460D01*
X10422563Y-16630460D02*
X10413039Y-16620936D01*
X10413039Y-16620936D02*
X10403515Y-16601888D01*
X10403515Y-16601888D02*
X10403515Y-16544746D01*
X10403515Y-16544746D02*
X10413039Y-16525698D01*
X10413039Y-16525698D02*
X10422563Y-16516174D01*
X10422563Y-16516174D02*
X10441611Y-16506650D01*
X10441611Y-16506650D02*
X10470182Y-16506650D01*
X10470182Y-16506650D02*
X10489230Y-16516174D01*
X10489230Y-16516174D02*
X10498753Y-16525698D01*
X10498753Y-16525698D02*
X10508277Y-16544746D01*
X10508277Y-16544746D02*
X10508277Y-16601888D01*
X10508277Y-16601888D02*
X10498753Y-16620936D01*
X10498753Y-16620936D02*
X10489230Y-16630460D01*
X10489230Y-16630460D02*
X10470182Y-16639984D01*
X10470182Y-16639984D02*
X10441611Y-16639984D01*
X10622563Y-16639984D02*
X10603515Y-16630460D01*
X10603515Y-16630460D02*
X10593992Y-16611412D01*
X10593992Y-16611412D02*
X10593992Y-16439984D01*
X10774944Y-16630460D02*
X10755896Y-16639984D01*
X10755896Y-16639984D02*
X10717801Y-16639984D01*
X10717801Y-16639984D02*
X10698753Y-16630460D01*
X10698753Y-16630460D02*
X10689230Y-16611412D01*
X10689230Y-16611412D02*
X10689230Y-16535222D01*
X10689230Y-16535222D02*
X10698753Y-16516174D01*
X10698753Y-16516174D02*
X10717801Y-16506650D01*
X10717801Y-16506650D02*
X10755896Y-16506650D01*
X10755896Y-16506650D02*
X10774944Y-16516174D01*
X10774944Y-16516174D02*
X10784468Y-16535222D01*
X10784468Y-16535222D02*
X10784468Y-16554269D01*
X10784468Y-16554269D02*
X10689230Y-16573317D01*
X10860658Y-16630460D02*
X10879706Y-16639984D01*
X10879706Y-16639984D02*
X10917801Y-16639984D01*
X10917801Y-16639984D02*
X10936849Y-16630460D01*
X10936849Y-16630460D02*
X10946373Y-16611412D01*
X10946373Y-16611412D02*
X10946373Y-16601888D01*
X10946373Y-16601888D02*
X10936849Y-16582841D01*
X10936849Y-16582841D02*
X10917801Y-16573317D01*
X10917801Y-16573317D02*
X10889230Y-16573317D01*
X10889230Y-16573317D02*
X10870182Y-16563793D01*
X10870182Y-16563793D02*
X10860658Y-16544746D01*
X10860658Y-16544746D02*
X10860658Y-16535222D01*
X10860658Y-16535222D02*
X10870182Y-16516174D01*
X10870182Y-16516174D02*
X10889230Y-16506650D01*
X10889230Y-16506650D02*
X10917801Y-16506650D01*
X10917801Y-16506650D02*
X10936849Y-16516174D01*
X11013039Y-16716174D02*
X11022563Y-16706650D01*
X11022563Y-16706650D02*
X11041611Y-16678079D01*
X11041611Y-16678079D02*
X11051134Y-16659031D01*
X11051134Y-16659031D02*
X11060658Y-16630460D01*
X11060658Y-16630460D02*
X11070182Y-16582841D01*
X11070182Y-16582841D02*
X11070182Y-16544746D01*
X11070182Y-16544746D02*
X11060658Y-16497127D01*
X11060658Y-16497127D02*
X11051134Y-16468555D01*
X11051134Y-16468555D02*
X11041611Y-16449508D01*
X11041611Y-16449508D02*
X11022563Y-16420936D01*
X11022563Y-16420936D02*
X11013039Y-16411412D01*
D13*
X5945900Y-16761700D02*
X6047500Y-16863300D01*
X6047500Y-16761700D02*
X5945900Y-16863300D01*
X6047500Y-16812500D02*
G75*
G02*
X5945900Y-16812500I-50800J0D01*
G01*
X5945900Y-16812500D02*
G75*
G02*
X6047500Y-16812500I50800J0D01*
G01*
D11*
X6413039Y-16903984D02*
X6298753Y-16903984D01*
X6355896Y-16903984D02*
X6355896Y-16703984D01*
X6355896Y-16703984D02*
X6336848Y-16732555D01*
X6336848Y-16732555D02*
X6317801Y-16751603D01*
X6317801Y-16751603D02*
X6298753Y-16761127D01*
X6498753Y-16884936D02*
X6508277Y-16894460D01*
X6508277Y-16894460D02*
X6498753Y-16903984D01*
X6498753Y-16903984D02*
X6489229Y-16894460D01*
X6489229Y-16894460D02*
X6498753Y-16884936D01*
X6498753Y-16884936D02*
X6498753Y-16903984D01*
X6632086Y-16703984D02*
X6651134Y-16703984D01*
X6651134Y-16703984D02*
X6670182Y-16713508D01*
X6670182Y-16713508D02*
X6679705Y-16723031D01*
X6679705Y-16723031D02*
X6689229Y-16742079D01*
X6689229Y-16742079D02*
X6698753Y-16780174D01*
X6698753Y-16780174D02*
X6698753Y-16827793D01*
X6698753Y-16827793D02*
X6689229Y-16865889D01*
X6689229Y-16865889D02*
X6679705Y-16884936D01*
X6679705Y-16884936D02*
X6670182Y-16894460D01*
X6670182Y-16894460D02*
X6651134Y-16903984D01*
X6651134Y-16903984D02*
X6632086Y-16903984D01*
X6632086Y-16903984D02*
X6613039Y-16894460D01*
X6613039Y-16894460D02*
X6603515Y-16884936D01*
X6603515Y-16884936D02*
X6593991Y-16865889D01*
X6593991Y-16865889D02*
X6584467Y-16827793D01*
X6584467Y-16827793D02*
X6584467Y-16780174D01*
X6584467Y-16780174D02*
X6593991Y-16742079D01*
X6593991Y-16742079D02*
X6603515Y-16723031D01*
X6603515Y-16723031D02*
X6613039Y-16713508D01*
X6613039Y-16713508D02*
X6632086Y-16703984D01*
X6889229Y-16903984D02*
X6774943Y-16903984D01*
X6832086Y-16903984D02*
X6832086Y-16703984D01*
X6832086Y-16703984D02*
X6813039Y-16732555D01*
X6813039Y-16732555D02*
X6793991Y-16751603D01*
X6793991Y-16751603D02*
X6774943Y-16761127D01*
X7060658Y-16703984D02*
X7022562Y-16703984D01*
X7022562Y-16703984D02*
X7003515Y-16713508D01*
X7003515Y-16713508D02*
X6993991Y-16723031D01*
X6993991Y-16723031D02*
X6974943Y-16751603D01*
X6974943Y-16751603D02*
X6965420Y-16789698D01*
X6965420Y-16789698D02*
X6965420Y-16865889D01*
X6965420Y-16865889D02*
X6974943Y-16884936D01*
X6974943Y-16884936D02*
X6984467Y-16894460D01*
X6984467Y-16894460D02*
X7003515Y-16903984D01*
X7003515Y-16903984D02*
X7041610Y-16903984D01*
X7041610Y-16903984D02*
X7060658Y-16894460D01*
X7060658Y-16894460D02*
X7070182Y-16884936D01*
X7070182Y-16884936D02*
X7079705Y-16865889D01*
X7079705Y-16865889D02*
X7079705Y-16818270D01*
X7079705Y-16818270D02*
X7070182Y-16799222D01*
X7070182Y-16799222D02*
X7060658Y-16789698D01*
X7060658Y-16789698D02*
X7041610Y-16780174D01*
X7041610Y-16780174D02*
X7003515Y-16780174D01*
X7003515Y-16780174D02*
X6984467Y-16789698D01*
X6984467Y-16789698D02*
X6974943Y-16799222D01*
X6974943Y-16799222D02*
X6965420Y-16818270D01*
X7165420Y-16903984D02*
X7165420Y-16770650D01*
X7165420Y-16789698D02*
X7174943Y-16780174D01*
X7174943Y-16780174D02*
X7193991Y-16770650D01*
X7193991Y-16770650D02*
X7222563Y-16770650D01*
X7222563Y-16770650D02*
X7241610Y-16780174D01*
X7241610Y-16780174D02*
X7251134Y-16799222D01*
X7251134Y-16799222D02*
X7251134Y-16903984D01*
X7251134Y-16799222D02*
X7260658Y-16780174D01*
X7260658Y-16780174D02*
X7279705Y-16770650D01*
X7279705Y-16770650D02*
X7308277Y-16770650D01*
X7308277Y-16770650D02*
X7327324Y-16780174D01*
X7327324Y-16780174D02*
X7336848Y-16799222D01*
X7336848Y-16799222D02*
X7336848Y-16903984D01*
X7432086Y-16903984D02*
X7432086Y-16770650D01*
X7432086Y-16789698D02*
X7441610Y-16780174D01*
X7441610Y-16780174D02*
X7460658Y-16770650D01*
X7460658Y-16770650D02*
X7489229Y-16770650D01*
X7489229Y-16770650D02*
X7508277Y-16780174D01*
X7508277Y-16780174D02*
X7517801Y-16799222D01*
X7517801Y-16799222D02*
X7517801Y-16903984D01*
X7517801Y-16799222D02*
X7527324Y-16780174D01*
X7527324Y-16780174D02*
X7546372Y-16770650D01*
X7546372Y-16770650D02*
X7574943Y-16770650D01*
X7574943Y-16770650D02*
X7593991Y-16780174D01*
X7593991Y-16780174D02*
X7603515Y-16799222D01*
X7603515Y-16799222D02*
X7603515Y-16903984D01*
X7993991Y-16694460D02*
X7822563Y-16951603D01*
X8251134Y-16703984D02*
X8270182Y-16703984D01*
X8270182Y-16703984D02*
X8289229Y-16713508D01*
X8289229Y-16713508D02*
X8298753Y-16723031D01*
X8298753Y-16723031D02*
X8308277Y-16742079D01*
X8308277Y-16742079D02*
X8317801Y-16780174D01*
X8317801Y-16780174D02*
X8317801Y-16827793D01*
X8317801Y-16827793D02*
X8308277Y-16865889D01*
X8308277Y-16865889D02*
X8298753Y-16884936D01*
X8298753Y-16884936D02*
X8289229Y-16894460D01*
X8289229Y-16894460D02*
X8270182Y-16903984D01*
X8270182Y-16903984D02*
X8251134Y-16903984D01*
X8251134Y-16903984D02*
X8232086Y-16894460D01*
X8232086Y-16894460D02*
X8222563Y-16884936D01*
X8222563Y-16884936D02*
X8213039Y-16865889D01*
X8213039Y-16865889D02*
X8203515Y-16827793D01*
X8203515Y-16827793D02*
X8203515Y-16780174D01*
X8203515Y-16780174D02*
X8213039Y-16742079D01*
X8213039Y-16742079D02*
X8222563Y-16723031D01*
X8222563Y-16723031D02*
X8232086Y-16713508D01*
X8232086Y-16713508D02*
X8251134Y-16703984D01*
X8403515Y-16884936D02*
X8413039Y-16894460D01*
X8413039Y-16894460D02*
X8403515Y-16903984D01*
X8403515Y-16903984D02*
X8393991Y-16894460D01*
X8393991Y-16894460D02*
X8403515Y-16884936D01*
X8403515Y-16884936D02*
X8403515Y-16903984D01*
X8536848Y-16703984D02*
X8555896Y-16703984D01*
X8555896Y-16703984D02*
X8574944Y-16713508D01*
X8574944Y-16713508D02*
X8584468Y-16723031D01*
X8584468Y-16723031D02*
X8593991Y-16742079D01*
X8593991Y-16742079D02*
X8603515Y-16780174D01*
X8603515Y-16780174D02*
X8603515Y-16827793D01*
X8603515Y-16827793D02*
X8593991Y-16865889D01*
X8593991Y-16865889D02*
X8584468Y-16884936D01*
X8584468Y-16884936D02*
X8574944Y-16894460D01*
X8574944Y-16894460D02*
X8555896Y-16903984D01*
X8555896Y-16903984D02*
X8536848Y-16903984D01*
X8536848Y-16903984D02*
X8517801Y-16894460D01*
X8517801Y-16894460D02*
X8508277Y-16884936D01*
X8508277Y-16884936D02*
X8498753Y-16865889D01*
X8498753Y-16865889D02*
X8489229Y-16827793D01*
X8489229Y-16827793D02*
X8489229Y-16780174D01*
X8489229Y-16780174D02*
X8498753Y-16742079D01*
X8498753Y-16742079D02*
X8508277Y-16723031D01*
X8508277Y-16723031D02*
X8517801Y-16713508D01*
X8517801Y-16713508D02*
X8536848Y-16703984D01*
X8774944Y-16770650D02*
X8774944Y-16903984D01*
X8727325Y-16694460D02*
X8679706Y-16837317D01*
X8679706Y-16837317D02*
X8803515Y-16837317D01*
X8917801Y-16703984D02*
X8936849Y-16703984D01*
X8936849Y-16703984D02*
X8955896Y-16713508D01*
X8955896Y-16713508D02*
X8965420Y-16723031D01*
X8965420Y-16723031D02*
X8974944Y-16742079D01*
X8974944Y-16742079D02*
X8984468Y-16780174D01*
X8984468Y-16780174D02*
X8984468Y-16827793D01*
X8984468Y-16827793D02*
X8974944Y-16865889D01*
X8974944Y-16865889D02*
X8965420Y-16884936D01*
X8965420Y-16884936D02*
X8955896Y-16894460D01*
X8955896Y-16894460D02*
X8936849Y-16903984D01*
X8936849Y-16903984D02*
X8917801Y-16903984D01*
X8917801Y-16903984D02*
X8898753Y-16894460D01*
X8898753Y-16894460D02*
X8889229Y-16884936D01*
X8889229Y-16884936D02*
X8879706Y-16865889D01*
X8879706Y-16865889D02*
X8870182Y-16827793D01*
X8870182Y-16827793D02*
X8870182Y-16780174D01*
X8870182Y-16780174D02*
X8879706Y-16742079D01*
X8879706Y-16742079D02*
X8889229Y-16723031D01*
X8889229Y-16723031D02*
X8898753Y-16713508D01*
X8898753Y-16713508D02*
X8917801Y-16703984D01*
X9108277Y-16703984D02*
X9127325Y-16703984D01*
X9127325Y-16703984D02*
X9146372Y-16713508D01*
X9146372Y-16713508D02*
X9155896Y-16723031D01*
X9155896Y-16723031D02*
X9165420Y-16742079D01*
X9165420Y-16742079D02*
X9174944Y-16780174D01*
X9174944Y-16780174D02*
X9174944Y-16827793D01*
X9174944Y-16827793D02*
X9165420Y-16865889D01*
X9165420Y-16865889D02*
X9155896Y-16884936D01*
X9155896Y-16884936D02*
X9146372Y-16894460D01*
X9146372Y-16894460D02*
X9127325Y-16903984D01*
X9127325Y-16903984D02*
X9108277Y-16903984D01*
X9108277Y-16903984D02*
X9089229Y-16894460D01*
X9089229Y-16894460D02*
X9079706Y-16884936D01*
X9079706Y-16884936D02*
X9070182Y-16865889D01*
X9070182Y-16865889D02*
X9060658Y-16827793D01*
X9060658Y-16827793D02*
X9060658Y-16780174D01*
X9060658Y-16780174D02*
X9070182Y-16742079D01*
X9070182Y-16742079D02*
X9079706Y-16723031D01*
X9079706Y-16723031D02*
X9089229Y-16713508D01*
X9089229Y-16713508D02*
X9108277Y-16703984D01*
X9251134Y-16703984D02*
X9251134Y-16742079D01*
X9327325Y-16703984D02*
X9327325Y-16742079D01*
X9622563Y-16980174D02*
X9613039Y-16970650D01*
X9613039Y-16970650D02*
X9593991Y-16942079D01*
X9593991Y-16942079D02*
X9584468Y-16923031D01*
X9584468Y-16923031D02*
X9574944Y-16894460D01*
X9574944Y-16894460D02*
X9565420Y-16846841D01*
X9565420Y-16846841D02*
X9565420Y-16808746D01*
X9565420Y-16808746D02*
X9574944Y-16761127D01*
X9574944Y-16761127D02*
X9584468Y-16732555D01*
X9584468Y-16732555D02*
X9593991Y-16713508D01*
X9593991Y-16713508D02*
X9613039Y-16684936D01*
X9613039Y-16684936D02*
X9622563Y-16675412D01*
X9803515Y-16903984D02*
X9689230Y-16903984D01*
X9746372Y-16903984D02*
X9746372Y-16703984D01*
X9746372Y-16703984D02*
X9727325Y-16732555D01*
X9727325Y-16732555D02*
X9708277Y-16751603D01*
X9708277Y-16751603D02*
X9689230Y-16761127D01*
X9974944Y-16770650D02*
X9974944Y-16903984D01*
X9927325Y-16694460D02*
X9879706Y-16837317D01*
X9879706Y-16837317D02*
X10003515Y-16837317D01*
X10232087Y-16903984D02*
X10232087Y-16703984D01*
X10317801Y-16903984D02*
X10317801Y-16799222D01*
X10317801Y-16799222D02*
X10308277Y-16780174D01*
X10308277Y-16780174D02*
X10289230Y-16770650D01*
X10289230Y-16770650D02*
X10260658Y-16770650D01*
X10260658Y-16770650D02*
X10241611Y-16780174D01*
X10241611Y-16780174D02*
X10232087Y-16789698D01*
X10441611Y-16903984D02*
X10422563Y-16894460D01*
X10422563Y-16894460D02*
X10413039Y-16884936D01*
X10413039Y-16884936D02*
X10403515Y-16865889D01*
X10403515Y-16865889D02*
X10403515Y-16808746D01*
X10403515Y-16808746D02*
X10413039Y-16789698D01*
X10413039Y-16789698D02*
X10422563Y-16780174D01*
X10422563Y-16780174D02*
X10441611Y-16770650D01*
X10441611Y-16770650D02*
X10470182Y-16770650D01*
X10470182Y-16770650D02*
X10489230Y-16780174D01*
X10489230Y-16780174D02*
X10498753Y-16789698D01*
X10498753Y-16789698D02*
X10508277Y-16808746D01*
X10508277Y-16808746D02*
X10508277Y-16865889D01*
X10508277Y-16865889D02*
X10498753Y-16884936D01*
X10498753Y-16884936D02*
X10489230Y-16894460D01*
X10489230Y-16894460D02*
X10470182Y-16903984D01*
X10470182Y-16903984D02*
X10441611Y-16903984D01*
X10622563Y-16903984D02*
X10603515Y-16894460D01*
X10603515Y-16894460D02*
X10593992Y-16875412D01*
X10593992Y-16875412D02*
X10593992Y-16703984D01*
X10774944Y-16894460D02*
X10755896Y-16903984D01*
X10755896Y-16903984D02*
X10717801Y-16903984D01*
X10717801Y-16903984D02*
X10698753Y-16894460D01*
X10698753Y-16894460D02*
X10689230Y-16875412D01*
X10689230Y-16875412D02*
X10689230Y-16799222D01*
X10689230Y-16799222D02*
X10698753Y-16780174D01*
X10698753Y-16780174D02*
X10717801Y-16770650D01*
X10717801Y-16770650D02*
X10755896Y-16770650D01*
X10755896Y-16770650D02*
X10774944Y-16780174D01*
X10774944Y-16780174D02*
X10784468Y-16799222D01*
X10784468Y-16799222D02*
X10784468Y-16818270D01*
X10784468Y-16818270D02*
X10689230Y-16837317D01*
X10860658Y-16894460D02*
X10879706Y-16903984D01*
X10879706Y-16903984D02*
X10917801Y-16903984D01*
X10917801Y-16903984D02*
X10936849Y-16894460D01*
X10936849Y-16894460D02*
X10946373Y-16875412D01*
X10946373Y-16875412D02*
X10946373Y-16865889D01*
X10946373Y-16865889D02*
X10936849Y-16846841D01*
X10936849Y-16846841D02*
X10917801Y-16837317D01*
X10917801Y-16837317D02*
X10889230Y-16837317D01*
X10889230Y-16837317D02*
X10870182Y-16827793D01*
X10870182Y-16827793D02*
X10860658Y-16808746D01*
X10860658Y-16808746D02*
X10860658Y-16799222D01*
X10860658Y-16799222D02*
X10870182Y-16780174D01*
X10870182Y-16780174D02*
X10889230Y-16770650D01*
X10889230Y-16770650D02*
X10917801Y-16770650D01*
X10917801Y-16770650D02*
X10936849Y-16780174D01*
X11013039Y-16980174D02*
X11022563Y-16970650D01*
X11022563Y-16970650D02*
X11041611Y-16942079D01*
X11041611Y-16942079D02*
X11051134Y-16923031D01*
X11051134Y-16923031D02*
X11060658Y-16894460D01*
X11060658Y-16894460D02*
X11070182Y-16846841D01*
X11070182Y-16846841D02*
X11070182Y-16808746D01*
X11070182Y-16808746D02*
X11060658Y-16761127D01*
X11060658Y-16761127D02*
X11051134Y-16732555D01*
X11051134Y-16732555D02*
X11041611Y-16713508D01*
X11041611Y-16713508D02*
X11022563Y-16684936D01*
X11022563Y-16684936D02*
X11013039Y-16675412D01*
D14*
X5945500Y-17025500D02*
X6047500Y-17127500D01*
X6047500Y-17025500D02*
X5945500Y-17127500D01*
X5996500Y-17025500D02*
X5996500Y-17127500D01*
X5945500Y-17076500D02*
X6047500Y-17076500D01*
D11*
X6413039Y-17167984D02*
X6298753Y-17167984D01*
X6355896Y-17167984D02*
X6355896Y-16967984D01*
X6355896Y-16967984D02*
X6336848Y-16996555D01*
X6336848Y-16996555D02*
X6317801Y-17015603D01*
X6317801Y-17015603D02*
X6298753Y-17025127D01*
X6498753Y-17148936D02*
X6508277Y-17158460D01*
X6508277Y-17158460D02*
X6498753Y-17167984D01*
X6498753Y-17167984D02*
X6489229Y-17158460D01*
X6489229Y-17158460D02*
X6498753Y-17148936D01*
X6498753Y-17148936D02*
X6498753Y-17167984D01*
X6632086Y-16967984D02*
X6651134Y-16967984D01*
X6651134Y-16967984D02*
X6670182Y-16977508D01*
X6670182Y-16977508D02*
X6679705Y-16987031D01*
X6679705Y-16987031D02*
X6689229Y-17006079D01*
X6689229Y-17006079D02*
X6698753Y-17044174D01*
X6698753Y-17044174D02*
X6698753Y-17091793D01*
X6698753Y-17091793D02*
X6689229Y-17129889D01*
X6689229Y-17129889D02*
X6679705Y-17148936D01*
X6679705Y-17148936D02*
X6670182Y-17158460D01*
X6670182Y-17158460D02*
X6651134Y-17167984D01*
X6651134Y-17167984D02*
X6632086Y-17167984D01*
X6632086Y-17167984D02*
X6613039Y-17158460D01*
X6613039Y-17158460D02*
X6603515Y-17148936D01*
X6603515Y-17148936D02*
X6593991Y-17129889D01*
X6593991Y-17129889D02*
X6584467Y-17091793D01*
X6584467Y-17091793D02*
X6584467Y-17044174D01*
X6584467Y-17044174D02*
X6593991Y-17006079D01*
X6593991Y-17006079D02*
X6603515Y-16987031D01*
X6603515Y-16987031D02*
X6613039Y-16977508D01*
X6613039Y-16977508D02*
X6632086Y-16967984D01*
X6774943Y-16987031D02*
X6784467Y-16977508D01*
X6784467Y-16977508D02*
X6803515Y-16967984D01*
X6803515Y-16967984D02*
X6851134Y-16967984D01*
X6851134Y-16967984D02*
X6870182Y-16977508D01*
X6870182Y-16977508D02*
X6879705Y-16987031D01*
X6879705Y-16987031D02*
X6889229Y-17006079D01*
X6889229Y-17006079D02*
X6889229Y-17025127D01*
X6889229Y-17025127D02*
X6879705Y-17053698D01*
X6879705Y-17053698D02*
X6765420Y-17167984D01*
X6765420Y-17167984D02*
X6889229Y-17167984D01*
X7013039Y-16967984D02*
X7032086Y-16967984D01*
X7032086Y-16967984D02*
X7051134Y-16977508D01*
X7051134Y-16977508D02*
X7060658Y-16987031D01*
X7060658Y-16987031D02*
X7070182Y-17006079D01*
X7070182Y-17006079D02*
X7079705Y-17044174D01*
X7079705Y-17044174D02*
X7079705Y-17091793D01*
X7079705Y-17091793D02*
X7070182Y-17129889D01*
X7070182Y-17129889D02*
X7060658Y-17148936D01*
X7060658Y-17148936D02*
X7051134Y-17158460D01*
X7051134Y-17158460D02*
X7032086Y-17167984D01*
X7032086Y-17167984D02*
X7013039Y-17167984D01*
X7013039Y-17167984D02*
X6993991Y-17158460D01*
X6993991Y-17158460D02*
X6984467Y-17148936D01*
X6984467Y-17148936D02*
X6974943Y-17129889D01*
X6974943Y-17129889D02*
X6965420Y-17091793D01*
X6965420Y-17091793D02*
X6965420Y-17044174D01*
X6965420Y-17044174D02*
X6974943Y-17006079D01*
X6974943Y-17006079D02*
X6984467Y-16987031D01*
X6984467Y-16987031D02*
X6993991Y-16977508D01*
X6993991Y-16977508D02*
X7013039Y-16967984D01*
X7165420Y-17167984D02*
X7165420Y-17034650D01*
X7165420Y-17053698D02*
X7174943Y-17044174D01*
X7174943Y-17044174D02*
X7193991Y-17034650D01*
X7193991Y-17034650D02*
X7222563Y-17034650D01*
X7222563Y-17034650D02*
X7241610Y-17044174D01*
X7241610Y-17044174D02*
X7251134Y-17063222D01*
X7251134Y-17063222D02*
X7251134Y-17167984D01*
X7251134Y-17063222D02*
X7260658Y-17044174D01*
X7260658Y-17044174D02*
X7279705Y-17034650D01*
X7279705Y-17034650D02*
X7308277Y-17034650D01*
X7308277Y-17034650D02*
X7327324Y-17044174D01*
X7327324Y-17044174D02*
X7336848Y-17063222D01*
X7336848Y-17063222D02*
X7336848Y-17167984D01*
X7432086Y-17167984D02*
X7432086Y-17034650D01*
X7432086Y-17053698D02*
X7441610Y-17044174D01*
X7441610Y-17044174D02*
X7460658Y-17034650D01*
X7460658Y-17034650D02*
X7489229Y-17034650D01*
X7489229Y-17034650D02*
X7508277Y-17044174D01*
X7508277Y-17044174D02*
X7517801Y-17063222D01*
X7517801Y-17063222D02*
X7517801Y-17167984D01*
X7517801Y-17063222D02*
X7527324Y-17044174D01*
X7527324Y-17044174D02*
X7546372Y-17034650D01*
X7546372Y-17034650D02*
X7574943Y-17034650D01*
X7574943Y-17034650D02*
X7593991Y-17044174D01*
X7593991Y-17044174D02*
X7603515Y-17063222D01*
X7603515Y-17063222D02*
X7603515Y-17167984D01*
X7993991Y-16958460D02*
X7822563Y-17215603D01*
X8251134Y-16967984D02*
X8270182Y-16967984D01*
X8270182Y-16967984D02*
X8289229Y-16977508D01*
X8289229Y-16977508D02*
X8298753Y-16987031D01*
X8298753Y-16987031D02*
X8308277Y-17006079D01*
X8308277Y-17006079D02*
X8317801Y-17044174D01*
X8317801Y-17044174D02*
X8317801Y-17091793D01*
X8317801Y-17091793D02*
X8308277Y-17129889D01*
X8308277Y-17129889D02*
X8298753Y-17148936D01*
X8298753Y-17148936D02*
X8289229Y-17158460D01*
X8289229Y-17158460D02*
X8270182Y-17167984D01*
X8270182Y-17167984D02*
X8251134Y-17167984D01*
X8251134Y-17167984D02*
X8232086Y-17158460D01*
X8232086Y-17158460D02*
X8222563Y-17148936D01*
X8222563Y-17148936D02*
X8213039Y-17129889D01*
X8213039Y-17129889D02*
X8203515Y-17091793D01*
X8203515Y-17091793D02*
X8203515Y-17044174D01*
X8203515Y-17044174D02*
X8213039Y-17006079D01*
X8213039Y-17006079D02*
X8222563Y-16987031D01*
X8222563Y-16987031D02*
X8232086Y-16977508D01*
X8232086Y-16977508D02*
X8251134Y-16967984D01*
X8403515Y-17148936D02*
X8413039Y-17158460D01*
X8413039Y-17158460D02*
X8403515Y-17167984D01*
X8403515Y-17167984D02*
X8393991Y-17158460D01*
X8393991Y-17158460D02*
X8403515Y-17148936D01*
X8403515Y-17148936D02*
X8403515Y-17167984D01*
X8536848Y-16967984D02*
X8555896Y-16967984D01*
X8555896Y-16967984D02*
X8574944Y-16977508D01*
X8574944Y-16977508D02*
X8584468Y-16987031D01*
X8584468Y-16987031D02*
X8593991Y-17006079D01*
X8593991Y-17006079D02*
X8603515Y-17044174D01*
X8603515Y-17044174D02*
X8603515Y-17091793D01*
X8603515Y-17091793D02*
X8593991Y-17129889D01*
X8593991Y-17129889D02*
X8584468Y-17148936D01*
X8584468Y-17148936D02*
X8574944Y-17158460D01*
X8574944Y-17158460D02*
X8555896Y-17167984D01*
X8555896Y-17167984D02*
X8536848Y-17167984D01*
X8536848Y-17167984D02*
X8517801Y-17158460D01*
X8517801Y-17158460D02*
X8508277Y-17148936D01*
X8508277Y-17148936D02*
X8498753Y-17129889D01*
X8498753Y-17129889D02*
X8489229Y-17091793D01*
X8489229Y-17091793D02*
X8489229Y-17044174D01*
X8489229Y-17044174D02*
X8498753Y-17006079D01*
X8498753Y-17006079D02*
X8508277Y-16987031D01*
X8508277Y-16987031D02*
X8517801Y-16977508D01*
X8517801Y-16977508D02*
X8536848Y-16967984D01*
X8774944Y-17034650D02*
X8774944Y-17167984D01*
X8727325Y-16958460D02*
X8679706Y-17101317D01*
X8679706Y-17101317D02*
X8803515Y-17101317D01*
X8917801Y-16967984D02*
X8936849Y-16967984D01*
X8936849Y-16967984D02*
X8955896Y-16977508D01*
X8955896Y-16977508D02*
X8965420Y-16987031D01*
X8965420Y-16987031D02*
X8974944Y-17006079D01*
X8974944Y-17006079D02*
X8984468Y-17044174D01*
X8984468Y-17044174D02*
X8984468Y-17091793D01*
X8984468Y-17091793D02*
X8974944Y-17129889D01*
X8974944Y-17129889D02*
X8965420Y-17148936D01*
X8965420Y-17148936D02*
X8955896Y-17158460D01*
X8955896Y-17158460D02*
X8936849Y-17167984D01*
X8936849Y-17167984D02*
X8917801Y-17167984D01*
X8917801Y-17167984D02*
X8898753Y-17158460D01*
X8898753Y-17158460D02*
X8889229Y-17148936D01*
X8889229Y-17148936D02*
X8879706Y-17129889D01*
X8879706Y-17129889D02*
X8870182Y-17091793D01*
X8870182Y-17091793D02*
X8870182Y-17044174D01*
X8870182Y-17044174D02*
X8879706Y-17006079D01*
X8879706Y-17006079D02*
X8889229Y-16987031D01*
X8889229Y-16987031D02*
X8898753Y-16977508D01*
X8898753Y-16977508D02*
X8917801Y-16967984D01*
X9060658Y-16987031D02*
X9070182Y-16977508D01*
X9070182Y-16977508D02*
X9089229Y-16967984D01*
X9089229Y-16967984D02*
X9136849Y-16967984D01*
X9136849Y-16967984D02*
X9155896Y-16977508D01*
X9155896Y-16977508D02*
X9165420Y-16987031D01*
X9165420Y-16987031D02*
X9174944Y-17006079D01*
X9174944Y-17006079D02*
X9174944Y-17025127D01*
X9174944Y-17025127D02*
X9165420Y-17053698D01*
X9165420Y-17053698D02*
X9051134Y-17167984D01*
X9051134Y-17167984D02*
X9174944Y-17167984D01*
X9251134Y-16967984D02*
X9251134Y-17006079D01*
X9327325Y-16967984D02*
X9327325Y-17006079D01*
X9622563Y-17244174D02*
X9613039Y-17234650D01*
X9613039Y-17234650D02*
X9593991Y-17206079D01*
X9593991Y-17206079D02*
X9584468Y-17187031D01*
X9584468Y-17187031D02*
X9574944Y-17158460D01*
X9574944Y-17158460D02*
X9565420Y-17110841D01*
X9565420Y-17110841D02*
X9565420Y-17072746D01*
X9565420Y-17072746D02*
X9574944Y-17025127D01*
X9574944Y-17025127D02*
X9584468Y-16996555D01*
X9584468Y-16996555D02*
X9593991Y-16977508D01*
X9593991Y-16977508D02*
X9613039Y-16948936D01*
X9613039Y-16948936D02*
X9622563Y-16939412D01*
X9784468Y-17034650D02*
X9784468Y-17167984D01*
X9736849Y-16958460D02*
X9689230Y-17101317D01*
X9689230Y-17101317D02*
X9813039Y-17101317D01*
X10041611Y-17167984D02*
X10041611Y-16967984D01*
X10127325Y-17167984D02*
X10127325Y-17063222D01*
X10127325Y-17063222D02*
X10117801Y-17044174D01*
X10117801Y-17044174D02*
X10098753Y-17034650D01*
X10098753Y-17034650D02*
X10070182Y-17034650D01*
X10070182Y-17034650D02*
X10051134Y-17044174D01*
X10051134Y-17044174D02*
X10041611Y-17053698D01*
X10251134Y-17167984D02*
X10232087Y-17158460D01*
X10232087Y-17158460D02*
X10222563Y-17148936D01*
X10222563Y-17148936D02*
X10213039Y-17129889D01*
X10213039Y-17129889D02*
X10213039Y-17072746D01*
X10213039Y-17072746D02*
X10222563Y-17053698D01*
X10222563Y-17053698D02*
X10232087Y-17044174D01*
X10232087Y-17044174D02*
X10251134Y-17034650D01*
X10251134Y-17034650D02*
X10279706Y-17034650D01*
X10279706Y-17034650D02*
X10298753Y-17044174D01*
X10298753Y-17044174D02*
X10308277Y-17053698D01*
X10308277Y-17053698D02*
X10317801Y-17072746D01*
X10317801Y-17072746D02*
X10317801Y-17129889D01*
X10317801Y-17129889D02*
X10308277Y-17148936D01*
X10308277Y-17148936D02*
X10298753Y-17158460D01*
X10298753Y-17158460D02*
X10279706Y-17167984D01*
X10279706Y-17167984D02*
X10251134Y-17167984D01*
X10432087Y-17167984D02*
X10413039Y-17158460D01*
X10413039Y-17158460D02*
X10403515Y-17139412D01*
X10403515Y-17139412D02*
X10403515Y-16967984D01*
X10584468Y-17158460D02*
X10565420Y-17167984D01*
X10565420Y-17167984D02*
X10527325Y-17167984D01*
X10527325Y-17167984D02*
X10508277Y-17158460D01*
X10508277Y-17158460D02*
X10498753Y-17139412D01*
X10498753Y-17139412D02*
X10498753Y-17063222D01*
X10498753Y-17063222D02*
X10508277Y-17044174D01*
X10508277Y-17044174D02*
X10527325Y-17034650D01*
X10527325Y-17034650D02*
X10565420Y-17034650D01*
X10565420Y-17034650D02*
X10584468Y-17044174D01*
X10584468Y-17044174D02*
X10593992Y-17063222D01*
X10593992Y-17063222D02*
X10593992Y-17082270D01*
X10593992Y-17082270D02*
X10498753Y-17101317D01*
X10670182Y-17158460D02*
X10689230Y-17167984D01*
X10689230Y-17167984D02*
X10727325Y-17167984D01*
X10727325Y-17167984D02*
X10746373Y-17158460D01*
X10746373Y-17158460D02*
X10755896Y-17139412D01*
X10755896Y-17139412D02*
X10755896Y-17129889D01*
X10755896Y-17129889D02*
X10746373Y-17110841D01*
X10746373Y-17110841D02*
X10727325Y-17101317D01*
X10727325Y-17101317D02*
X10698753Y-17101317D01*
X10698753Y-17101317D02*
X10679706Y-17091793D01*
X10679706Y-17091793D02*
X10670182Y-17072746D01*
X10670182Y-17072746D02*
X10670182Y-17063222D01*
X10670182Y-17063222D02*
X10679706Y-17044174D01*
X10679706Y-17044174D02*
X10698753Y-17034650D01*
X10698753Y-17034650D02*
X10727325Y-17034650D01*
X10727325Y-17034650D02*
X10746373Y-17044174D01*
X10822563Y-17244174D02*
X10832087Y-17234650D01*
X10832087Y-17234650D02*
X10851134Y-17206079D01*
X10851134Y-17206079D02*
X10860658Y-17187031D01*
X10860658Y-17187031D02*
X10870182Y-17158460D01*
X10870182Y-17158460D02*
X10879706Y-17110841D01*
X10879706Y-17110841D02*
X10879706Y-17072746D01*
X10879706Y-17072746D02*
X10870182Y-17025127D01*
X10870182Y-17025127D02*
X10860658Y-16996555D01*
X10860658Y-16996555D02*
X10851134Y-16977508D01*
X10851134Y-16977508D02*
X10832087Y-16948936D01*
X10832087Y-16948936D02*
X10822563Y-16939412D01*
D15*
X5927500Y-17280500D02*
X6047500Y-17400500D01*
X6047500Y-17280500D02*
X5927500Y-17400500D01*
X6029927Y-17382927D02*
X6029927Y-17298073D01*
X5945073Y-17298073D01*
X5945073Y-17382927D01*
X6029927Y-17382927D01*
D11*
X6413039Y-17431984D02*
X6298753Y-17431984D01*
X6355896Y-17431984D02*
X6355896Y-17231984D01*
X6355896Y-17231984D02*
X6336848Y-17260555D01*
X6336848Y-17260555D02*
X6317801Y-17279603D01*
X6317801Y-17279603D02*
X6298753Y-17289127D01*
X6498753Y-17412936D02*
X6508277Y-17422460D01*
X6508277Y-17422460D02*
X6498753Y-17431984D01*
X6498753Y-17431984D02*
X6489229Y-17422460D01*
X6489229Y-17422460D02*
X6498753Y-17412936D01*
X6498753Y-17412936D02*
X6498753Y-17431984D01*
X6584467Y-17251031D02*
X6593991Y-17241508D01*
X6593991Y-17241508D02*
X6613039Y-17231984D01*
X6613039Y-17231984D02*
X6660658Y-17231984D01*
X6660658Y-17231984D02*
X6679705Y-17241508D01*
X6679705Y-17241508D02*
X6689229Y-17251031D01*
X6689229Y-17251031D02*
X6698753Y-17270079D01*
X6698753Y-17270079D02*
X6698753Y-17289127D01*
X6698753Y-17289127D02*
X6689229Y-17317698D01*
X6689229Y-17317698D02*
X6574943Y-17431984D01*
X6574943Y-17431984D02*
X6698753Y-17431984D01*
X6822562Y-17231984D02*
X6841610Y-17231984D01*
X6841610Y-17231984D02*
X6860658Y-17241508D01*
X6860658Y-17241508D02*
X6870182Y-17251031D01*
X6870182Y-17251031D02*
X6879705Y-17270079D01*
X6879705Y-17270079D02*
X6889229Y-17308174D01*
X6889229Y-17308174D02*
X6889229Y-17355793D01*
X6889229Y-17355793D02*
X6879705Y-17393889D01*
X6879705Y-17393889D02*
X6870182Y-17412936D01*
X6870182Y-17412936D02*
X6860658Y-17422460D01*
X6860658Y-17422460D02*
X6841610Y-17431984D01*
X6841610Y-17431984D02*
X6822562Y-17431984D01*
X6822562Y-17431984D02*
X6803515Y-17422460D01*
X6803515Y-17422460D02*
X6793991Y-17412936D01*
X6793991Y-17412936D02*
X6784467Y-17393889D01*
X6784467Y-17393889D02*
X6774943Y-17355793D01*
X6774943Y-17355793D02*
X6774943Y-17308174D01*
X6774943Y-17308174D02*
X6784467Y-17270079D01*
X6784467Y-17270079D02*
X6793991Y-17251031D01*
X6793991Y-17251031D02*
X6803515Y-17241508D01*
X6803515Y-17241508D02*
X6822562Y-17231984D01*
X7013039Y-17231984D02*
X7032086Y-17231984D01*
X7032086Y-17231984D02*
X7051134Y-17241508D01*
X7051134Y-17241508D02*
X7060658Y-17251031D01*
X7060658Y-17251031D02*
X7070182Y-17270079D01*
X7070182Y-17270079D02*
X7079705Y-17308174D01*
X7079705Y-17308174D02*
X7079705Y-17355793D01*
X7079705Y-17355793D02*
X7070182Y-17393889D01*
X7070182Y-17393889D02*
X7060658Y-17412936D01*
X7060658Y-17412936D02*
X7051134Y-17422460D01*
X7051134Y-17422460D02*
X7032086Y-17431984D01*
X7032086Y-17431984D02*
X7013039Y-17431984D01*
X7013039Y-17431984D02*
X6993991Y-17422460D01*
X6993991Y-17422460D02*
X6984467Y-17412936D01*
X6984467Y-17412936D02*
X6974943Y-17393889D01*
X6974943Y-17393889D02*
X6965420Y-17355793D01*
X6965420Y-17355793D02*
X6965420Y-17308174D01*
X6965420Y-17308174D02*
X6974943Y-17270079D01*
X6974943Y-17270079D02*
X6984467Y-17251031D01*
X6984467Y-17251031D02*
X6993991Y-17241508D01*
X6993991Y-17241508D02*
X7013039Y-17231984D01*
X7165420Y-17431984D02*
X7165420Y-17298650D01*
X7165420Y-17317698D02*
X7174943Y-17308174D01*
X7174943Y-17308174D02*
X7193991Y-17298650D01*
X7193991Y-17298650D02*
X7222563Y-17298650D01*
X7222563Y-17298650D02*
X7241610Y-17308174D01*
X7241610Y-17308174D02*
X7251134Y-17327222D01*
X7251134Y-17327222D02*
X7251134Y-17431984D01*
X7251134Y-17327222D02*
X7260658Y-17308174D01*
X7260658Y-17308174D02*
X7279705Y-17298650D01*
X7279705Y-17298650D02*
X7308277Y-17298650D01*
X7308277Y-17298650D02*
X7327324Y-17308174D01*
X7327324Y-17308174D02*
X7336848Y-17327222D01*
X7336848Y-17327222D02*
X7336848Y-17431984D01*
X7432086Y-17431984D02*
X7432086Y-17298650D01*
X7432086Y-17317698D02*
X7441610Y-17308174D01*
X7441610Y-17308174D02*
X7460658Y-17298650D01*
X7460658Y-17298650D02*
X7489229Y-17298650D01*
X7489229Y-17298650D02*
X7508277Y-17308174D01*
X7508277Y-17308174D02*
X7517801Y-17327222D01*
X7517801Y-17327222D02*
X7517801Y-17431984D01*
X7517801Y-17327222D02*
X7527324Y-17308174D01*
X7527324Y-17308174D02*
X7546372Y-17298650D01*
X7546372Y-17298650D02*
X7574943Y-17298650D01*
X7574943Y-17298650D02*
X7593991Y-17308174D01*
X7593991Y-17308174D02*
X7603515Y-17327222D01*
X7603515Y-17327222D02*
X7603515Y-17431984D01*
X7993991Y-17222460D02*
X7822563Y-17479603D01*
X8251134Y-17231984D02*
X8270182Y-17231984D01*
X8270182Y-17231984D02*
X8289229Y-17241508D01*
X8289229Y-17241508D02*
X8298753Y-17251031D01*
X8298753Y-17251031D02*
X8308277Y-17270079D01*
X8308277Y-17270079D02*
X8317801Y-17308174D01*
X8317801Y-17308174D02*
X8317801Y-17355793D01*
X8317801Y-17355793D02*
X8308277Y-17393889D01*
X8308277Y-17393889D02*
X8298753Y-17412936D01*
X8298753Y-17412936D02*
X8289229Y-17422460D01*
X8289229Y-17422460D02*
X8270182Y-17431984D01*
X8270182Y-17431984D02*
X8251134Y-17431984D01*
X8251134Y-17431984D02*
X8232086Y-17422460D01*
X8232086Y-17422460D02*
X8222563Y-17412936D01*
X8222563Y-17412936D02*
X8213039Y-17393889D01*
X8213039Y-17393889D02*
X8203515Y-17355793D01*
X8203515Y-17355793D02*
X8203515Y-17308174D01*
X8203515Y-17308174D02*
X8213039Y-17270079D01*
X8213039Y-17270079D02*
X8222563Y-17251031D01*
X8222563Y-17251031D02*
X8232086Y-17241508D01*
X8232086Y-17241508D02*
X8251134Y-17231984D01*
X8403515Y-17412936D02*
X8413039Y-17422460D01*
X8413039Y-17422460D02*
X8403515Y-17431984D01*
X8403515Y-17431984D02*
X8393991Y-17422460D01*
X8393991Y-17422460D02*
X8403515Y-17412936D01*
X8403515Y-17412936D02*
X8403515Y-17431984D01*
X8536848Y-17231984D02*
X8555896Y-17231984D01*
X8555896Y-17231984D02*
X8574944Y-17241508D01*
X8574944Y-17241508D02*
X8584468Y-17251031D01*
X8584468Y-17251031D02*
X8593991Y-17270079D01*
X8593991Y-17270079D02*
X8603515Y-17308174D01*
X8603515Y-17308174D02*
X8603515Y-17355793D01*
X8603515Y-17355793D02*
X8593991Y-17393889D01*
X8593991Y-17393889D02*
X8584468Y-17412936D01*
X8584468Y-17412936D02*
X8574944Y-17422460D01*
X8574944Y-17422460D02*
X8555896Y-17431984D01*
X8555896Y-17431984D02*
X8536848Y-17431984D01*
X8536848Y-17431984D02*
X8517801Y-17422460D01*
X8517801Y-17422460D02*
X8508277Y-17412936D01*
X8508277Y-17412936D02*
X8498753Y-17393889D01*
X8498753Y-17393889D02*
X8489229Y-17355793D01*
X8489229Y-17355793D02*
X8489229Y-17308174D01*
X8489229Y-17308174D02*
X8498753Y-17270079D01*
X8498753Y-17270079D02*
X8508277Y-17251031D01*
X8508277Y-17251031D02*
X8517801Y-17241508D01*
X8517801Y-17241508D02*
X8536848Y-17231984D01*
X8774944Y-17298650D02*
X8774944Y-17431984D01*
X8727325Y-17222460D02*
X8679706Y-17365317D01*
X8679706Y-17365317D02*
X8803515Y-17365317D01*
X8860658Y-17231984D02*
X8993991Y-17231984D01*
X8993991Y-17231984D02*
X8908277Y-17431984D01*
X9060658Y-17251031D02*
X9070182Y-17241508D01*
X9070182Y-17241508D02*
X9089229Y-17231984D01*
X9089229Y-17231984D02*
X9136849Y-17231984D01*
X9136849Y-17231984D02*
X9155896Y-17241508D01*
X9155896Y-17241508D02*
X9165420Y-17251031D01*
X9165420Y-17251031D02*
X9174944Y-17270079D01*
X9174944Y-17270079D02*
X9174944Y-17289127D01*
X9174944Y-17289127D02*
X9165420Y-17317698D01*
X9165420Y-17317698D02*
X9051134Y-17431984D01*
X9051134Y-17431984D02*
X9174944Y-17431984D01*
X9251134Y-17231984D02*
X9251134Y-17270079D01*
X9327325Y-17231984D02*
X9327325Y-17270079D01*
X9622563Y-17508174D02*
X9613039Y-17498650D01*
X9613039Y-17498650D02*
X9593991Y-17470079D01*
X9593991Y-17470079D02*
X9584468Y-17451031D01*
X9584468Y-17451031D02*
X9574944Y-17422460D01*
X9574944Y-17422460D02*
X9565420Y-17374841D01*
X9565420Y-17374841D02*
X9565420Y-17336746D01*
X9565420Y-17336746D02*
X9574944Y-17289127D01*
X9574944Y-17289127D02*
X9584468Y-17260555D01*
X9584468Y-17260555D02*
X9593991Y-17241508D01*
X9593991Y-17241508D02*
X9613039Y-17212936D01*
X9613039Y-17212936D02*
X9622563Y-17203412D01*
X9736849Y-17231984D02*
X9755896Y-17231984D01*
X9755896Y-17231984D02*
X9774944Y-17241508D01*
X9774944Y-17241508D02*
X9784468Y-17251031D01*
X9784468Y-17251031D02*
X9793991Y-17270079D01*
X9793991Y-17270079D02*
X9803515Y-17308174D01*
X9803515Y-17308174D02*
X9803515Y-17355793D01*
X9803515Y-17355793D02*
X9793991Y-17393889D01*
X9793991Y-17393889D02*
X9784468Y-17412936D01*
X9784468Y-17412936D02*
X9774944Y-17422460D01*
X9774944Y-17422460D02*
X9755896Y-17431984D01*
X9755896Y-17431984D02*
X9736849Y-17431984D01*
X9736849Y-17431984D02*
X9717801Y-17422460D01*
X9717801Y-17422460D02*
X9708277Y-17412936D01*
X9708277Y-17412936D02*
X9698753Y-17393889D01*
X9698753Y-17393889D02*
X9689230Y-17355793D01*
X9689230Y-17355793D02*
X9689230Y-17308174D01*
X9689230Y-17308174D02*
X9698753Y-17270079D01*
X9698753Y-17270079D02*
X9708277Y-17251031D01*
X9708277Y-17251031D02*
X9717801Y-17241508D01*
X9717801Y-17241508D02*
X9736849Y-17231984D01*
X10041611Y-17431984D02*
X10041611Y-17231984D01*
X10127325Y-17431984D02*
X10127325Y-17327222D01*
X10127325Y-17327222D02*
X10117801Y-17308174D01*
X10117801Y-17308174D02*
X10098753Y-17298650D01*
X10098753Y-17298650D02*
X10070182Y-17298650D01*
X10070182Y-17298650D02*
X10051134Y-17308174D01*
X10051134Y-17308174D02*
X10041611Y-17317698D01*
X10251134Y-17431984D02*
X10232087Y-17422460D01*
X10232087Y-17422460D02*
X10222563Y-17412936D01*
X10222563Y-17412936D02*
X10213039Y-17393889D01*
X10213039Y-17393889D02*
X10213039Y-17336746D01*
X10213039Y-17336746D02*
X10222563Y-17317698D01*
X10222563Y-17317698D02*
X10232087Y-17308174D01*
X10232087Y-17308174D02*
X10251134Y-17298650D01*
X10251134Y-17298650D02*
X10279706Y-17298650D01*
X10279706Y-17298650D02*
X10298753Y-17308174D01*
X10298753Y-17308174D02*
X10308277Y-17317698D01*
X10308277Y-17317698D02*
X10317801Y-17336746D01*
X10317801Y-17336746D02*
X10317801Y-17393889D01*
X10317801Y-17393889D02*
X10308277Y-17412936D01*
X10308277Y-17412936D02*
X10298753Y-17422460D01*
X10298753Y-17422460D02*
X10279706Y-17431984D01*
X10279706Y-17431984D02*
X10251134Y-17431984D01*
X10432087Y-17431984D02*
X10413039Y-17422460D01*
X10413039Y-17422460D02*
X10403515Y-17403412D01*
X10403515Y-17403412D02*
X10403515Y-17231984D01*
X10584468Y-17422460D02*
X10565420Y-17431984D01*
X10565420Y-17431984D02*
X10527325Y-17431984D01*
X10527325Y-17431984D02*
X10508277Y-17422460D01*
X10508277Y-17422460D02*
X10498753Y-17403412D01*
X10498753Y-17403412D02*
X10498753Y-17327222D01*
X10498753Y-17327222D02*
X10508277Y-17308174D01*
X10508277Y-17308174D02*
X10527325Y-17298650D01*
X10527325Y-17298650D02*
X10565420Y-17298650D01*
X10565420Y-17298650D02*
X10584468Y-17308174D01*
X10584468Y-17308174D02*
X10593992Y-17327222D01*
X10593992Y-17327222D02*
X10593992Y-17346270D01*
X10593992Y-17346270D02*
X10498753Y-17365317D01*
X10670182Y-17422460D02*
X10689230Y-17431984D01*
X10689230Y-17431984D02*
X10727325Y-17431984D01*
X10727325Y-17431984D02*
X10746373Y-17422460D01*
X10746373Y-17422460D02*
X10755896Y-17403412D01*
X10755896Y-17403412D02*
X10755896Y-17393889D01*
X10755896Y-17393889D02*
X10746373Y-17374841D01*
X10746373Y-17374841D02*
X10727325Y-17365317D01*
X10727325Y-17365317D02*
X10698753Y-17365317D01*
X10698753Y-17365317D02*
X10679706Y-17355793D01*
X10679706Y-17355793D02*
X10670182Y-17336746D01*
X10670182Y-17336746D02*
X10670182Y-17327222D01*
X10670182Y-17327222D02*
X10679706Y-17308174D01*
X10679706Y-17308174D02*
X10698753Y-17298650D01*
X10698753Y-17298650D02*
X10727325Y-17298650D01*
X10727325Y-17298650D02*
X10746373Y-17308174D01*
X10993992Y-17355793D02*
X11146373Y-17355793D01*
X11070182Y-17431984D02*
X11070182Y-17279603D01*
X11384468Y-17251031D02*
X11393992Y-17241508D01*
X11393992Y-17241508D02*
X11413039Y-17231984D01*
X11413039Y-17231984D02*
X11460658Y-17231984D01*
X11460658Y-17231984D02*
X11479706Y-17241508D01*
X11479706Y-17241508D02*
X11489230Y-17251031D01*
X11489230Y-17251031D02*
X11498753Y-17270079D01*
X11498753Y-17270079D02*
X11498753Y-17289127D01*
X11498753Y-17289127D02*
X11489230Y-17317698D01*
X11489230Y-17317698D02*
X11374944Y-17431984D01*
X11374944Y-17431984D02*
X11498753Y-17431984D01*
X11727325Y-17422460D02*
X11746373Y-17431984D01*
X11746373Y-17431984D02*
X11784468Y-17431984D01*
X11784468Y-17431984D02*
X11803515Y-17422460D01*
X11803515Y-17422460D02*
X11813039Y-17403412D01*
X11813039Y-17403412D02*
X11813039Y-17393889D01*
X11813039Y-17393889D02*
X11803515Y-17374841D01*
X11803515Y-17374841D02*
X11784468Y-17365317D01*
X11784468Y-17365317D02*
X11755896Y-17365317D01*
X11755896Y-17365317D02*
X11736849Y-17355793D01*
X11736849Y-17355793D02*
X11727325Y-17336746D01*
X11727325Y-17336746D02*
X11727325Y-17327222D01*
X11727325Y-17327222D02*
X11736849Y-17308174D01*
X11736849Y-17308174D02*
X11755896Y-17298650D01*
X11755896Y-17298650D02*
X11784468Y-17298650D01*
X11784468Y-17298650D02*
X11803515Y-17308174D01*
X11927325Y-17431984D02*
X11908277Y-17422460D01*
X11908277Y-17422460D02*
X11898754Y-17403412D01*
X11898754Y-17403412D02*
X11898754Y-17231984D01*
X12032087Y-17431984D02*
X12013039Y-17422460D01*
X12013039Y-17422460D02*
X12003515Y-17412936D01*
X12003515Y-17412936D02*
X11993992Y-17393889D01*
X11993992Y-17393889D02*
X11993992Y-17336746D01*
X11993992Y-17336746D02*
X12003515Y-17317698D01*
X12003515Y-17317698D02*
X12013039Y-17308174D01*
X12013039Y-17308174D02*
X12032087Y-17298650D01*
X12032087Y-17298650D02*
X12060658Y-17298650D01*
X12060658Y-17298650D02*
X12079706Y-17308174D01*
X12079706Y-17308174D02*
X12089230Y-17317698D01*
X12089230Y-17317698D02*
X12098754Y-17336746D01*
X12098754Y-17336746D02*
X12098754Y-17393889D01*
X12098754Y-17393889D02*
X12089230Y-17412936D01*
X12089230Y-17412936D02*
X12079706Y-17422460D01*
X12079706Y-17422460D02*
X12060658Y-17431984D01*
X12060658Y-17431984D02*
X12032087Y-17431984D01*
X12155896Y-17298650D02*
X12232087Y-17298650D01*
X12184468Y-17231984D02*
X12184468Y-17403412D01*
X12184468Y-17403412D02*
X12193992Y-17422460D01*
X12193992Y-17422460D02*
X12213039Y-17431984D01*
X12213039Y-17431984D02*
X12232087Y-17431984D01*
X12289230Y-17422460D02*
X12308277Y-17431984D01*
X12308277Y-17431984D02*
X12346373Y-17431984D01*
X12346373Y-17431984D02*
X12365420Y-17422460D01*
X12365420Y-17422460D02*
X12374944Y-17403412D01*
X12374944Y-17403412D02*
X12374944Y-17393889D01*
X12374944Y-17393889D02*
X12365420Y-17374841D01*
X12365420Y-17374841D02*
X12346373Y-17365317D01*
X12346373Y-17365317D02*
X12317801Y-17365317D01*
X12317801Y-17365317D02*
X12298754Y-17355793D01*
X12298754Y-17355793D02*
X12289230Y-17336746D01*
X12289230Y-17336746D02*
X12289230Y-17327222D01*
X12289230Y-17327222D02*
X12298754Y-17308174D01*
X12298754Y-17308174D02*
X12317801Y-17298650D01*
X12317801Y-17298650D02*
X12346373Y-17298650D01*
X12346373Y-17298650D02*
X12365420Y-17308174D01*
X12441611Y-17508174D02*
X12451135Y-17498650D01*
X12451135Y-17498650D02*
X12470182Y-17470079D01*
X12470182Y-17470079D02*
X12479706Y-17451031D01*
X12479706Y-17451031D02*
X12489230Y-17422460D01*
X12489230Y-17422460D02*
X12498754Y-17374841D01*
X12498754Y-17374841D02*
X12498754Y-17336746D01*
X12498754Y-17336746D02*
X12489230Y-17289127D01*
X12489230Y-17289127D02*
X12479706Y-17260555D01*
X12479706Y-17260555D02*
X12470182Y-17241508D01*
X12470182Y-17241508D02*
X12451135Y-17212936D01*
X12451135Y-17212936D02*
X12441611Y-17203412D01*
D16*
X5917500Y-17539500D02*
X6047500Y-17669500D01*
X6047500Y-17539500D02*
X5917500Y-17669500D01*
X5982500Y-17669500D02*
X6047500Y-17604500D01*
X5982500Y-17539500D01*
X5917500Y-17604500D01*
X5982500Y-17669500D01*
D11*
X6413039Y-17695984D02*
X6298753Y-17695984D01*
X6355896Y-17695984D02*
X6355896Y-17495984D01*
X6355896Y-17495984D02*
X6336848Y-17524555D01*
X6336848Y-17524555D02*
X6317801Y-17543603D01*
X6317801Y-17543603D02*
X6298753Y-17553127D01*
X6498753Y-17676936D02*
X6508277Y-17686460D01*
X6508277Y-17686460D02*
X6498753Y-17695984D01*
X6498753Y-17695984D02*
X6489229Y-17686460D01*
X6489229Y-17686460D02*
X6498753Y-17676936D01*
X6498753Y-17676936D02*
X6498753Y-17695984D01*
X6574943Y-17495984D02*
X6698753Y-17495984D01*
X6698753Y-17495984D02*
X6632086Y-17572174D01*
X6632086Y-17572174D02*
X6660658Y-17572174D01*
X6660658Y-17572174D02*
X6679705Y-17581698D01*
X6679705Y-17581698D02*
X6689229Y-17591222D01*
X6689229Y-17591222D02*
X6698753Y-17610270D01*
X6698753Y-17610270D02*
X6698753Y-17657889D01*
X6698753Y-17657889D02*
X6689229Y-17676936D01*
X6689229Y-17676936D02*
X6679705Y-17686460D01*
X6679705Y-17686460D02*
X6660658Y-17695984D01*
X6660658Y-17695984D02*
X6603515Y-17695984D01*
X6603515Y-17695984D02*
X6584467Y-17686460D01*
X6584467Y-17686460D02*
X6574943Y-17676936D01*
X6822562Y-17495984D02*
X6841610Y-17495984D01*
X6841610Y-17495984D02*
X6860658Y-17505508D01*
X6860658Y-17505508D02*
X6870182Y-17515031D01*
X6870182Y-17515031D02*
X6879705Y-17534079D01*
X6879705Y-17534079D02*
X6889229Y-17572174D01*
X6889229Y-17572174D02*
X6889229Y-17619793D01*
X6889229Y-17619793D02*
X6879705Y-17657889D01*
X6879705Y-17657889D02*
X6870182Y-17676936D01*
X6870182Y-17676936D02*
X6860658Y-17686460D01*
X6860658Y-17686460D02*
X6841610Y-17695984D01*
X6841610Y-17695984D02*
X6822562Y-17695984D01*
X6822562Y-17695984D02*
X6803515Y-17686460D01*
X6803515Y-17686460D02*
X6793991Y-17676936D01*
X6793991Y-17676936D02*
X6784467Y-17657889D01*
X6784467Y-17657889D02*
X6774943Y-17619793D01*
X6774943Y-17619793D02*
X6774943Y-17572174D01*
X6774943Y-17572174D02*
X6784467Y-17534079D01*
X6784467Y-17534079D02*
X6793991Y-17515031D01*
X6793991Y-17515031D02*
X6803515Y-17505508D01*
X6803515Y-17505508D02*
X6822562Y-17495984D01*
X7013039Y-17495984D02*
X7032086Y-17495984D01*
X7032086Y-17495984D02*
X7051134Y-17505508D01*
X7051134Y-17505508D02*
X7060658Y-17515031D01*
X7060658Y-17515031D02*
X7070182Y-17534079D01*
X7070182Y-17534079D02*
X7079705Y-17572174D01*
X7079705Y-17572174D02*
X7079705Y-17619793D01*
X7079705Y-17619793D02*
X7070182Y-17657889D01*
X7070182Y-17657889D02*
X7060658Y-17676936D01*
X7060658Y-17676936D02*
X7051134Y-17686460D01*
X7051134Y-17686460D02*
X7032086Y-17695984D01*
X7032086Y-17695984D02*
X7013039Y-17695984D01*
X7013039Y-17695984D02*
X6993991Y-17686460D01*
X6993991Y-17686460D02*
X6984467Y-17676936D01*
X6984467Y-17676936D02*
X6974943Y-17657889D01*
X6974943Y-17657889D02*
X6965420Y-17619793D01*
X6965420Y-17619793D02*
X6965420Y-17572174D01*
X6965420Y-17572174D02*
X6974943Y-17534079D01*
X6974943Y-17534079D02*
X6984467Y-17515031D01*
X6984467Y-17515031D02*
X6993991Y-17505508D01*
X6993991Y-17505508D02*
X7013039Y-17495984D01*
X7165420Y-17695984D02*
X7165420Y-17562650D01*
X7165420Y-17581698D02*
X7174943Y-17572174D01*
X7174943Y-17572174D02*
X7193991Y-17562650D01*
X7193991Y-17562650D02*
X7222563Y-17562650D01*
X7222563Y-17562650D02*
X7241610Y-17572174D01*
X7241610Y-17572174D02*
X7251134Y-17591222D01*
X7251134Y-17591222D02*
X7251134Y-17695984D01*
X7251134Y-17591222D02*
X7260658Y-17572174D01*
X7260658Y-17572174D02*
X7279705Y-17562650D01*
X7279705Y-17562650D02*
X7308277Y-17562650D01*
X7308277Y-17562650D02*
X7327324Y-17572174D01*
X7327324Y-17572174D02*
X7336848Y-17591222D01*
X7336848Y-17591222D02*
X7336848Y-17695984D01*
X7432086Y-17695984D02*
X7432086Y-17562650D01*
X7432086Y-17581698D02*
X7441610Y-17572174D01*
X7441610Y-17572174D02*
X7460658Y-17562650D01*
X7460658Y-17562650D02*
X7489229Y-17562650D01*
X7489229Y-17562650D02*
X7508277Y-17572174D01*
X7508277Y-17572174D02*
X7517801Y-17591222D01*
X7517801Y-17591222D02*
X7517801Y-17695984D01*
X7517801Y-17591222D02*
X7527324Y-17572174D01*
X7527324Y-17572174D02*
X7546372Y-17562650D01*
X7546372Y-17562650D02*
X7574943Y-17562650D01*
X7574943Y-17562650D02*
X7593991Y-17572174D01*
X7593991Y-17572174D02*
X7603515Y-17591222D01*
X7603515Y-17591222D02*
X7603515Y-17695984D01*
X7993991Y-17486460D02*
X7822563Y-17743603D01*
X8251134Y-17495984D02*
X8270182Y-17495984D01*
X8270182Y-17495984D02*
X8289229Y-17505508D01*
X8289229Y-17505508D02*
X8298753Y-17515031D01*
X8298753Y-17515031D02*
X8308277Y-17534079D01*
X8308277Y-17534079D02*
X8317801Y-17572174D01*
X8317801Y-17572174D02*
X8317801Y-17619793D01*
X8317801Y-17619793D02*
X8308277Y-17657889D01*
X8308277Y-17657889D02*
X8298753Y-17676936D01*
X8298753Y-17676936D02*
X8289229Y-17686460D01*
X8289229Y-17686460D02*
X8270182Y-17695984D01*
X8270182Y-17695984D02*
X8251134Y-17695984D01*
X8251134Y-17695984D02*
X8232086Y-17686460D01*
X8232086Y-17686460D02*
X8222563Y-17676936D01*
X8222563Y-17676936D02*
X8213039Y-17657889D01*
X8213039Y-17657889D02*
X8203515Y-17619793D01*
X8203515Y-17619793D02*
X8203515Y-17572174D01*
X8203515Y-17572174D02*
X8213039Y-17534079D01*
X8213039Y-17534079D02*
X8222563Y-17515031D01*
X8222563Y-17515031D02*
X8232086Y-17505508D01*
X8232086Y-17505508D02*
X8251134Y-17495984D01*
X8403515Y-17676936D02*
X8413039Y-17686460D01*
X8413039Y-17686460D02*
X8403515Y-17695984D01*
X8403515Y-17695984D02*
X8393991Y-17686460D01*
X8393991Y-17686460D02*
X8403515Y-17676936D01*
X8403515Y-17676936D02*
X8403515Y-17695984D01*
X8536848Y-17495984D02*
X8555896Y-17495984D01*
X8555896Y-17495984D02*
X8574944Y-17505508D01*
X8574944Y-17505508D02*
X8584468Y-17515031D01*
X8584468Y-17515031D02*
X8593991Y-17534079D01*
X8593991Y-17534079D02*
X8603515Y-17572174D01*
X8603515Y-17572174D02*
X8603515Y-17619793D01*
X8603515Y-17619793D02*
X8593991Y-17657889D01*
X8593991Y-17657889D02*
X8584468Y-17676936D01*
X8584468Y-17676936D02*
X8574944Y-17686460D01*
X8574944Y-17686460D02*
X8555896Y-17695984D01*
X8555896Y-17695984D02*
X8536848Y-17695984D01*
X8536848Y-17695984D02*
X8517801Y-17686460D01*
X8517801Y-17686460D02*
X8508277Y-17676936D01*
X8508277Y-17676936D02*
X8498753Y-17657889D01*
X8498753Y-17657889D02*
X8489229Y-17619793D01*
X8489229Y-17619793D02*
X8489229Y-17572174D01*
X8489229Y-17572174D02*
X8498753Y-17534079D01*
X8498753Y-17534079D02*
X8508277Y-17515031D01*
X8508277Y-17515031D02*
X8517801Y-17505508D01*
X8517801Y-17505508D02*
X8536848Y-17495984D01*
X8784468Y-17495984D02*
X8689229Y-17495984D01*
X8689229Y-17495984D02*
X8679706Y-17591222D01*
X8679706Y-17591222D02*
X8689229Y-17581698D01*
X8689229Y-17581698D02*
X8708277Y-17572174D01*
X8708277Y-17572174D02*
X8755896Y-17572174D01*
X8755896Y-17572174D02*
X8774944Y-17581698D01*
X8774944Y-17581698D02*
X8784468Y-17591222D01*
X8784468Y-17591222D02*
X8793991Y-17610270D01*
X8793991Y-17610270D02*
X8793991Y-17657889D01*
X8793991Y-17657889D02*
X8784468Y-17676936D01*
X8784468Y-17676936D02*
X8774944Y-17686460D01*
X8774944Y-17686460D02*
X8755896Y-17695984D01*
X8755896Y-17695984D02*
X8708277Y-17695984D01*
X8708277Y-17695984D02*
X8689229Y-17686460D01*
X8689229Y-17686460D02*
X8679706Y-17676936D01*
X8984468Y-17695984D02*
X8870182Y-17695984D01*
X8927325Y-17695984D02*
X8927325Y-17495984D01*
X8927325Y-17495984D02*
X8908277Y-17524555D01*
X8908277Y-17524555D02*
X8889229Y-17543603D01*
X8889229Y-17543603D02*
X8870182Y-17553127D01*
X9060658Y-17515031D02*
X9070182Y-17505508D01*
X9070182Y-17505508D02*
X9089229Y-17495984D01*
X9089229Y-17495984D02*
X9136849Y-17495984D01*
X9136849Y-17495984D02*
X9155896Y-17505508D01*
X9155896Y-17505508D02*
X9165420Y-17515031D01*
X9165420Y-17515031D02*
X9174944Y-17534079D01*
X9174944Y-17534079D02*
X9174944Y-17553127D01*
X9174944Y-17553127D02*
X9165420Y-17581698D01*
X9165420Y-17581698D02*
X9051134Y-17695984D01*
X9051134Y-17695984D02*
X9174944Y-17695984D01*
X9251134Y-17495984D02*
X9251134Y-17534079D01*
X9327325Y-17495984D02*
X9327325Y-17534079D01*
X9622563Y-17772174D02*
X9613039Y-17762650D01*
X9613039Y-17762650D02*
X9593991Y-17734079D01*
X9593991Y-17734079D02*
X9584468Y-17715031D01*
X9584468Y-17715031D02*
X9574944Y-17686460D01*
X9574944Y-17686460D02*
X9565420Y-17638841D01*
X9565420Y-17638841D02*
X9565420Y-17600746D01*
X9565420Y-17600746D02*
X9574944Y-17553127D01*
X9574944Y-17553127D02*
X9584468Y-17524555D01*
X9584468Y-17524555D02*
X9593991Y-17505508D01*
X9593991Y-17505508D02*
X9613039Y-17476936D01*
X9613039Y-17476936D02*
X9622563Y-17467412D01*
X9689230Y-17515031D02*
X9698753Y-17505508D01*
X9698753Y-17505508D02*
X9717801Y-17495984D01*
X9717801Y-17495984D02*
X9765420Y-17495984D01*
X9765420Y-17495984D02*
X9784468Y-17505508D01*
X9784468Y-17505508D02*
X9793991Y-17515031D01*
X9793991Y-17515031D02*
X9803515Y-17534079D01*
X9803515Y-17534079D02*
X9803515Y-17553127D01*
X9803515Y-17553127D02*
X9793991Y-17581698D01*
X9793991Y-17581698D02*
X9679706Y-17695984D01*
X9679706Y-17695984D02*
X9803515Y-17695984D01*
X10041611Y-17695984D02*
X10041611Y-17495984D01*
X10127325Y-17695984D02*
X10127325Y-17591222D01*
X10127325Y-17591222D02*
X10117801Y-17572174D01*
X10117801Y-17572174D02*
X10098753Y-17562650D01*
X10098753Y-17562650D02*
X10070182Y-17562650D01*
X10070182Y-17562650D02*
X10051134Y-17572174D01*
X10051134Y-17572174D02*
X10041611Y-17581698D01*
X10251134Y-17695984D02*
X10232087Y-17686460D01*
X10232087Y-17686460D02*
X10222563Y-17676936D01*
X10222563Y-17676936D02*
X10213039Y-17657889D01*
X10213039Y-17657889D02*
X10213039Y-17600746D01*
X10213039Y-17600746D02*
X10222563Y-17581698D01*
X10222563Y-17581698D02*
X10232087Y-17572174D01*
X10232087Y-17572174D02*
X10251134Y-17562650D01*
X10251134Y-17562650D02*
X10279706Y-17562650D01*
X10279706Y-17562650D02*
X10298753Y-17572174D01*
X10298753Y-17572174D02*
X10308277Y-17581698D01*
X10308277Y-17581698D02*
X10317801Y-17600746D01*
X10317801Y-17600746D02*
X10317801Y-17657889D01*
X10317801Y-17657889D02*
X10308277Y-17676936D01*
X10308277Y-17676936D02*
X10298753Y-17686460D01*
X10298753Y-17686460D02*
X10279706Y-17695984D01*
X10279706Y-17695984D02*
X10251134Y-17695984D01*
X10432087Y-17695984D02*
X10413039Y-17686460D01*
X10413039Y-17686460D02*
X10403515Y-17667412D01*
X10403515Y-17667412D02*
X10403515Y-17495984D01*
X10584468Y-17686460D02*
X10565420Y-17695984D01*
X10565420Y-17695984D02*
X10527325Y-17695984D01*
X10527325Y-17695984D02*
X10508277Y-17686460D01*
X10508277Y-17686460D02*
X10498753Y-17667412D01*
X10498753Y-17667412D02*
X10498753Y-17591222D01*
X10498753Y-17591222D02*
X10508277Y-17572174D01*
X10508277Y-17572174D02*
X10527325Y-17562650D01*
X10527325Y-17562650D02*
X10565420Y-17562650D01*
X10565420Y-17562650D02*
X10584468Y-17572174D01*
X10584468Y-17572174D02*
X10593992Y-17591222D01*
X10593992Y-17591222D02*
X10593992Y-17610270D01*
X10593992Y-17610270D02*
X10498753Y-17629317D01*
X10670182Y-17686460D02*
X10689230Y-17695984D01*
X10689230Y-17695984D02*
X10727325Y-17695984D01*
X10727325Y-17695984D02*
X10746373Y-17686460D01*
X10746373Y-17686460D02*
X10755896Y-17667412D01*
X10755896Y-17667412D02*
X10755896Y-17657889D01*
X10755896Y-17657889D02*
X10746373Y-17638841D01*
X10746373Y-17638841D02*
X10727325Y-17629317D01*
X10727325Y-17629317D02*
X10698753Y-17629317D01*
X10698753Y-17629317D02*
X10679706Y-17619793D01*
X10679706Y-17619793D02*
X10670182Y-17600746D01*
X10670182Y-17600746D02*
X10670182Y-17591222D01*
X10670182Y-17591222D02*
X10679706Y-17572174D01*
X10679706Y-17572174D02*
X10698753Y-17562650D01*
X10698753Y-17562650D02*
X10727325Y-17562650D01*
X10727325Y-17562650D02*
X10746373Y-17572174D01*
X10822563Y-17772174D02*
X10832087Y-17762650D01*
X10832087Y-17762650D02*
X10851134Y-17734079D01*
X10851134Y-17734079D02*
X10860658Y-17715031D01*
X10860658Y-17715031D02*
X10870182Y-17686460D01*
X10870182Y-17686460D02*
X10879706Y-17638841D01*
X10879706Y-17638841D02*
X10879706Y-17600746D01*
X10879706Y-17600746D02*
X10870182Y-17553127D01*
X10870182Y-17553127D02*
X10860658Y-17524555D01*
X10860658Y-17524555D02*
X10851134Y-17505508D01*
X10851134Y-17505508D02*
X10832087Y-17476936D01*
X10832087Y-17476936D02*
X10822563Y-17467412D01*
M02*
