M48
; DRILL file {KiCad 8.0.1} date 2024-08-22T21:07:04+0300
; FORMAT={-:-/ absolute / inch / decimal}
; #@! TF.CreationDate,2024-08-22T21:07:04+03:00
; #@! TF.GenerationSoftware,Kicad,Pcbnew,8.0.1
; #@! TF.FileFunction,Plated,1,2,PTH
FMAT,2
INCH
; #@! TA.AperFunction,Plated,PTH,ViaDrill
T1C0.0118
; #@! TA.AperFunction,Plated,PTH,ComponentDrill
T2C0.0276
; #@! TA.AperFunction,Plated,PTH,ComponentDrill
T3C0.0315
; #@! TA.AperFunction,Plated,PTH,ComponentDrill
T4C0.0354
; #@! TA.AperFunction,Plated,PTH,ComponentDrill
T5C0.0394
; #@! TA.AperFunction,Plated,PTH,ComponentDrill
T6C0.0400
; #@! TA.AperFunction,Plated,PTH,ComponentDrill
T7C0.0402
; #@! TA.AperFunction,Plated,PTH,ComponentDrill
T8C0.0472
; #@! TA.AperFunction,Plated,PTH,ComponentDrill
T9C0.0512
%
G90
G05
T1
X2.9921Y-3.563
X3.0709Y-3.563
X3.878Y-4.1339
X4.252Y-3.7795
X4.5866Y-2.4803
X4.7047Y-2.6378
X4.7441Y-2.1654
X4.7835Y-2.6378
X4.8425Y-4.1339
X4.8819Y-2.1063
X4.9016Y-4.2126
X4.9803Y-5.3543
X5.0Y-2.2638
X5.0394Y-5.5118
X5.0787Y-5.6299
X5.4331Y-4.0748
X5.4541Y-4.2899
X5.4724Y-3.3268
X5.5118Y-2.9134
X6.7126Y-4.8819
X6.752Y-4.5866
X6.752Y-4.9606
X6.9094Y-4.5866
X7.0472Y-4.5669
T2
X5.8268Y-4.576
X5.8268Y-4.876
X5.9252Y-4.576
X5.9252Y-4.876
X6.0236Y-4.576
X6.0236Y-4.876
T3
X4.2086Y-3.8895
X4.2086Y-3.9895
X4.2086Y-4.0895
X4.2086Y-4.1895
X4.2086Y-4.2895
X4.2086Y-4.3895
X4.2086Y-4.4895
X4.2086Y-4.5895
X4.4317Y-4.601
X4.4317Y-4.701
X4.4317Y-4.801
X4.4319Y-2.7011
X4.4319Y-2.8011
X4.4319Y-2.9011
X4.4319Y-3.0011
X4.4319Y-3.1011
X4.4319Y-3.2011
X4.4319Y-3.3011
X4.4319Y-3.4011
X4.4319Y-3.5011
X4.4319Y-3.6011
X4.4319Y-3.7011
X4.4319Y-3.8011
X4.4319Y-3.9011
X4.4319Y-4.0011
X4.4319Y-4.1011
X4.4319Y-4.2011
X4.4319Y-4.3011
X4.4319Y-4.4011
X4.4319Y-4.5011
X5.3319Y-2.7011
X5.3319Y-2.8011
X5.3319Y-2.9011
X5.3319Y-3.0011
X5.3319Y-3.1011
X5.3319Y-3.2011
X5.3319Y-3.3011
X5.3319Y-3.4011
X5.3319Y-3.5011
X5.3319Y-3.6011
X5.3319Y-3.7011
X5.3319Y-3.8011
X5.3319Y-3.9011
X5.3319Y-4.0011
X5.3319Y-4.1011
X5.3319Y-4.2011
X5.3319Y-4.3011
X5.3319Y-4.4011
X5.3319Y-4.5011
X5.3319Y-4.6011
X5.3319Y-4.7011
X5.3319Y-4.8011
T4
X2.9341Y-2.6165
X2.9341Y-2.7165
X2.9341Y-2.8165
X2.9341Y-4.9197
X2.9341Y-5.0197
X2.9341Y-5.1197
X4.485Y-1.9685
X4.4866Y-5.7864
X4.585Y-1.9685
X4.5866Y-5.7864
X4.685Y-1.9685
X4.6866Y-5.7864
X5.0181Y-1.9685
X5.0378Y-5.7864
X5.1181Y-1.9685
X5.1378Y-5.7864
X5.2181Y-1.9685
X5.2378Y-5.7864
X7.1131Y-5.3731
X7.1293Y-2.3321
X7.1831Y-5.4331
X7.1893Y-2.3921
X7.2431Y-5.3731
X7.2493Y-2.3321
X7.3031Y-5.4331
X7.3193Y-2.3921
T5
X3.4055Y-3.6024
X3.9055Y-4.8219
X4.0055Y-4.8219
X4.0157Y-3.5858
X4.1055Y-4.8219
X4.1157Y-3.5858
X4.2055Y-4.8219
X4.2157Y-3.5858
X5.6299Y-4.6244
X5.6299Y-4.7244
X5.6299Y-4.8244
X5.6299Y-4.9244
X5.6486Y-3.8925
X5.6486Y-3.9925
X5.6486Y-4.0925
X5.6486Y-4.1925
X5.6486Y-4.2925
X5.6486Y-4.3925
X5.6496Y-3.1465
X5.6496Y-3.2465
X5.6496Y-3.3465
X5.6496Y-3.4465
X5.6496Y-3.5465
X5.6496Y-3.6465
X5.6693Y-2.7559
X5.6693Y-2.8559
X5.6693Y-2.9559
X5.876Y-5.0203
X5.9039Y-2.7388
X5.9154Y-2.9533
X5.976Y-5.0203
X6.003Y-3.9026
X6.003Y-4.0026
X6.003Y-4.1026
X6.003Y-4.2026
X6.003Y-4.3026
X6.003Y-4.4026
X6.0039Y-2.7388
X6.0039Y-3.1465
X6.0039Y-3.2465
X6.0039Y-3.3465
X6.0039Y-3.4465
X6.0039Y-3.5465
X6.0039Y-3.6465
X6.0154Y-2.9533
T6
X3.9567Y-2.7953
X3.9567Y-2.8937
X3.9567Y-2.9921
X3.9567Y-3.0906
X3.9567Y-3.189
X3.9567Y-3.2874
X3.9567Y-3.3858
X4.252Y-2.7953
X4.252Y-2.8937
X4.252Y-2.9921
X4.252Y-3.0906
X4.252Y-3.189
X4.252Y-3.2874
X4.252Y-3.3858
T7
X3.4055Y-3.7205
X3.4055Y-3.8205
X3.4055Y-3.9205
X3.4055Y-4.0205
T9
X7.7362Y-4.5276
X7.7362Y-4.7244
T8
G00X7.8465Y-3.7008
M15
G01X7.626Y-3.7008
M16
G05
G00X7.8465Y-4.1142
M15
G01X7.626Y-4.1142
M16
G05
M30
