%TF.GenerationSoftware,KiCad,Pcbnew,8.0.1*%
%TF.CreationDate,2024-08-22T17:50:51+03:00*%
%TF.ProjectId,Maze_kiCad,4d617a65-5f6b-4694-9361-642e6b696361,rev?*%
%TF.SameCoordinates,Original*%
%TF.FileFunction,Copper,L2,Bot*%
%TF.FilePolarity,Positive*%
%FSLAX46Y46*%
G04 Gerber Fmt 4.6, Leading zero omitted, Abs format (unit mm)*
G04 Created by KiCad (PCBNEW 8.0.1) date 2024-08-22 17:50:51*
%MOMM*%
%LPD*%
G01*
G04 APERTURE LIST*
G04 Aperture macros list*
%AMRoundRect*
0 Rectangle with rounded corners*
0 $1 Rounding radius*
0 $2 $3 $4 $5 $6 $7 $8 $9 X,Y pos of 4 corners*
0 Add a 4 corners polygon primitive as box body*
4,1,4,$2,$3,$4,$5,$6,$7,$8,$9,$2,$3,0*
0 Add four circle primitives for the rounded corners*
1,1,$1+$1,$2,$3*
1,1,$1+$1,$4,$5*
1,1,$1+$1,$6,$7*
1,1,$1+$1,$8,$9*
0 Add four rect primitives between the rounded corners*
20,1,$1+$1,$2,$3,$4,$5,0*
20,1,$1+$1,$4,$5,$6,$7,0*
20,1,$1+$1,$6,$7,$8,$9,0*
20,1,$1+$1,$8,$9,$2,$3,0*%
G04 Aperture macros list end*
%TA.AperFunction,ComponentPad*%
%ADD10R,1.700000X1.700000*%
%TD*%
%TA.AperFunction,ComponentPad*%
%ADD11O,1.700000X1.700000*%
%TD*%
%TA.AperFunction,WasherPad*%
%ADD12C,2.500000*%
%TD*%
%TA.AperFunction,ComponentPad*%
%ADD13R,2.000000X1.200000*%
%TD*%
%TA.AperFunction,ComponentPad*%
%ADD14O,2.000000X1.200000*%
%TD*%
%TA.AperFunction,ComponentPad*%
%ADD15O,3.556000X1.778000*%
%TD*%
%TA.AperFunction,ComponentPad*%
%ADD16C,1.530000*%
%TD*%
%TA.AperFunction,ComponentPad*%
%ADD17C,1.400000*%
%TD*%
%TA.AperFunction,ComponentPad*%
%ADD18O,1.400000X1.400000*%
%TD*%
%TA.AperFunction,ComponentPad*%
%ADD19RoundRect,0.450000X-0.450000X-0.450000X0.450000X-0.450000X0.450000X0.450000X-0.450000X0.450000X0*%
%TD*%
%TA.AperFunction,ComponentPad*%
%ADD20C,1.800000*%
%TD*%
%TA.AperFunction,ComponentPad*%
%ADD21O,8.400000X4.200000*%
%TD*%
%TA.AperFunction,WasherPad*%
%ADD22C,3.000000*%
%TD*%
%TA.AperFunction,ComponentPad*%
%ADD23C,1.879600*%
%TD*%
%TA.AperFunction,ComponentPad*%
%ADD24RoundRect,0.250200X-0.649800X-0.649800X0.649800X-0.649800X0.649800X0.649800X-0.649800X0.649800X0*%
%TD*%
%TA.AperFunction,ComponentPad*%
%ADD25RoundRect,0.250200X-0.649800X0.649800X-0.649800X-0.649800X0.649800X-0.649800X0.649800X0.649800X0*%
%TD*%
%TA.AperFunction,ComponentPad*%
%ADD26RoundRect,0.250200X0.649800X0.649800X-0.649800X0.649800X-0.649800X-0.649800X0.649800X-0.649800X0*%
%TD*%
%TA.AperFunction,ComponentPad*%
%ADD27RoundRect,0.450000X0.450000X0.450000X-0.450000X0.450000X-0.450000X-0.450000X0.450000X-0.450000X0*%
%TD*%
%TA.AperFunction,ComponentPad*%
%ADD28R,2.600000X2.600000*%
%TD*%
%TA.AperFunction,ComponentPad*%
%ADD29C,2.600000*%
%TD*%
%TA.AperFunction,ViaPad*%
%ADD30C,0.600000*%
%TD*%
%TA.AperFunction,Conductor*%
%ADD31C,0.200000*%
%TD*%
G04 APERTURE END LIST*
D10*
%TO.P,J9,1,Pin_1*%
%TO.N,Net-(J9-Pin_1)*%
X152475000Y-111825000D03*
D11*
%TO.P,J9,2,Pin_2*%
%TO.N,Net-(J9-Pin_2)*%
X152475000Y-109285000D03*
%TO.P,J9,3,Pin_3*%
%TO.N,Net-(J9-Pin_3)*%
X152475000Y-106745000D03*
%TO.P,J9,4,Pin_4*%
%TO.N,Net-(J9-Pin_4)*%
X152475000Y-104205000D03*
%TO.P,J9,5,Pin_5*%
%TO.N,Net-(J9-Pin_5)*%
X152475000Y-101665000D03*
%TO.P,J9,6,Pin_6*%
%TO.N,Net-(J9-Pin_6)*%
X152475000Y-99125000D03*
%TD*%
D12*
%TO.P,,*%
%TO.N,*%
X145500000Y-141500000D03*
%TD*%
D13*
%TO.P,U1,1,3V3*%
%TO.N,Net-(J9-Pin_3)*%
X112570000Y-68607920D03*
D14*
%TO.P,U1,2,3V3*%
%TO.N,Net-(J9-Pin_2)*%
X112570000Y-71147920D03*
%TO.P,U1,3,RST*%
%TO.N,Net-(J9-Pin_1)*%
X112570000Y-73687920D03*
%TO.P,U1,4,GPIO4/ADC1_CH3*%
%TO.N,/aIn_pin4*%
X112570000Y-76227920D03*
%TO.P,U1,5,GPIO5/ADC1_CH4*%
%TO.N,/aEnb_pin5*%
X112570000Y-78767920D03*
%TO.P,U1,6,GPIO6/ADC1_CH5*%
%TO.N,/bIn_pin6*%
X112570000Y-81307920D03*
%TO.P,U1,7,GPIO7/ADC1_CH6*%
%TO.N,/bEnb_pin7*%
X112570000Y-83847920D03*
%TO.P,U1,8,GPIO15/ADC2_CH4/32K_P*%
%TO.N,/ir_sensor_6*%
X112570000Y-86387920D03*
%TO.P,U1,9,GPIO16/ADC2_CH5/32K_N*%
%TO.N,/ir_sensor_5*%
X112570000Y-88927920D03*
%TO.P,U1,10,GPIO17/ADC2_CH6/U1TXD*%
%TO.N,/ir_sensor_4*%
X112570000Y-91467920D03*
%TO.P,U1,11,GPIO18/ADC2_CH7/U1RXD*%
%TO.N,/ir_sensor_3*%
X112570000Y-94007920D03*
%TO.P,U1,12,GPIO8/ADC1_CH7*%
%TO.N,/ir_sensor_2*%
X112570000Y-96547920D03*
%TO.P,U1,13,GPIO3/ADC1_CH2*%
%TO.N,/ir_sensor_1*%
X112570000Y-99087920D03*
%TO.P,U1,14,GPIO46*%
%TO.N,Net-(J8-Pin_6)*%
X112570000Y-101627920D03*
%TO.P,U1,15,GPIO9/ADC1_CH8*%
%TO.N,Net-(J8-Pin_5)*%
X112570000Y-104167920D03*
%TO.P,U1,16,GPIO10/ADC1_CH9*%
%TO.N,Net-(J8-Pin_4)*%
X112570000Y-106707920D03*
%TO.P,U1,17,GPIO11/ADC2_CH0*%
%TO.N,Net-(J8-Pin_3)*%
X112570000Y-109247920D03*
%TO.P,U1,18,GPIO12/ADC2_CH1*%
%TO.N,Net-(J8-Pin_2)*%
X112570000Y-111787920D03*
%TO.P,U1,19,GPIO13/ADC2_CH2*%
%TO.N,/sda_pin13*%
X112570000Y-114327920D03*
%TO.P,U1,20,GPIO14/ADC2_CH3*%
%TO.N,/scl_pin14*%
X112566320Y-116865200D03*
%TO.P,U1,21,5V*%
%TO.N,VCC*%
X112566320Y-119405200D03*
%TO.P,U1,22,GND*%
%TO.N,GND*%
X112566320Y-121945200D03*
%TO.P,U1,23,GND*%
X135430000Y-121947920D03*
%TO.P,U1,24,GND*%
X135430000Y-119407920D03*
%TO.P,U1,25,GPIO19/ADC2_CH8/USB_D-*%
%TO.N,/echo_pin19*%
X135430000Y-116867920D03*
%TO.P,U1,26,GPIO20/ADC2_CH9/USB_D+*%
%TO.N,/trig_pin20*%
X135430000Y-114327920D03*
%TO.P,U1,27,GPIO21*%
%TO.N,/pin21_red*%
X135430000Y-111787920D03*
%TO.P,U1,28,GPIO47*%
%TO.N,/pin47_green*%
X135430000Y-109247920D03*
%TO.P,U1,29,GPIO48*%
%TO.N,/pin48_blue*%
X135430000Y-106707920D03*
%TO.P,U1,30,GPIO45*%
%TO.N,Net-(J11-Pin_4)*%
X135430000Y-104167920D03*
%TO.P,U1,31,GPIO0*%
%TO.N,Net-(J11-Pin_3)*%
X135430000Y-101627920D03*
%TO.P,U1,32,GPIO35*%
%TO.N,Net-(J11-Pin_2)*%
X135430000Y-99087920D03*
%TO.P,U1,33,GPIO36*%
%TO.N,Net-(J11-Pin_1)*%
X135430000Y-96547920D03*
%TO.P,U1,34,GPIO37*%
%TO.N,Net-(J10-Pin_6)*%
X135430000Y-94007920D03*
%TO.P,U1,35,GPIO38*%
%TO.N,Net-(J10-Pin_5)*%
X135430000Y-91467920D03*
%TO.P,U1,36,GPIO39/MTCK*%
%TO.N,Net-(J10-Pin_4)*%
X135430000Y-88927920D03*
%TO.P,U1,37,GPIO40/MTDO*%
%TO.N,Net-(J10-Pin_3)*%
X135430000Y-86387920D03*
%TO.P,U1,38,GPIO41/MTDI*%
%TO.N,Net-(J10-Pin_2)*%
X135430000Y-83847920D03*
%TO.P,U1,39,GPIO42/MTMS*%
%TO.N,Net-(J10-Pin_1)*%
X135430000Y-81307920D03*
%TO.P,U1,40,GPIO2/ADC1_CH1*%
%TO.N,Net-(J9-Pin_6)*%
X135430000Y-78767920D03*
%TO.P,U1,41,GPIO1/ADC1_CH0*%
%TO.N,/ir_receiver_pin1*%
X135430000Y-76227920D03*
%TO.P,U1,42,GPIO44/U0RXD*%
%TO.N,Net-(J9-Pin_5)*%
X135430000Y-73687920D03*
%TO.P,U1,43,GPIO43/U0TXD*%
%TO.N,Net-(J9-Pin_4)*%
X135430000Y-71147920D03*
%TO.P,U1,44,GND*%
%TO.N,GND*%
X135430000Y-68607920D03*
%TD*%
D15*
%TO.P,U8,ADO,ADO*%
%TO.N,Net-(J5-Pin_2)*%
X106897500Y-101332500D03*
%TO.P,U8,GND,GND*%
%TO.N,GND*%
X106897500Y-114032500D03*
%TO.P,U8,INT,INT*%
%TO.N,Net-(J5-Pin_1)*%
X106897500Y-98792500D03*
%TO.P,U8,SCL,SCL*%
%TO.N,/scl_pin14*%
X106897500Y-111492500D03*
%TO.P,U8,SDA,SDA*%
%TO.N,/sda_pin13*%
X106897500Y-108952500D03*
%TO.P,U8,VCC,VCC*%
%TO.N,VCC*%
X106897500Y-116572500D03*
%TO.P,U8,XCL,XCL*%
%TO.N,Net-(J5-Pin_3)*%
X106897500Y-103872500D03*
%TO.P,U8,XDA,XDA*%
%TO.N,Net-(J5-Pin_4)*%
X106897500Y-106412500D03*
%TD*%
D10*
%TO.P,J8,1,Pin_1*%
%TO.N,VCC*%
X143475000Y-111570000D03*
D11*
%TO.P,J8,2,Pin_2*%
%TO.N,Net-(J8-Pin_2)*%
X143475000Y-109030000D03*
%TO.P,J8,3,Pin_3*%
%TO.N,Net-(J8-Pin_3)*%
X143475000Y-106490000D03*
%TO.P,J8,4,Pin_4*%
%TO.N,Net-(J8-Pin_4)*%
X143475000Y-103950000D03*
%TO.P,J8,5,Pin_5*%
%TO.N,Net-(J8-Pin_5)*%
X143475000Y-101410000D03*
%TO.P,J8,6,Pin_6*%
%TO.N,Net-(J8-Pin_6)*%
X143475000Y-98870000D03*
%TD*%
D16*
%TO.P,U9,1,VCC*%
%TO.N,VCC*%
X86500000Y-94500000D03*
%TO.P,U9,2,TRIG*%
%TO.N,/trig_pin20*%
X86500000Y-97040000D03*
%TO.P,U9,3,ECHO*%
%TO.N,/echo_pin19*%
X86500000Y-99580000D03*
%TO.P,U9,4,GND*%
%TO.N,unconnected-(U9-GND-Pad4)*%
X86500000Y-102120000D03*
%TD*%
D10*
%TO.P,J11,1,Pin_1*%
%TO.N,Net-(J11-Pin_1)*%
X152500000Y-79920000D03*
D11*
%TO.P,J11,2,Pin_2*%
%TO.N,Net-(J11-Pin_2)*%
X152500000Y-82460000D03*
%TO.P,J11,3,Pin_3*%
%TO.N,Net-(J11-Pin_3)*%
X152500000Y-85000000D03*
%TO.P,J11,4,Pin_4*%
%TO.N,Net-(J11-Pin_4)*%
X152500000Y-87540000D03*
%TO.P,J11,5,Pin_5*%
%TO.N,GND*%
X152500000Y-90080000D03*
%TO.P,J11,6,Pin_6*%
X152500000Y-92620000D03*
%TD*%
D17*
%TO.P,R2,1*%
%TO.N,/pin47_green*%
X150500000Y-116230000D03*
D18*
%TO.P,R2,2*%
%TO.N,Net-(D1-GA)*%
X150500000Y-123850000D03*
%TD*%
D19*
%TO.P,D2,1,RA*%
%TO.N,Net-(D1-RA)*%
X180674000Y-136476000D03*
D20*
%TO.P,D2,2,GA*%
%TO.N,Net-(D1-GA)*%
X182452000Y-138000000D03*
%TO.P,D2,3,BA*%
%TO.N,Net-(D1-BA)*%
X183976000Y-136476000D03*
%TO.P,D2,4,K*%
%TO.N,GND*%
X185500000Y-138000000D03*
%TD*%
D21*
%TO.P,S1,1*%
%TO.N,Net-(J1-Pin_1)*%
X196500000Y-104500000D03*
%TO.P,S1,2*%
%TO.N,+7V*%
X196500000Y-94000000D03*
%TD*%
D12*
%TO.P,,*%
%TO.N,*%
X163500000Y-141500000D03*
%TD*%
D10*
%TO.P,U10,1,IN*%
%TO.N,+7V*%
X102000000Y-91080000D03*
D11*
%TO.P,U10,2,GND*%
%TO.N,GND2*%
X104540000Y-91080000D03*
%TO.P,U10,3,OUT*%
%TO.N,VCC*%
X107080000Y-91080000D03*
%TD*%
D10*
%TO.P,J2,1,Pin_1*%
%TO.N,Net-(J2-Pin_1)*%
X152500000Y-69565000D03*
D11*
%TO.P,J2,2,Pin_2*%
%TO.N,Net-(J2-Pin_2)*%
X149960000Y-69565000D03*
%TD*%
D22*
%TO.P,,*%
%TO.N,*%
X170000000Y-135000000D03*
%TD*%
D23*
%TO.P,MotorDriver1,1,GND*%
%TO.N,GND*%
X108000000Y-86000000D03*
%TO.P,MotorDriver1,2,VCC*%
%TO.N,VCC*%
X108000000Y-83500000D03*
%TO.P,MotorDriver1,3,BENBL*%
%TO.N,/bEnb_pin7*%
X108000000Y-81000000D03*
%TO.P,MotorDriver1,4,BPHASE*%
%TO.N,/bIn_pin6*%
X108000000Y-78500000D03*
%TO.P,MotorDriver1,5,AENBL*%
%TO.N,/aEnb_pin5*%
X108000000Y-76000000D03*
%TO.P,MotorDriver1,6,APHASE*%
%TO.N,/aIn_pin4*%
X108000000Y-73500000D03*
%TO.P,MotorDriver1,7,MODE*%
%TO.N,Net-(J4-Pin_2)*%
X108000000Y-71000000D03*
%TO.P,MotorDriver1,8,GND_HigtVolt*%
%TO.N,GND2*%
X100500000Y-86000000D03*
%TO.P,MotorDriver1,9,VCC_HightVolt*%
%TO.N,+7V*%
X100500000Y-83500000D03*
%TO.P,MotorDriver1,10,Bout2*%
%TO.N,Net-(J2-Pin_1)*%
X100500000Y-81000000D03*
%TO.P,MotorDriver1,11,Bout1*%
%TO.N,Net-(J2-Pin_2)*%
X100500000Y-78500000D03*
%TO.P,MotorDriver1,12,Aout2*%
%TO.N,Net-(J3-Pin_1)*%
X100500000Y-76000000D03*
%TO.P,MotorDriver1,13,Aout1*%
%TO.N,Net-(J3-Pin_2)*%
X100500000Y-73500000D03*
%TO.P,MotorDriver1,14,VMM*%
%TO.N,Net-(J4-Pin_1)*%
X100500000Y-71000000D03*
%TD*%
D24*
%TO.P,U3,1,VCC*%
%TO.N,VCC*%
X127960000Y-146975000D03*
D20*
%TO.P,U3,2,OUT*%
%TO.N,/ir_sensor_2*%
X130500000Y-146975000D03*
%TO.P,U3,3,GND*%
%TO.N,GND*%
X133040000Y-146975000D03*
%TD*%
D10*
%TO.P,J12,1,Pin_1*%
%TO.N,GND*%
X143000000Y-117460000D03*
D11*
%TO.P,J12,2,Pin_2*%
X143000000Y-120000000D03*
%TO.P,J12,3,Pin_3*%
%TO.N,VCC*%
X143000000Y-122540000D03*
%TO.P,J12,4,Pin_4*%
X143000000Y-125080000D03*
%TD*%
D10*
%TO.P,J3,1,Pin_1*%
%TO.N,Net-(J3-Pin_1)*%
X149250000Y-127515000D03*
D11*
%TO.P,J3,2,Pin_2*%
%TO.N,Net-(J3-Pin_2)*%
X151790000Y-127515000D03*
%TD*%
D22*
%TO.P,,*%
%TO.N,*%
X100000000Y-135000000D03*
%TD*%
D12*
%TO.P,,*%
%TO.N,*%
X163500000Y-55500000D03*
%TD*%
D10*
%TO.P,J6,1,Pin_1*%
%TO.N,GND*%
X86500000Y-91500000D03*
%TD*%
%TO.P,J5,1,Pin_1*%
%TO.N,Net-(J5-Pin_1)*%
X99200000Y-122475000D03*
D11*
%TO.P,J5,2,Pin_2*%
%TO.N,Net-(J5-Pin_2)*%
X101740000Y-122475000D03*
%TO.P,J5,3,Pin_3*%
%TO.N,Net-(J5-Pin_3)*%
X104280000Y-122475000D03*
%TO.P,J5,4,Pin_4*%
%TO.N,Net-(J5-Pin_4)*%
X106820000Y-122475000D03*
%TD*%
D25*
%TO.P,U4,1,VCC*%
%TO.N,VCC*%
X74525000Y-66460000D03*
D20*
%TO.P,U4,2,OUT*%
%TO.N,/ir_sensor_3*%
X74525000Y-69000000D03*
%TO.P,U4,3,GND*%
%TO.N,GND*%
X74525000Y-71540000D03*
%TD*%
D26*
%TO.P,U6,1,VCC*%
%TO.N,VCC*%
X119000000Y-50000000D03*
D20*
%TO.P,U6,2,OUT*%
%TO.N,/ir_sensor_5*%
X116460000Y-50000000D03*
%TO.P,U6,3,GND*%
%TO.N,GND*%
X113920000Y-50000000D03*
%TD*%
D17*
%TO.P,R3,1*%
%TO.N,/pin21_red*%
X148000000Y-116230000D03*
D18*
%TO.P,R3,2*%
%TO.N,Net-(D1-RA)*%
X148000000Y-123850000D03*
%TD*%
D26*
%TO.P,U5,1,VCC*%
%TO.N,VCC*%
X132540000Y-50000000D03*
D20*
%TO.P,U5,2,OUT*%
%TO.N,/ir_sensor_4*%
X130000000Y-50000000D03*
%TO.P,U5,3,GND*%
%TO.N,GND*%
X127460000Y-50000000D03*
%TD*%
D25*
%TO.P,U7,1,VCC*%
%TO.N,VCC*%
X74525000Y-124960000D03*
D20*
%TO.P,U7,2,OUT*%
%TO.N,/ir_sensor_6*%
X74525000Y-127500000D03*
%TO.P,U7,3,GND*%
%TO.N,GND*%
X74525000Y-130040000D03*
%TD*%
D22*
%TO.P,,*%
%TO.N,*%
X100000000Y-60000000D03*
%TD*%
D27*
%TO.P,D1,1,RA*%
%TO.N,Net-(D1-RA)*%
X185910000Y-60760000D03*
D20*
%TO.P,D1,2,GA*%
%TO.N,Net-(D1-GA)*%
X184132000Y-59236000D03*
%TO.P,D1,3,BA*%
%TO.N,Net-(D1-BA)*%
X182608000Y-60760000D03*
%TO.P,D1,4,K*%
%TO.N,GND*%
X181084000Y-59236000D03*
%TD*%
D22*
%TO.P,,*%
%TO.N,*%
X170000000Y-60000000D03*
%TD*%
%TO.P,,*%
%TO.N,*%
X91000000Y-90000000D03*
%TD*%
D17*
%TO.P,R1,1*%
%TO.N,/pin48_blue*%
X153000000Y-116230000D03*
D18*
%TO.P,R1,2*%
%TO.N,Net-(D1-BA)*%
X153000000Y-123850000D03*
%TD*%
D10*
%TO.P,J10,1,Pin_1*%
%TO.N,Net-(J10-Pin_1)*%
X143500000Y-79920000D03*
D11*
%TO.P,J10,2,Pin_2*%
%TO.N,Net-(J10-Pin_2)*%
X143500000Y-82460000D03*
%TO.P,J10,3,Pin_3*%
%TO.N,Net-(J10-Pin_3)*%
X143500000Y-85000000D03*
%TO.P,J10,4,Pin_4*%
%TO.N,Net-(J10-Pin_4)*%
X143500000Y-87540000D03*
%TO.P,J10,5,Pin_5*%
%TO.N,Net-(J10-Pin_5)*%
X143500000Y-90080000D03*
%TO.P,J10,6,Pin_6*%
%TO.N,Net-(J10-Pin_6)*%
X143500000Y-92620000D03*
%TD*%
D22*
%TO.P,,*%
%TO.N,*%
X91000000Y-104700000D03*
%TD*%
D12*
%TO.P,,*%
%TO.N,*%
X145500000Y-55500000D03*
%TD*%
D28*
%TO.P,J1,1,Pin_1*%
%TO.N,Net-(J1-Pin_1)*%
X196500000Y-115000000D03*
D29*
%TO.P,J1,2,Pin_2*%
%TO.N,GND2*%
X196500000Y-120000000D03*
%TD*%
D10*
%TO.P,J4,1,Pin_1*%
%TO.N,Net-(J4-Pin_1)*%
X150250000Y-75015000D03*
D11*
%TO.P,J4,2,Pin_2*%
%TO.N,Net-(J4-Pin_2)*%
X152790000Y-75015000D03*
%TD*%
D24*
%TO.P,U2,1,VCC*%
%TO.N,VCC*%
X113960000Y-146975000D03*
D20*
%TO.P,U2,2,OUT*%
%TO.N,/ir_sensor_1*%
X116500000Y-146975000D03*
%TO.P,U2,3,GND*%
%TO.N,GND*%
X119040000Y-146975000D03*
%TD*%
D10*
%TO.P,J7,1,Pin_1*%
%TO.N,/ir_receiver_pin1*%
X144000000Y-70000000D03*
D11*
%TO.P,J7,2,Pin_2*%
%TO.N,VCC*%
X144000000Y-72540000D03*
%TO.P,J7,3,Pin_3*%
%TO.N,GND*%
X144000000Y-75080000D03*
%TD*%
D30*
%TO.N,Net-(D1-GA)*%
X171500000Y-126000000D03*
X179000000Y-116000000D03*
%TO.N,Net-(D1-RA)*%
X171500000Y-116500000D03*
%TO.N,Net-(D1-BA)*%
X170500000Y-124000000D03*
X175500000Y-116500000D03*
%TO.N,GND*%
X98500000Y-105000000D03*
X124000000Y-53500000D03*
X129000000Y-143000000D03*
X127000000Y-57500000D03*
%TO.N,Net-(J3-Pin_1)*%
X78000000Y-90500000D03*
%TO.N,Net-(J3-Pin_2)*%
X76000000Y-90500000D03*
%TO.N,Net-(J4-Pin_1)*%
X121500000Y-67000000D03*
%TO.N,Net-(J4-Pin_2)*%
X119500000Y-67000000D03*
%TO.N,/ir_receiver_pin1*%
X140000000Y-74000000D03*
%TO.N,VCC*%
X128000000Y-140000000D03*
X120500000Y-55000000D03*
%TO.N,Net-(J8-Pin_3)*%
X138535305Y-108964695D03*
%TO.N,Net-(J8-Pin_4)*%
X124500000Y-107000000D03*
%TO.N,Net-(J8-Pin_5)*%
X123000000Y-105000000D03*
%TO.N,Net-(J8-Pin_6)*%
X138000000Y-103500000D03*
%TO.N,+7V*%
X108000000Y-96000000D03*
X139000000Y-84500000D03*
%TO.N,/ir_sensor_2*%
X126500000Y-136000000D03*
%TO.N,/ir_sensor_5*%
X116500000Y-63000000D03*
%TD*%
D31*
%TO.N,GND2*%
X110500000Y-97040000D02*
X104540000Y-91080000D01*
X142638654Y-108000000D02*
X111000000Y-108000000D01*
X111000000Y-108000000D02*
X110500000Y-107500000D01*
X142998654Y-107640000D02*
X142638654Y-108000000D01*
X110500000Y-107500000D02*
X110500000Y-97040000D01*
X145140000Y-107640000D02*
X142998654Y-107640000D01*
X151000000Y-113500000D02*
X145140000Y-107640000D01*
X190000000Y-113500000D02*
X151000000Y-113500000D01*
X196500000Y-120000000D02*
X190000000Y-113500000D01*
%TO.N,Net-(J8-Pin_3)*%
X138535305Y-108964695D02*
X137352080Y-110147920D01*
X113470000Y-110147920D02*
X112570000Y-109247920D01*
X137352080Y-110147920D02*
X113470000Y-110147920D01*
%TO.N,Net-(J9-Pin_3)*%
X133790000Y-89827920D02*
X112570000Y-68607920D01*
X137437106Y-89827920D02*
X133790000Y-89827920D01*
X148500000Y-100890814D02*
X137437106Y-89827920D01*
X148500000Y-102770000D02*
X148500000Y-100890814D01*
X152475000Y-106745000D02*
X148500000Y-102770000D01*
%TO.N,Net-(J9-Pin_6)*%
X136730000Y-80067920D02*
X135430000Y-78767920D01*
X148125000Y-99125000D02*
X136730000Y-87730000D01*
X136730000Y-87730000D02*
X136730000Y-80067920D01*
X152475000Y-99125000D02*
X148125000Y-99125000D01*
%TO.N,Net-(J9-Pin_5)*%
X137500000Y-75757920D02*
X135430000Y-73687920D01*
X137500000Y-86065685D02*
X137500000Y-75757920D01*
X153625000Y-98125000D02*
X144190000Y-88690000D01*
X153625000Y-100515000D02*
X153625000Y-98125000D01*
X140124315Y-88690000D02*
X137500000Y-86065685D01*
X152475000Y-101665000D02*
X153625000Y-100515000D01*
X144190000Y-88690000D02*
X140124315Y-88690000D01*
%TO.N,Net-(J9-Pin_4)*%
X138000000Y-73717920D02*
X135430000Y-71147920D01*
X138000000Y-86000000D02*
X138000000Y-73717920D01*
X142197843Y-86000000D02*
X138000000Y-86000000D01*
X144390000Y-86390000D02*
X142587843Y-86390000D01*
X142587843Y-86390000D02*
X142197843Y-86000000D01*
X154025000Y-96025000D02*
X144390000Y-86390000D01*
X154025000Y-102655000D02*
X154025000Y-96025000D01*
X152475000Y-104205000D02*
X154025000Y-102655000D01*
%TO.N,Net-(D1-GA)*%
X179000000Y-118500000D02*
X179000000Y-116000000D01*
X171500000Y-126000000D02*
X179000000Y-118500000D01*
%TO.N,Net-(D1-RA)*%
X148000000Y-123850000D02*
X155350000Y-116500000D01*
X155350000Y-116500000D02*
X162500000Y-116500000D01*
X162500000Y-116500000D02*
X171500000Y-116500000D01*
%TO.N,Net-(D1-BA)*%
X170500000Y-124000000D02*
X170500000Y-121500000D01*
X170500000Y-121500000D02*
X175500000Y-116500000D01*
%TO.N,GND*%
X74525000Y-71540000D02*
X74525000Y-78025000D01*
X135430000Y-119407920D02*
X115103600Y-119407920D01*
X103000000Y-111000000D02*
X106032500Y-114032500D01*
X98500000Y-105000000D02*
X103000000Y-109500000D01*
X106032500Y-114032500D02*
X106897500Y-114032500D01*
X103000000Y-109500000D02*
X103000000Y-111000000D01*
X86500000Y-90000000D02*
X86500000Y-91500000D01*
X129000000Y-143000000D02*
X123015000Y-143000000D01*
X124000000Y-53500000D02*
X124000000Y-54500000D01*
X74525000Y-78025000D02*
X86500000Y-90000000D01*
X115103600Y-119407920D02*
X112566320Y-121945200D01*
X123015000Y-143000000D02*
X119040000Y-146975000D01*
X124000000Y-54500000D02*
X127000000Y-57500000D01*
%TO.N,Net-(J2-Pin_1)*%
X147935000Y-65000000D02*
X102000000Y-65000000D01*
X152500000Y-69565000D02*
X147935000Y-65000000D01*
X98600000Y-79100000D02*
X100500000Y-81000000D01*
X102000000Y-65000000D02*
X98600000Y-68400000D01*
X98600000Y-68400000D02*
X98600000Y-79100000D01*
%TO.N,Net-(J2-Pin_2)*%
X99000000Y-77000000D02*
X100500000Y-78500000D01*
X149960000Y-69565000D02*
X146395000Y-66000000D01*
X99000000Y-70746658D02*
X99000000Y-77000000D01*
X103746658Y-66000000D02*
X99000000Y-70746658D01*
X146395000Y-66000000D02*
X103746658Y-66000000D01*
%TO.N,Net-(J3-Pin_1)*%
X149250000Y-127515000D02*
X94015000Y-127515000D01*
X78000000Y-111500000D02*
X78000000Y-90500000D01*
X94015000Y-127515000D02*
X78000000Y-111500000D01*
%TO.N,Net-(J3-Pin_2)*%
X147305000Y-132000000D02*
X96000000Y-132000000D01*
X96000000Y-132000000D02*
X76000000Y-112000000D01*
X151790000Y-127515000D02*
X147305000Y-132000000D01*
X76000000Y-112000000D02*
X76000000Y-90500000D01*
%TO.N,Net-(J4-Pin_1)*%
X105100000Y-66400000D02*
X100500000Y-71000000D01*
X121500000Y-67000000D02*
X120900000Y-66400000D01*
X120900000Y-66400000D02*
X105100000Y-66400000D01*
%TO.N,Net-(J4-Pin_2)*%
X112000000Y-67000000D02*
X108000000Y-71000000D01*
X119500000Y-67000000D02*
X112000000Y-67000000D01*
%TO.N,/ir_receiver_pin1*%
X140000000Y-74000000D02*
X144000000Y-70000000D01*
%TO.N,VCC*%
X145500000Y-113595000D02*
X145500000Y-120040000D01*
X145500000Y-120040000D02*
X143000000Y-122540000D01*
X120200000Y-51200000D02*
X131340000Y-51200000D01*
X143475000Y-111570000D02*
X145500000Y-113595000D01*
X106897500Y-116572500D02*
X104572500Y-116572500D01*
X131340000Y-51200000D02*
X132540000Y-50000000D01*
X113960000Y-146975000D02*
X120935000Y-140000000D01*
X120500000Y-55000000D02*
X120200000Y-54700000D01*
X72025727Y-80025727D02*
X72025727Y-68459273D01*
X72025727Y-68459273D02*
X74025000Y-66460000D01*
X119000000Y-50000000D02*
X120200000Y-51200000D01*
X120935000Y-140000000D02*
X128000000Y-140000000D01*
X86500000Y-95500000D02*
X86500000Y-94500000D01*
X103000000Y-112000000D02*
X86500000Y-95500000D01*
X74025000Y-66460000D02*
X74525000Y-66460000D01*
X120200000Y-54700000D02*
X120200000Y-51200000D01*
X104572500Y-116572500D02*
X103000000Y-115000000D01*
X103000000Y-115000000D02*
X103000000Y-112000000D01*
X86500000Y-94500000D02*
X72025727Y-80025727D01*
%TO.N,Net-(J8-Pin_2)*%
X112570000Y-111787920D02*
X113470000Y-110887920D01*
X113470000Y-110887920D02*
X138387920Y-110887920D01*
X138387920Y-110887920D02*
X140245840Y-109030000D01*
X140245840Y-109030000D02*
X143475000Y-109030000D01*
%TO.N,Net-(J8-Pin_4)*%
X124500000Y-107000000D02*
X124207920Y-106707920D01*
X124207920Y-106707920D02*
X112570000Y-106707920D01*
%TO.N,Net-(J8-Pin_5)*%
X122500000Y-105000000D02*
X121667920Y-104167920D01*
X121667920Y-104167920D02*
X112570000Y-104167920D01*
X123000000Y-105000000D02*
X122500000Y-105000000D01*
%TO.N,Net-(J8-Pin_6)*%
X137027920Y-102527920D02*
X138000000Y-103500000D01*
X112570000Y-101627920D02*
X113470000Y-102527920D01*
X113470000Y-102527920D02*
X137027920Y-102527920D01*
%TO.N,Net-(J9-Pin_2)*%
X152475000Y-109285000D02*
X152475000Y-108783654D01*
X143951346Y-100260000D02*
X143238654Y-100260000D01*
X133790000Y-92367920D02*
X112570000Y-71147920D01*
X137000000Y-93905128D02*
X135462792Y-92367920D01*
X143238654Y-100260000D02*
X137000000Y-94021346D01*
X152475000Y-108783654D02*
X143951346Y-100260000D01*
X137000000Y-94021346D02*
X137000000Y-93905128D01*
X135462792Y-92367920D02*
X133790000Y-92367920D01*
%TO.N,Net-(J9-Pin_1)*%
X135487920Y-99987920D02*
X134487920Y-99987920D01*
X152475000Y-111825000D02*
X145750000Y-105100000D01*
X134487920Y-99987920D02*
X114000000Y-79500000D01*
X114000000Y-75117920D02*
X112570000Y-73687920D01*
X114000000Y-79500000D02*
X114000000Y-75117920D01*
X140600000Y-105100000D02*
X135487920Y-99987920D01*
X145750000Y-105100000D02*
X140600000Y-105100000D01*
%TO.N,+7V*%
X139793654Y-83706346D02*
X139000000Y-84500000D01*
X186206346Y-83706346D02*
X139793654Y-83706346D01*
X106920000Y-96000000D02*
X102000000Y-91080000D01*
X108000000Y-96000000D02*
X106920000Y-96000000D01*
X196500000Y-94000000D02*
X186206346Y-83706346D01*
%TO.N,/ir_sensor_2*%
X130500000Y-146975000D02*
X130500000Y-140000000D01*
X130500000Y-140000000D02*
X126500000Y-136000000D01*
%TO.N,/ir_sensor_5*%
X116460000Y-50000000D02*
X116460000Y-62960000D01*
X116460000Y-62960000D02*
X116500000Y-63000000D01*
%TO.N,/echo_pin19*%
X101000000Y-111500000D02*
X101000000Y-116000000D01*
X103500000Y-118500000D02*
X133797920Y-118500000D01*
X89080000Y-99580000D02*
X101000000Y-111500000D01*
X133797920Y-118500000D02*
X135430000Y-116867920D01*
X101000000Y-116000000D02*
X103500000Y-118500000D01*
X86500000Y-99580000D02*
X89080000Y-99580000D01*
%TO.N,/ir_sensor_3*%
X108492080Y-89930000D02*
X112570000Y-94007920D01*
X74525000Y-69000000D02*
X95455000Y-89930000D01*
X95455000Y-89930000D02*
X108492080Y-89930000D01*
%TO.N,/trig_pin20*%
X131757920Y-118000000D02*
X135430000Y-114327920D01*
X86500000Y-97040000D02*
X87270000Y-97040000D01*
X87270000Y-97040000D02*
X102000000Y-111770000D01*
X102000000Y-111770000D02*
X102000000Y-115500000D01*
X102000000Y-115500000D02*
X104500000Y-118000000D01*
X104500000Y-118000000D02*
X131757920Y-118000000D01*
%TD*%
M02*
